G04*
G04 #@! TF.GenerationSoftware,Altium Limited,Altium Designer,22.1.2 (22)*
G04*
G04 Layer_Color=32768*
%FSLAX25Y25*%
%MOIN*%
G70*
G04*
G04 #@! TF.SameCoordinates,BA90D39C-088B-4E96-BCAD-EBD8A34635F5*
G04*
G04*
G04 #@! TF.FilePolarity,Positive*
G04*
G01*
G75*
%ADD10C,0.00591*%
D10*
X76199Y367617D02*
Y361714D01*
X73247D01*
X72263Y362698D01*
Y364665D01*
X73247Y365649D01*
X76199D01*
X67344Y367617D02*
Y361714D01*
X70296Y364665D01*
X66360D01*
X202206Y93210D02*
Y99113D01*
X205158D01*
X206142Y98129D01*
Y96161D01*
X205158Y95178D01*
X202206D01*
X208109Y99113D02*
X212045D01*
Y98129D01*
X208109Y94194D01*
Y93210D01*
X343206Y295275D02*
Y289371D01*
X340254D01*
X339270Y290355D01*
Y292323D01*
X340254Y293307D01*
X343206D01*
X337303Y295275D02*
X335335D01*
X336319D01*
Y289371D01*
X337303Y290355D01*
X332383D02*
X331399Y289371D01*
X329431D01*
X328447Y290355D01*
Y294291D01*
X329431Y295275D01*
X331399D01*
X332383Y294291D01*
Y290355D01*
X230904Y231790D02*
Y225887D01*
X227952D01*
X226968Y226871D01*
Y228839D01*
X227952Y229822D01*
X230904D01*
X225000Y230806D02*
X224016Y231790D01*
X222048D01*
X221065Y230806D01*
Y226871D01*
X222048Y225887D01*
X224016D01*
X225000Y226871D01*
Y227855D01*
X224016Y228839D01*
X221065D01*
X335824Y41239D02*
Y35336D01*
X332873D01*
X331889Y36320D01*
Y38287D01*
X332873Y39271D01*
X335824D01*
X329921Y41239D02*
X327953D01*
X328937D01*
Y35336D01*
X329921Y36320D01*
X325001Y40255D02*
X324017Y41239D01*
X322049D01*
X321065Y40255D01*
Y36320D01*
X322049Y35336D01*
X324017D01*
X325001Y36320D01*
Y37303D01*
X324017Y38287D01*
X321065D01*
X246159Y35432D02*
Y29528D01*
X243207D01*
X242223Y30512D01*
Y32480D01*
X243207Y33464D01*
X246159D01*
X240255Y35432D02*
X238288D01*
X239271D01*
Y29528D01*
X240255Y30512D01*
X235336D02*
X234352Y29528D01*
X232384D01*
X231400Y30512D01*
Y31496D01*
X232384Y32480D01*
X231400Y33464D01*
Y34448D01*
X232384Y35432D01*
X234352D01*
X235336Y34448D01*
Y33464D01*
X234352Y32480D01*
X235336Y31496D01*
Y30512D01*
X234352Y32480D02*
X232384D01*
X192974Y160336D02*
Y166239D01*
X195926D01*
X196910Y165255D01*
Y163287D01*
X195926Y162303D01*
X192974D01*
X198878Y160336D02*
X200846D01*
X199862D01*
Y166239D01*
X198878Y165255D01*
X203798Y166239D02*
X207733D01*
Y165255D01*
X203798Y161319D01*
Y160336D01*
X312502Y350887D02*
Y356790D01*
X315454D01*
X316438Y355806D01*
Y353839D01*
X315454Y352855D01*
X312502D01*
X318406Y350887D02*
X320374D01*
X319390D01*
Y356790D01*
X318406Y355806D01*
X327261Y356790D02*
X323326D01*
Y353839D01*
X325293Y354822D01*
X326277D01*
X327261Y353839D01*
Y351871D01*
X326277Y350887D01*
X324310D01*
X323326Y351871D01*
X227168Y361418D02*
Y367322D01*
X230119D01*
X231103Y366338D01*
Y364370D01*
X230119Y363386D01*
X227168D01*
X233071Y361418D02*
X235039D01*
X234055D01*
Y367322D01*
X233071Y366338D01*
X240943Y361418D02*
Y367322D01*
X237991Y364370D01*
X241927D01*
X113387Y139565D02*
X119290D01*
Y136613D01*
X118307Y135629D01*
X116339D01*
X115355Y136613D01*
Y139565D01*
X113387Y133661D02*
Y131693D01*
Y132677D01*
X119290D01*
X118307Y133661D01*
X119290Y124805D02*
X118307Y126773D01*
X116339Y128741D01*
X114371D01*
X113387Y127757D01*
Y125789D01*
X114371Y124805D01*
X115355D01*
X116339Y125789D01*
Y128741D01*
X360434Y211415D02*
X366338D01*
Y208463D01*
X365354Y207479D01*
X363386D01*
X362402Y208463D01*
Y211415D01*
X360434Y201575D02*
Y205511D01*
X364370Y201575D01*
X365354D01*
X366338Y202559D01*
Y204527D01*
X365354Y205511D01*
Y199608D02*
X366338Y198624D01*
Y196656D01*
X365354Y195672D01*
X361418D01*
X360434Y196656D01*
Y198624D01*
X361418Y199608D01*
X365354D01*
X32973Y141829D02*
X38877D01*
Y138877D01*
X37893Y137893D01*
X35925D01*
X34941Y138877D01*
Y141829D01*
X32973Y131989D02*
Y135925D01*
X36909Y131989D01*
X37893D01*
X38877Y132973D01*
Y134941D01*
X37893Y135925D01*
X32973Y130021D02*
Y128053D01*
Y129037D01*
X38877D01*
X37893Y130021D01*
X357284Y123620D02*
X363188D01*
Y120668D01*
X362204Y119684D01*
X360236D01*
X359252Y120668D01*
Y123620D01*
X357284Y117716D02*
Y115748D01*
Y116732D01*
X363188D01*
X362204Y117716D01*
Y112796D02*
X363188Y111812D01*
Y109845D01*
X362204Y108861D01*
X361220D01*
X360236Y109845D01*
Y110828D01*
Y109845D01*
X359252Y108861D01*
X358268D01*
X357284Y109845D01*
Y111812D01*
X358268Y112796D01*
X291930Y222045D02*
X297834D01*
Y219093D01*
X296850Y218109D01*
X294882D01*
X293898Y219093D01*
Y222045D01*
X291930Y216141D02*
Y214173D01*
Y215157D01*
X297834D01*
X296850Y216141D01*
X291930Y207286D02*
Y211222D01*
X295866Y207286D01*
X296850D01*
X297834Y208270D01*
Y210238D01*
X296850Y211222D01*
X243108Y299113D02*
Y293210D01*
X240156D01*
X239172Y294194D01*
Y296161D01*
X240156Y297145D01*
X243108D01*
X237205Y299113D02*
X235237D01*
X236221D01*
Y293210D01*
X237205Y294194D01*
X232285Y299113D02*
X230317D01*
X231301D01*
Y293210D01*
X232285Y294194D01*
X294487Y136023D02*
Y130119D01*
X291535D01*
X290551Y131103D01*
Y133071D01*
X291535Y134055D01*
X294487D01*
X288583Y131103D02*
X287599Y130119D01*
X285631D01*
X284647Y131103D01*
Y132087D01*
X285631Y133071D01*
X284647Y134055D01*
Y135039D01*
X285631Y136023D01*
X287599D01*
X288583Y135039D01*
Y134055D01*
X287599Y133071D01*
X288583Y132087D01*
Y131103D01*
X287599Y133071D02*
X285631D01*
X76514Y223916D02*
Y218013D01*
X73562D01*
X72578Y218997D01*
Y220965D01*
X73562Y221949D01*
X76514D01*
X66675Y218013D02*
X70610D01*
Y220965D01*
X68643Y219981D01*
X67659D01*
X66675Y220965D01*
Y222933D01*
X67659Y223916D01*
X69627D01*
X70610Y222933D01*
X76199Y318405D02*
Y312501D01*
X73247D01*
X72263Y313485D01*
Y315453D01*
X73247Y316437D01*
X76199D01*
X66360Y312501D02*
X68328Y313485D01*
X70296Y315453D01*
Y317421D01*
X69312Y318405D01*
X67344D01*
X66360Y317421D01*
Y316437D01*
X67344Y315453D01*
X70296D01*
X76514Y271161D02*
Y265257D01*
X73562D01*
X72578Y266241D01*
Y268209D01*
X73562Y269193D01*
X76514D01*
X70610Y266241D02*
X69627Y265257D01*
X67659D01*
X66675Y266241D01*
Y267225D01*
X67659Y268209D01*
X68643D01*
X67659D01*
X66675Y269193D01*
Y270177D01*
X67659Y271161D01*
X69627D01*
X70610Y270177D01*
M02*
