G04*
G04 #@! TF.GenerationSoftware,Altium Limited,Altium Designer,22.1.2 (22)*
G04*
G04 Layer_Color=16711935*
%FSLAX25Y25*%
%MOIN*%
G70*
G04*
G04 #@! TF.SameCoordinates,BA90D39C-088B-4E96-BCAD-EBD8A34635F5*
G04*
G04*
G04 #@! TF.FilePolarity,Negative*
G04*
G01*
G75*
%ADD14C,0.10249*%
G04:AMPARAMS|DCode=15|XSize=102.49mil|YSize=102.49mil|CornerRadius=27.62mil|HoleSize=0mil|Usage=FLASHONLY|Rotation=0.000|XOffset=0mil|YOffset=0mil|HoleType=Round|Shape=RoundedRectangle|*
%AMROUNDEDRECTD15*
21,1,0.10249,0.04724,0,0,0.0*
21,1,0.04724,0.10249,0,0,0.0*
1,1,0.05524,0.02362,-0.02362*
1,1,0.05524,-0.02362,-0.02362*
1,1,0.05524,-0.02362,0.02362*
1,1,0.05524,0.02362,0.02362*
%
%ADD15ROUNDEDRECTD15*%
%ADD16C,0.06102*%
%ADD17R,0.06102X0.06102*%
G04:AMPARAMS|DCode=18|XSize=102.49mil|YSize=102.49mil|CornerRadius=27.62mil|HoleSize=0mil|Usage=FLASHONLY|Rotation=270.000|XOffset=0mil|YOffset=0mil|HoleType=Round|Shape=RoundedRectangle|*
%AMROUNDEDRECTD18*
21,1,0.10249,0.04724,0,0,270.0*
21,1,0.04724,0.10249,0,0,270.0*
1,1,0.05524,-0.02362,-0.02362*
1,1,0.05524,-0.02362,0.02362*
1,1,0.05524,0.02362,0.02362*
1,1,0.05524,0.02362,-0.02362*
%
%ADD18ROUNDEDRECTD18*%
%ADD19R,0.06181X0.06181*%
%ADD20C,0.06181*%
%ADD21R,0.06181X0.06181*%
%ADD22R,0.07493X0.07493*%
%ADD23C,0.07493*%
%ADD24C,0.13674*%
G36*
X330118Y270374D02*
X306201Y246457D01*
X266535D01*
X265256Y247736D01*
X264862Y247342D01*
X216535D01*
X142028Y157776D01*
Y147646D01*
X136508Y142126D01*
X121457D01*
Y185925D01*
X137402Y201870D01*
X143701D01*
X211024Y269193D01*
X212008Y268209D01*
X300689D01*
X317913Y285433D01*
X330118D01*
Y270374D01*
D02*
G37*
G36*
X356004Y265748D02*
X323819Y233563D01*
Y220965D01*
X303937D01*
Y235925D01*
X339764Y270650D01*
Y282087D01*
X344980Y287303D01*
X356004D01*
Y265748D01*
D02*
G37*
G36*
X382185Y368406D02*
X389075D01*
Y214075D01*
X388681Y213681D01*
X374545D01*
X374193Y214036D01*
X375423Y349872D01*
X349114Y376181D01*
Y380512D01*
X286516D01*
X279429Y373425D01*
X242520D01*
X242126Y373031D01*
X241732Y373425D01*
Y391929D01*
X358661D01*
X382185Y368406D01*
D02*
G37*
G36*
X344094Y364370D02*
X370472Y337992D01*
Y209252D01*
X374114D01*
X387795Y195571D01*
Y169095D01*
X226673D01*
X205709Y148130D01*
Y141634D01*
X181201D01*
X142224Y102657D01*
X123721D01*
Y125907D01*
X165146Y157185D01*
X179429D01*
X213583Y191339D01*
X330315D01*
X330906Y190748D01*
X331496Y191339D01*
X359154Y191339D01*
Y313484D01*
X323130Y349508D01*
Y373917D01*
X326772Y377559D01*
X344094D01*
Y364370D01*
D02*
G37*
G36*
X387008Y139862D02*
Y118209D01*
X333465D01*
X325197Y126476D01*
X291929D01*
X278150Y112697D01*
X265119D01*
X264768Y113052D01*
X265055Y140788D01*
X265413Y141138D01*
X387008Y139862D01*
D02*
G37*
G36*
X311713Y106102D02*
X290059Y84449D01*
X230118D01*
X213583Y100984D01*
X213294Y117852D01*
X213644Y118209D01*
X236319D01*
X249114Y105413D01*
X281201D01*
X299311Y123524D01*
X311713D01*
Y106102D01*
D02*
G37*
G36*
X204331Y106496D02*
X161122Y63287D01*
X39123D01*
Y85188D01*
X144095Y87008D01*
X181299Y124213D01*
X204331D01*
Y106496D01*
D02*
G37*
G36*
X385728Y33071D02*
X365453Y12795D01*
X334449D01*
Y31398D01*
Y33858D01*
X357579D01*
Y40059D01*
X365453Y47933D01*
X366437Y111122D01*
X385728D01*
Y33071D01*
D02*
G37*
G36*
X321514Y42758D02*
X326083Y38189D01*
Y8268D01*
X308268D01*
X290158Y25000D01*
X245177D01*
X233563Y13386D01*
Y5807D01*
X174803D01*
X174606Y5610D01*
X155217Y25000D01*
X39075D01*
Y53773D01*
X39435Y54119D01*
X321514Y42758D01*
D02*
G37*
D14*
X71280Y362894D02*
D03*
X91280D02*
D03*
X51279D02*
D03*
X31280D02*
D03*
X222126Y111909D02*
D03*
X320826Y276575D02*
D03*
X210984Y213090D02*
D03*
X313444Y22539D02*
D03*
X223779Y16732D02*
D03*
X215354Y179035D02*
D03*
X334882Y369587D02*
D03*
X249548Y380118D02*
D03*
X132087Y117184D02*
D03*
X379134Y188543D02*
D03*
X51673Y119940D02*
D03*
X375984Y101240D02*
D03*
X310630Y199665D02*
D03*
X221712Y280413D02*
D03*
X274566Y117323D02*
D03*
X31594Y219193D02*
D03*
X51595D02*
D03*
X91594D02*
D03*
X71595D02*
D03*
X31280Y313681D02*
D03*
X51279D02*
D03*
X91280D02*
D03*
X71280D02*
D03*
X31594Y266437D02*
D03*
X51595D02*
D03*
X91594D02*
D03*
X71595D02*
D03*
D15*
X111279Y362894D02*
D03*
X192126Y111909D02*
D03*
X350826Y276575D02*
D03*
X240984Y213090D02*
D03*
X343444Y22539D02*
D03*
X253779Y16732D02*
D03*
X185354Y179035D02*
D03*
X304882Y369587D02*
D03*
X219548Y380118D02*
D03*
X251712Y280413D02*
D03*
X304566Y117323D02*
D03*
X111594Y219193D02*
D03*
X111279Y313681D02*
D03*
X111594Y266437D02*
D03*
D16*
X122835Y71949D02*
D03*
X49311Y72540D02*
D03*
D17*
X122835Y42421D02*
D03*
X49311Y43012D02*
D03*
D18*
X132087Y147185D02*
D03*
X379134Y218543D02*
D03*
X51673Y149940D02*
D03*
X375984Y131240D02*
D03*
X310630Y229665D02*
D03*
D19*
X67028Y183760D02*
D03*
X148799Y272343D02*
D03*
D20*
X57028Y183760D02*
D03*
X138799Y272343D02*
D03*
X139862Y227224D02*
D03*
X163484Y249783D02*
D03*
D21*
X139862Y217224D02*
D03*
X163484Y239783D02*
D03*
D22*
X142579Y317618D02*
D03*
X171831Y353051D02*
D03*
D23*
X152579Y317618D02*
D03*
X162579D02*
D03*
X172579D02*
D03*
X161831Y353051D02*
D03*
X151831D02*
D03*
X141831D02*
D03*
D24*
X15354Y188976D02*
D03*
X155413Y380118D02*
D03*
X381890Y383465D02*
D03*
X379528Y12106D02*
D03*
X15354Y17421D02*
D03*
M02*
