M48
;Layer_Color=9474304
;FILE_FORMAT=2:5
INCH,LZ
;TYPE=PLATED
T1F00S00C0.03937
T2F00S00C0.04016
T3F00S00C0.04685
T4F00S00C0.06299
T5F00S00C0.11811
%
T01
X0049311Y0043012
Y007254
X0122835Y0071949
Y0042421
T02
X0057028Y018376
X0067028
X0139862Y0217224
Y0227224
X0138799Y0272343
X0148799
X0163484Y0249783
Y0239783
T03
X0162579Y0317618
X0172579
X0171831Y0353051
X0161831
X0151831
X0141831
X0142579Y0317618
X0152579
T04
X0313444Y0022539
X0343444
X0375984Y010124
Y013124
X0304566Y0117323
X0274566
X0222126Y0111909
X0192126
X0223779Y0016732
X0253779
X0132087Y0117184
Y0147185
X0051673Y014994
Y011994
X0051595Y0219193
X0031594
X0071595
X0091594
X0111594
Y0266437
X0091594
X0071595
X0051595
X0031594
X0221712Y0280413
X0251712
X0240984Y021309
X0210984
X0215354Y0179035
X0185354
X031063Y0199665
Y0229665
X0320826Y0276575
X0350826
X0379134Y0218543
Y0188543
X0334882Y0369587
X0304882
X0249548Y0380118
X0219548
X0111279Y0362894
X009128
X007128
X0051279
X003128
Y0313681
X0051279
X007128
X009128
X0111279
T05
X0379528Y0012106
X0015354Y0017421
Y0188976
X038189Y0383465
X0155413Y0380118
M30
