G04*
G04 #@! TF.GenerationSoftware,Altium Limited,Altium Designer,22.1.2 (22)*
G04*
G04 Layer_Color=16711935*
%FSLAX25Y25*%
%MOIN*%
G70*
G04*
G04 #@! TF.SameCoordinates,BA90D39C-088B-4E96-BCAD-EBD8A34635F5*
G04*
G04*
G04 #@! TF.FilePolarity,Positive*
G04*
G01*
G75*
%ADD12C,0.00787*%
G36*
X122792Y59654D02*
X122789D01*
X122773D01*
X122750D01*
X122723Y59658D01*
X122693Y59662D01*
X122658Y59666D01*
X122620Y59677D01*
X122581Y59689D01*
X122577D01*
X122574Y59693D01*
X122550Y59700D01*
X122520Y59715D01*
X122474Y59739D01*
X122424Y59765D01*
X122366Y59804D01*
X122309Y59842D01*
X122247Y59892D01*
X122243D01*
X122239Y59900D01*
X122216Y59919D01*
X122182Y59950D01*
X122136Y59996D01*
X122082Y60053D01*
X122017Y60123D01*
X121944Y60207D01*
X121863Y60299D01*
X121859Y60303D01*
X121848Y60318D01*
X121832Y60338D01*
X121806Y60365D01*
X121779Y60399D01*
X121744Y60438D01*
X121671Y60522D01*
X121583Y60614D01*
X121494Y60706D01*
X121452Y60752D01*
X121410Y60791D01*
X121368Y60825D01*
X121329Y60856D01*
X121326D01*
X121322Y60864D01*
X121310Y60871D01*
X121295Y60879D01*
X121256Y60902D01*
X121206Y60929D01*
X121149Y60956D01*
X121088Y60979D01*
X121018Y60994D01*
X120953Y61002D01*
X120949D01*
X120945D01*
X120922Y60998D01*
X120888Y60994D01*
X120846Y60987D01*
X120796Y60967D01*
X120746Y60944D01*
X120692Y60914D01*
X120642Y60868D01*
X120638Y60860D01*
X120623Y60844D01*
X120604Y60814D01*
X120577Y60775D01*
X120554Y60725D01*
X120535Y60668D01*
X120519Y60599D01*
X120515Y60522D01*
Y60499D01*
X120519Y60483D01*
X120523Y60445D01*
X120531Y60395D01*
X120550Y60338D01*
X120573Y60276D01*
X120607Y60219D01*
X120654Y60165D01*
X120661Y60161D01*
X120677Y60146D01*
X120707Y60123D01*
X120750Y60100D01*
X120803Y60073D01*
X120865Y60053D01*
X120938Y60038D01*
X121022Y60030D01*
X120988Y59712D01*
X120984D01*
X120972D01*
X120953Y59715D01*
X120930Y59719D01*
X120899Y59727D01*
X120865Y59731D01*
X120788Y59754D01*
X120700Y59785D01*
X120611Y59827D01*
X120523Y59885D01*
X120485Y59915D01*
X120446Y59954D01*
X120442Y59957D01*
X120439Y59965D01*
X120427Y59977D01*
X120415Y59992D01*
X120404Y60015D01*
X120385Y60042D01*
X120369Y60073D01*
X120350Y60107D01*
X120335Y60146D01*
X120316Y60188D01*
X120300Y60238D01*
X120289Y60288D01*
X120266Y60403D01*
X120262Y60464D01*
X120258Y60530D01*
Y60564D01*
X120262Y60591D01*
X120266Y60622D01*
X120270Y60656D01*
X120273Y60695D01*
X120285Y60737D01*
X120308Y60829D01*
X120343Y60925D01*
X120366Y60975D01*
X120393Y61021D01*
X120427Y61063D01*
X120462Y61106D01*
X120465Y61110D01*
X120469Y61113D01*
X120481Y61125D01*
X120496Y61140D01*
X120519Y61155D01*
X120542Y61175D01*
X120600Y61213D01*
X120673Y61251D01*
X120757Y61286D01*
X120853Y61313D01*
X120907Y61317D01*
X120961Y61321D01*
X120968D01*
X120988D01*
X121018Y61317D01*
X121057Y61313D01*
X121103Y61305D01*
X121153Y61294D01*
X121206Y61278D01*
X121260Y61255D01*
X121268Y61251D01*
X121287Y61244D01*
X121314Y61229D01*
X121352Y61206D01*
X121398Y61179D01*
X121452Y61144D01*
X121506Y61098D01*
X121567Y61048D01*
X121575Y61040D01*
X121598Y61021D01*
X121633Y60987D01*
X121656Y60963D01*
X121683Y60937D01*
X121713Y60906D01*
X121748Y60868D01*
X121783Y60829D01*
X121825Y60787D01*
X121867Y60741D01*
X121913Y60687D01*
X121959Y60633D01*
X122013Y60572D01*
X122017Y60568D01*
X122025Y60560D01*
X122036Y60545D01*
X122051Y60526D01*
X122090Y60480D01*
X122140Y60422D01*
X122193Y60365D01*
X122247Y60303D01*
X122293Y60253D01*
X122312Y60234D01*
X122332Y60215D01*
X122336Y60211D01*
X122347Y60203D01*
X122362Y60188D01*
X122385Y60169D01*
X122435Y60126D01*
X122497Y60084D01*
Y61325D01*
X122792D01*
Y59654D01*
D02*
G37*
G36*
X122013Y59408D02*
X122032Y59401D01*
X122063Y59393D01*
X122094Y59378D01*
X122136Y59362D01*
X122178Y59347D01*
X122224Y59324D01*
X122328Y59274D01*
X122432Y59205D01*
X122531Y59128D01*
X122577Y59082D01*
X122620Y59032D01*
X122624Y59028D01*
X122627Y59021D01*
X122639Y59005D01*
X122654Y58982D01*
X122670Y58955D01*
X122689Y58925D01*
X122708Y58890D01*
X122727Y58848D01*
X122746Y58802D01*
X122766Y58752D01*
X122785Y58694D01*
X122800Y58636D01*
X122827Y58510D01*
X122831Y58441D01*
X122835Y58368D01*
Y58329D01*
X122831Y58299D01*
Y58264D01*
X122827Y58226D01*
X122819Y58179D01*
X122816Y58134D01*
X122792Y58026D01*
X122766Y57915D01*
X122723Y57807D01*
X122700Y57753D01*
X122670Y57703D01*
X122666Y57700D01*
X122662Y57692D01*
X122650Y57680D01*
X122639Y57661D01*
X122600Y57615D01*
X122547Y57561D01*
X122481Y57496D01*
X122397Y57435D01*
X122301Y57369D01*
X122190Y57315D01*
X122186D01*
X122174Y57312D01*
X122159Y57304D01*
X122136Y57296D01*
X122105Y57285D01*
X122071Y57273D01*
X122032Y57262D01*
X121986Y57250D01*
X121940Y57239D01*
X121886Y57227D01*
X121771Y57204D01*
X121648Y57189D01*
X121514Y57185D01*
X121510D01*
X121494D01*
X121475D01*
X121449Y57189D01*
X121414D01*
X121372Y57193D01*
X121329Y57196D01*
X121280Y57204D01*
X121172Y57223D01*
X121057Y57246D01*
X120938Y57285D01*
X120826Y57335D01*
X120823D01*
X120815Y57342D01*
X120800Y57350D01*
X120776Y57362D01*
X120753Y57377D01*
X120727Y57396D01*
X120661Y57446D01*
X120588Y57504D01*
X120515Y57577D01*
X120442Y57665D01*
X120381Y57761D01*
Y57765D01*
X120373Y57772D01*
X120366Y57788D01*
X120358Y57811D01*
X120346Y57834D01*
X120331Y57865D01*
X120319Y57903D01*
X120304Y57942D01*
X120289Y57984D01*
X120277Y58030D01*
X120250Y58134D01*
X120235Y58249D01*
X120227Y58372D01*
Y58410D01*
X120231Y58437D01*
X120235Y58468D01*
X120239Y58506D01*
X120243Y58548D01*
X120250Y58594D01*
X120273Y58694D01*
X120308Y58802D01*
X120331Y58855D01*
X120358Y58909D01*
X120389Y58959D01*
X120423Y59009D01*
X120427Y59013D01*
X120431Y59021D01*
X120442Y59032D01*
X120458Y59051D01*
X120477Y59070D01*
X120504Y59097D01*
X120531Y59124D01*
X120561Y59151D01*
X120600Y59182D01*
X120638Y59209D01*
X120684Y59239D01*
X120734Y59270D01*
X120784Y59297D01*
X120842Y59324D01*
X120965Y59370D01*
X121041Y59040D01*
X121038D01*
X121030Y59036D01*
X121014Y59032D01*
X120995Y59024D01*
X120972Y59013D01*
X120945Y59001D01*
X120888Y58974D01*
X120823Y58940D01*
X120753Y58894D01*
X120692Y58844D01*
X120638Y58782D01*
X120634Y58775D01*
X120619Y58752D01*
X120600Y58717D01*
X120573Y58667D01*
X120550Y58610D01*
X120531Y58537D01*
X120515Y58456D01*
X120511Y58364D01*
Y58337D01*
X120515Y58318D01*
Y58291D01*
X120519Y58264D01*
X120531Y58195D01*
X120546Y58118D01*
X120573Y58038D01*
X120607Y57957D01*
X120654Y57880D01*
Y57876D01*
X120661Y57872D01*
X120680Y57849D01*
X120711Y57815D01*
X120753Y57772D01*
X120807Y57730D01*
X120869Y57684D01*
X120945Y57642D01*
X121030Y57607D01*
X121034D01*
X121041Y57604D01*
X121053Y57600D01*
X121072Y57596D01*
X121091Y57588D01*
X121118Y57584D01*
X121180Y57569D01*
X121253Y57554D01*
X121333Y57542D01*
X121422Y57534D01*
X121514Y57531D01*
X121518D01*
X121529D01*
X121545D01*
X121567D01*
X121594Y57534D01*
X121629D01*
X121663Y57538D01*
X121702Y57542D01*
X121790Y57554D01*
X121886Y57569D01*
X121982Y57592D01*
X122074Y57623D01*
X122078D01*
X122086Y57627D01*
X122097Y57634D01*
X122113Y57642D01*
X122159Y57661D01*
X122209Y57692D01*
X122270Y57734D01*
X122328Y57784D01*
X122385Y57842D01*
X122435Y57911D01*
Y57915D01*
X122439Y57918D01*
X122447Y57930D01*
X122455Y57945D01*
X122470Y57987D01*
X122493Y58041D01*
X122512Y58103D01*
X122531Y58176D01*
X122547Y58256D01*
X122550Y58341D01*
Y58368D01*
X122547Y58387D01*
Y58410D01*
X122543Y58441D01*
X122531Y58506D01*
X122512Y58579D01*
X122481Y58659D01*
X122443Y58736D01*
X122389Y58813D01*
X122385Y58817D01*
X122382Y58821D01*
X122359Y58844D01*
X122320Y58878D01*
X122270Y58921D01*
X122201Y58963D01*
X122120Y59009D01*
X122021Y59047D01*
X121909Y59078D01*
X121994Y59412D01*
X121998D01*
X122013Y59408D01*
D02*
G37*
G36*
X57558Y183756D02*
X57581D01*
X57612Y183752D01*
X57681Y183741D01*
X57758Y183721D01*
X57838Y183691D01*
X57915Y183652D01*
X57992Y183599D01*
X57996Y183595D01*
X57999Y183591D01*
X58022Y183568D01*
X58053Y183529D01*
X58092Y183480D01*
X58130Y183414D01*
X58165Y183334D01*
X58195Y183241D01*
X58214Y183134D01*
X57919Y183111D01*
Y183115D01*
Y183119D01*
X57915Y183130D01*
X57911Y183145D01*
X57903Y183184D01*
X57888Y183226D01*
X57869Y183276D01*
X57846Y183326D01*
X57815Y183376D01*
X57777Y183414D01*
X57773Y183418D01*
X57758Y183430D01*
X57735Y183445D01*
X57700Y183460D01*
X57661Y183476D01*
X57615Y183491D01*
X57562Y183503D01*
X57500Y183506D01*
X57477D01*
X57450Y183503D01*
X57416Y183499D01*
X57377Y183491D01*
X57335Y183480D01*
X57293Y183464D01*
X57251Y183441D01*
X57247Y183437D01*
X57231Y183430D01*
X57212Y183414D01*
X57189Y183395D01*
X57158Y183372D01*
X57132Y183341D01*
X57101Y183307D01*
X57074Y183268D01*
X57070Y183265D01*
X57063Y183249D01*
X57051Y183222D01*
X57032Y183188D01*
X57016Y183145D01*
X56997Y183096D01*
X56978Y183038D01*
X56959Y182973D01*
Y182969D01*
X56955Y182965D01*
Y182954D01*
X56951Y182942D01*
X56943Y182904D01*
X56936Y182854D01*
X56928Y182796D01*
X56920Y182735D01*
X56913Y182666D01*
Y182592D01*
Y182589D01*
Y182577D01*
Y182558D01*
Y182531D01*
X56916Y182539D01*
X56932Y182554D01*
X56951Y182585D01*
X56982Y182616D01*
X57016Y182654D01*
X57063Y182696D01*
X57112Y182735D01*
X57170Y182773D01*
X57178Y182777D01*
X57197Y182788D01*
X57231Y182800D01*
X57274Y182815D01*
X57324Y182834D01*
X57381Y182846D01*
X57446Y182858D01*
X57516Y182861D01*
X57546D01*
X57569Y182858D01*
X57596Y182854D01*
X57627Y182850D01*
X57700Y182834D01*
X57784Y182808D01*
X57827Y182788D01*
X57873Y182765D01*
X57915Y182738D01*
X57961Y182708D01*
X58003Y182673D01*
X58046Y182635D01*
X58049Y182631D01*
X58053Y182623D01*
X58065Y182612D01*
X58080Y182592D01*
X58095Y182570D01*
X58115Y182543D01*
X58134Y182512D01*
X58153Y182474D01*
X58172Y182435D01*
X58191Y182389D01*
X58211Y182339D01*
X58226Y182285D01*
X58241Y182228D01*
X58253Y182170D01*
X58257Y182105D01*
X58261Y182036D01*
Y182032D01*
Y182020D01*
Y181997D01*
X58257Y181971D01*
X58253Y181940D01*
X58249Y181901D01*
X58241Y181859D01*
X58234Y181813D01*
X58207Y181717D01*
X58188Y181663D01*
X58165Y181613D01*
X58141Y181560D01*
X58111Y181510D01*
X58076Y181464D01*
X58038Y181418D01*
X58034Y181414D01*
X58026Y181406D01*
X58015Y181395D01*
X57996Y181379D01*
X57976Y181364D01*
X57950Y181344D01*
X57919Y181322D01*
X57880Y181298D01*
X57842Y181279D01*
X57800Y181256D01*
X57704Y181218D01*
X57650Y181206D01*
X57592Y181195D01*
X57531Y181187D01*
X57469Y181183D01*
X57446D01*
X57427Y181187D01*
X57408D01*
X57381Y181191D01*
X57320Y181199D01*
X57251Y181218D01*
X57178Y181241D01*
X57097Y181272D01*
X57020Y181318D01*
X57016D01*
X57012Y181325D01*
X57001Y181333D01*
X56986Y181341D01*
X56951Y181371D01*
X56905Y181414D01*
X56855Y181471D01*
X56801Y181533D01*
X56751Y181609D01*
X56709Y181698D01*
Y181702D01*
X56705Y181709D01*
X56698Y181725D01*
X56694Y181744D01*
X56682Y181767D01*
X56675Y181798D01*
X56667Y181836D01*
X56655Y181878D01*
X56644Y181924D01*
X56636Y181978D01*
X56625Y182036D01*
X56617Y182097D01*
X56613Y182166D01*
X56605Y182239D01*
X56602Y182320D01*
Y182404D01*
Y182408D01*
Y182427D01*
Y182450D01*
Y182485D01*
X56605Y182523D01*
Y182573D01*
X56609Y182623D01*
X56613Y182681D01*
X56629Y182804D01*
X56648Y182934D01*
X56675Y183061D01*
X56690Y183119D01*
X56709Y183176D01*
Y183180D01*
X56713Y183188D01*
X56721Y183203D01*
X56728Y183222D01*
X56740Y183249D01*
X56751Y183276D01*
X56786Y183337D01*
X56832Y183410D01*
X56886Y183483D01*
X56947Y183553D01*
X57020Y183614D01*
X57024D01*
X57028Y183622D01*
X57039Y183625D01*
X57059Y183637D01*
X57078Y183649D01*
X57101Y183660D01*
X57158Y183687D01*
X57231Y183714D01*
X57312Y183737D01*
X57408Y183752D01*
X57508Y183760D01*
X57535D01*
X57558Y183756D01*
D02*
G37*
G36*
X61405D02*
X61432Y183752D01*
X61467Y183748D01*
X61540Y183737D01*
X61620Y183714D01*
X61705Y183679D01*
X61747Y183660D01*
X61786Y183633D01*
X61824Y183606D01*
X61859Y183572D01*
Y183568D01*
X61866Y183564D01*
X61874Y183553D01*
X61885Y183537D01*
X61901Y183514D01*
X61912Y183491D01*
X61932Y183460D01*
X61947Y183430D01*
X61962Y183391D01*
X61978Y183349D01*
X61993Y183303D01*
X62005Y183249D01*
X62016Y183195D01*
X62024Y183134D01*
X62028Y183072D01*
Y183003D01*
X61728Y182961D01*
Y182965D01*
Y182973D01*
Y182988D01*
X61724Y183007D01*
Y183030D01*
X61720Y183057D01*
X61709Y183119D01*
X61697Y183188D01*
X61678Y183253D01*
X61651Y183311D01*
X61636Y183337D01*
X61620Y183361D01*
X61617Y183364D01*
X61601Y183376D01*
X61582Y183395D01*
X61551Y183410D01*
X61513Y183430D01*
X61467Y183449D01*
X61413Y183460D01*
X61352Y183464D01*
X61329D01*
X61306Y183460D01*
X61279Y183457D01*
X61244Y183449D01*
X61206Y183441D01*
X61171Y183426D01*
X61137Y183407D01*
X61133Y183403D01*
X61121Y183395D01*
X61106Y183384D01*
X61087Y183364D01*
X61064Y183345D01*
X61045Y183318D01*
X61025Y183288D01*
X61010Y183253D01*
Y183249D01*
X61002Y183234D01*
X60998Y183211D01*
X60991Y183176D01*
X60983Y183130D01*
X60979Y183076D01*
X60972Y183011D01*
Y182934D01*
Y181195D01*
X60637D01*
Y182915D01*
Y182919D01*
Y182930D01*
Y182946D01*
Y182969D01*
X60641Y182996D01*
Y183026D01*
X60645Y183096D01*
X60657Y183176D01*
X60668Y183257D01*
X60687Y183337D01*
X60714Y183407D01*
X60718Y183414D01*
X60730Y183433D01*
X60749Y183464D01*
X60772Y183503D01*
X60807Y183549D01*
X60849Y183591D01*
X60903Y183633D01*
X60960Y183672D01*
X60968Y183675D01*
X60991Y183687D01*
X61025Y183698D01*
X61071Y183714D01*
X61129Y183733D01*
X61194Y183745D01*
X61271Y183756D01*
X61352Y183760D01*
X61383D01*
X61405Y183756D01*
D02*
G37*
G36*
X59363Y181744D02*
X59367Y181748D01*
X59382Y181763D01*
X59409Y181782D01*
X59443Y181809D01*
X59486Y181844D01*
X59535Y181878D01*
X59593Y181921D01*
X59658Y181959D01*
X59662D01*
X59666Y181963D01*
X59689Y181978D01*
X59724Y181997D01*
X59766Y182020D01*
X59816Y182047D01*
X59869Y182070D01*
X59927Y182097D01*
X59981Y182120D01*
Y181817D01*
X59977D01*
X59969Y181813D01*
X59954Y181805D01*
X59939Y181794D01*
X59916Y181782D01*
X59889Y181771D01*
X59827Y181736D01*
X59758Y181694D01*
X59681Y181644D01*
X59605Y181586D01*
X59532Y181525D01*
X59528Y181521D01*
X59524Y181517D01*
X59501Y181494D01*
X59466Y181460D01*
X59424Y181418D01*
X59378Y181364D01*
X59332Y181306D01*
X59290Y181245D01*
X59255Y181183D01*
X59052D01*
Y183718D01*
X59363D01*
Y181744D01*
D02*
G37*
G36*
X143177Y272339D02*
X143204Y272335D01*
X143239Y272331D01*
X143312Y272320D01*
X143392Y272297D01*
X143477Y272262D01*
X143519Y272243D01*
X143557Y272216D01*
X143596Y272189D01*
X143630Y272154D01*
Y272151D01*
X143638Y272147D01*
X143646Y272135D01*
X143657Y272120D01*
X143673Y272097D01*
X143684Y272074D01*
X143703Y272043D01*
X143719Y272012D01*
X143734Y271974D01*
X143749Y271932D01*
X143765Y271886D01*
X143776Y271832D01*
X143788Y271778D01*
X143795Y271717D01*
X143799Y271655D01*
Y271586D01*
X143500Y271544D01*
Y271548D01*
Y271555D01*
Y271571D01*
X143496Y271590D01*
Y271613D01*
X143492Y271640D01*
X143481Y271701D01*
X143469Y271770D01*
X143450Y271836D01*
X143423Y271893D01*
X143408Y271920D01*
X143392Y271943D01*
X143388Y271947D01*
X143373Y271959D01*
X143354Y271978D01*
X143323Y271993D01*
X143285Y272012D01*
X143239Y272031D01*
X143185Y272043D01*
X143123Y272047D01*
X143100D01*
X143077Y272043D01*
X143051Y272039D01*
X143016Y272031D01*
X142977Y272024D01*
X142943Y272008D01*
X142908Y271989D01*
X142904Y271985D01*
X142893Y271978D01*
X142878Y271966D01*
X142858Y271947D01*
X142835Y271928D01*
X142816Y271901D01*
X142797Y271870D01*
X142782Y271836D01*
Y271832D01*
X142774Y271816D01*
X142770Y271793D01*
X142762Y271759D01*
X142755Y271713D01*
X142751Y271659D01*
X142743Y271594D01*
Y271517D01*
Y269777D01*
X142409D01*
Y271498D01*
Y271502D01*
Y271513D01*
Y271529D01*
Y271551D01*
X142413Y271578D01*
Y271609D01*
X142417Y271678D01*
X142428Y271759D01*
X142440Y271839D01*
X142459Y271920D01*
X142486Y271989D01*
X142490Y271997D01*
X142501Y272016D01*
X142520Y272047D01*
X142544Y272085D01*
X142578Y272131D01*
X142620Y272174D01*
X142674Y272216D01*
X142732Y272254D01*
X142739Y272258D01*
X142762Y272270D01*
X142797Y272281D01*
X142843Y272297D01*
X142901Y272316D01*
X142966Y272327D01*
X143043Y272339D01*
X143123Y272343D01*
X143154D01*
X143177Y272339D01*
D02*
G37*
G36*
X139660Y272297D02*
Y272285D01*
Y272270D01*
X139656Y272247D01*
Y272220D01*
X139652Y272185D01*
X139648Y272143D01*
X139644Y272101D01*
X139637Y272051D01*
X139629Y271993D01*
X139621Y271936D01*
X139610Y271874D01*
X139598Y271805D01*
X139583Y271736D01*
X139544Y271582D01*
Y271578D01*
X139541Y271563D01*
X139533Y271540D01*
X139525Y271509D01*
X139514Y271471D01*
X139498Y271429D01*
X139483Y271379D01*
X139464Y271321D01*
X139441Y271264D01*
X139418Y271198D01*
X139364Y271060D01*
X139299Y270914D01*
X139226Y270768D01*
X139222Y270764D01*
X139214Y270749D01*
X139203Y270730D01*
X139187Y270703D01*
X139168Y270668D01*
X139145Y270630D01*
X139118Y270588D01*
X139091Y270538D01*
X139022Y270434D01*
X138945Y270323D01*
X138865Y270211D01*
X138777Y270104D01*
X140013D01*
Y269808D01*
X138381D01*
Y270050D01*
X138385Y270054D01*
X138392Y270062D01*
X138404Y270077D01*
X138423Y270096D01*
X138443Y270123D01*
X138469Y270154D01*
X138500Y270192D01*
X138531Y270231D01*
X138565Y270277D01*
X138604Y270330D01*
X138646Y270384D01*
X138684Y270446D01*
X138727Y270511D01*
X138773Y270580D01*
X138815Y270657D01*
X138861Y270734D01*
X138865Y270737D01*
X138873Y270753D01*
X138884Y270776D01*
X138899Y270807D01*
X138919Y270845D01*
X138942Y270891D01*
X138969Y270945D01*
X138995Y271002D01*
X139022Y271064D01*
X139053Y271133D01*
X139084Y271206D01*
X139114Y271283D01*
X139172Y271440D01*
X139226Y271609D01*
Y271613D01*
X139230Y271624D01*
X139234Y271640D01*
X139241Y271663D01*
X139249Y271694D01*
X139257Y271728D01*
X139264Y271770D01*
X139276Y271813D01*
X139283Y271863D01*
X139295Y271916D01*
X139314Y272031D01*
X139330Y272162D01*
X139341Y272300D01*
X139660D01*
Y272297D01*
D02*
G37*
G36*
X141134Y270327D02*
X141138Y270330D01*
X141154Y270346D01*
X141180Y270365D01*
X141215Y270392D01*
X141257Y270426D01*
X141307Y270461D01*
X141365Y270503D01*
X141430Y270542D01*
X141434D01*
X141438Y270545D01*
X141461Y270561D01*
X141495Y270580D01*
X141537Y270603D01*
X141587Y270630D01*
X141641Y270653D01*
X141699Y270680D01*
X141753Y270703D01*
Y270399D01*
X141749D01*
X141741Y270396D01*
X141726Y270388D01*
X141710Y270376D01*
X141687Y270365D01*
X141660Y270354D01*
X141599Y270319D01*
X141530Y270277D01*
X141453Y270227D01*
X141376Y270169D01*
X141303Y270108D01*
X141299Y270104D01*
X141296Y270100D01*
X141272Y270077D01*
X141238Y270042D01*
X141196Y270000D01*
X141150Y269946D01*
X141104Y269889D01*
X141061Y269827D01*
X141027Y269766D01*
X140823D01*
Y272300D01*
X141134D01*
Y270327D01*
D02*
G37*
G36*
X139152Y227646D02*
X139179Y227643D01*
X139213Y227639D01*
X139290Y227623D01*
X139374Y227593D01*
X139421Y227577D01*
X139467Y227554D01*
X139513Y227527D01*
X139559Y227497D01*
X139601Y227462D01*
X139643Y227420D01*
X139647Y227416D01*
X139651Y227408D01*
X139663Y227397D01*
X139678Y227378D01*
X139693Y227355D01*
X139713Y227328D01*
X139732Y227297D01*
X139751Y227259D01*
X139774Y227216D01*
X139793Y227170D01*
X139812Y227120D01*
X139828Y227067D01*
X139843Y227013D01*
X139855Y226951D01*
X139858Y226886D01*
X139862Y226817D01*
Y226782D01*
X139858Y226756D01*
X139855Y226725D01*
X139851Y226686D01*
X139843Y226648D01*
X139835Y226602D01*
X139808Y226506D01*
X139789Y226456D01*
X139770Y226406D01*
X139743Y226356D01*
X139716Y226306D01*
X139682Y226260D01*
X139643Y226214D01*
X139639Y226210D01*
X139632Y226203D01*
X139620Y226195D01*
X139605Y226180D01*
X139582Y226160D01*
X139555Y226141D01*
X139524Y226122D01*
X139490Y226103D01*
X139451Y226080D01*
X139409Y226061D01*
X139317Y226022D01*
X139263Y226007D01*
X139209Y225999D01*
X139152Y225991D01*
X139090Y225988D01*
X139086D01*
X139079D01*
X139067D01*
X139048Y225991D01*
X139029D01*
X139002Y225995D01*
X138948Y226003D01*
X138883Y226018D01*
X138814Y226041D01*
X138745Y226068D01*
X138680Y226110D01*
X138676D01*
X138672Y226118D01*
X138653Y226133D01*
X138622Y226164D01*
X138587Y226203D01*
X138549Y226253D01*
X138511Y226314D01*
X138476Y226387D01*
X138449Y226468D01*
Y226464D01*
X138445Y226460D01*
X138438Y226437D01*
X138418Y226402D01*
X138399Y226360D01*
X138368Y226310D01*
X138334Y226264D01*
X138295Y226218D01*
X138249Y226180D01*
X138242Y226176D01*
X138226Y226164D01*
X138199Y226149D01*
X138161Y226133D01*
X138115Y226118D01*
X138061Y226103D01*
X138004Y226091D01*
X137938Y226087D01*
X137935D01*
X137927D01*
X137911D01*
X137892Y226091D01*
X137869Y226095D01*
X137842Y226099D01*
X137777Y226110D01*
X137704Y226133D01*
X137627Y226172D01*
X137585Y226191D01*
X137547Y226218D01*
X137508Y226249D01*
X137474Y226283D01*
X137470Y226287D01*
X137466Y226291D01*
X137454Y226302D01*
X137443Y226318D01*
X137432Y226341D01*
X137412Y226364D01*
X137397Y226391D01*
X137378Y226425D01*
X137343Y226498D01*
X137316Y226590D01*
X137293Y226694D01*
X137289Y226748D01*
X137286Y226809D01*
Y226840D01*
X137289Y226863D01*
Y226894D01*
X137297Y226924D01*
X137309Y227001D01*
X137332Y227086D01*
X137366Y227174D01*
X137389Y227220D01*
X137412Y227262D01*
X137443Y227305D01*
X137478Y227343D01*
X137481Y227347D01*
X137485Y227351D01*
X137497Y227362D01*
X137512Y227374D01*
X137531Y227389D01*
X137554Y227408D01*
X137608Y227447D01*
X137677Y227481D01*
X137758Y227516D01*
X137846Y227539D01*
X137896Y227543D01*
X137946Y227547D01*
X137954D01*
X137977D01*
X138007Y227543D01*
X138050Y227535D01*
X138100Y227524D01*
X138150Y227508D01*
X138203Y227485D01*
X138253Y227454D01*
X138257Y227451D01*
X138273Y227439D01*
X138295Y227416D01*
X138326Y227385D01*
X138357Y227347D01*
X138388Y227297D01*
X138422Y227239D01*
X138449Y227174D01*
Y227178D01*
X138453Y227186D01*
X138457Y227197D01*
X138464Y227213D01*
X138484Y227255D01*
X138507Y227305D01*
X138541Y227362D01*
X138584Y227420D01*
X138637Y227478D01*
X138695Y227527D01*
X138702Y227531D01*
X138726Y227547D01*
X138760Y227566D01*
X138810Y227589D01*
X138868Y227612D01*
X138937Y227631D01*
X139014Y227646D01*
X139098Y227650D01*
X139102D01*
X139113D01*
X139129D01*
X139152Y227646D01*
D02*
G37*
G36*
X139820Y224889D02*
X137846D01*
X137850Y224886D01*
X137865Y224870D01*
X137885Y224843D01*
X137911Y224809D01*
X137946Y224766D01*
X137981Y224716D01*
X138023Y224659D01*
X138061Y224594D01*
Y224590D01*
X138065Y224586D01*
X138081Y224563D01*
X138100Y224528D01*
X138123Y224486D01*
X138150Y224436D01*
X138173Y224382D01*
X138199Y224325D01*
X138223Y224271D01*
X137919D01*
Y224275D01*
X137915Y224283D01*
X137908Y224298D01*
X137896Y224313D01*
X137885Y224336D01*
X137873Y224363D01*
X137838Y224425D01*
X137796Y224494D01*
X137746Y224571D01*
X137689Y224647D01*
X137627Y224720D01*
X137624Y224724D01*
X137620Y224728D01*
X137597Y224751D01*
X137562Y224786D01*
X137520Y224828D01*
X137466Y224874D01*
X137408Y224920D01*
X137347Y224962D01*
X137286Y224997D01*
Y225200D01*
X139820D01*
Y224889D01*
D02*
G37*
G36*
X139098Y223611D02*
X139129D01*
X139198Y223607D01*
X139278Y223595D01*
X139359Y223584D01*
X139440Y223565D01*
X139509Y223538D01*
X139517Y223534D01*
X139536Y223522D01*
X139567Y223503D01*
X139605Y223480D01*
X139651Y223446D01*
X139693Y223403D01*
X139735Y223349D01*
X139774Y223292D01*
X139778Y223284D01*
X139789Y223261D01*
X139801Y223227D01*
X139816Y223181D01*
X139835Y223123D01*
X139847Y223058D01*
X139858Y222981D01*
X139862Y222900D01*
Y222869D01*
X139858Y222846D01*
X139855Y222820D01*
X139851Y222785D01*
X139839Y222712D01*
X139816Y222631D01*
X139782Y222547D01*
X139762Y222505D01*
X139735Y222466D01*
X139709Y222428D01*
X139674Y222393D01*
X139670D01*
X139666Y222386D01*
X139655Y222378D01*
X139639Y222366D01*
X139617Y222351D01*
X139593Y222340D01*
X139563Y222320D01*
X139532Y222305D01*
X139494Y222290D01*
X139451Y222274D01*
X139405Y222259D01*
X139351Y222247D01*
X139298Y222236D01*
X139236Y222228D01*
X139175Y222224D01*
X139106D01*
X139064Y222524D01*
X139067D01*
X139075D01*
X139090D01*
X139110Y222528D01*
X139133D01*
X139160Y222532D01*
X139221Y222543D01*
X139290Y222555D01*
X139355Y222574D01*
X139413Y222601D01*
X139440Y222616D01*
X139463Y222631D01*
X139467Y222635D01*
X139478Y222651D01*
X139497Y222670D01*
X139513Y222701D01*
X139532Y222739D01*
X139551Y222785D01*
X139563Y222839D01*
X139567Y222900D01*
Y222923D01*
X139563Y222946D01*
X139559Y222973D01*
X139551Y223008D01*
X139543Y223046D01*
X139528Y223081D01*
X139509Y223115D01*
X139505Y223119D01*
X139497Y223131D01*
X139486Y223146D01*
X139467Y223165D01*
X139447Y223188D01*
X139421Y223207D01*
X139390Y223227D01*
X139355Y223242D01*
X139351D01*
X139336Y223250D01*
X139313Y223253D01*
X139278Y223261D01*
X139233Y223269D01*
X139179Y223273D01*
X139113Y223280D01*
X139037D01*
X137297D01*
Y223614D01*
X139017D01*
X139021D01*
X139033D01*
X139048D01*
X139071D01*
X139098Y223611D01*
D02*
G37*
G36*
X162309Y250190D02*
X162352D01*
X162401Y250186D01*
X162455Y250183D01*
X162570Y250171D01*
X162689Y250156D01*
X162808Y250132D01*
X162862Y250117D01*
X162916Y250102D01*
X162920D01*
X162927Y250098D01*
X162943Y250094D01*
X162962Y250086D01*
X162985Y250075D01*
X163008Y250063D01*
X163070Y250033D01*
X163139Y249994D01*
X163208Y249948D01*
X163277Y249894D01*
X163338Y249829D01*
Y249825D01*
X163346Y249821D01*
X163350Y249810D01*
X163361Y249798D01*
X163384Y249756D01*
X163411Y249706D01*
X163438Y249637D01*
X163461Y249560D01*
X163477Y249472D01*
X163484Y249372D01*
Y249338D01*
X163480Y249311D01*
X163477Y249280D01*
X163469Y249246D01*
X163461Y249207D01*
X163454Y249165D01*
X163423Y249073D01*
X163400Y249023D01*
X163377Y248977D01*
X163346Y248927D01*
X163312Y248881D01*
X163273Y248838D01*
X163227Y248796D01*
X163223Y248792D01*
X163212Y248785D01*
X163192Y248773D01*
X163166Y248758D01*
X163131Y248739D01*
X163089Y248719D01*
X163039Y248696D01*
X162977Y248673D01*
X162912Y248650D01*
X162835Y248627D01*
X162751Y248608D01*
X162659Y248589D01*
X162555Y248573D01*
X162448Y248562D01*
X162325Y248554D01*
X162198Y248551D01*
X162194D01*
X162179D01*
X162156D01*
X162125D01*
X162086Y248554D01*
X162044D01*
X161994Y248558D01*
X161941Y248562D01*
X161825Y248573D01*
X161706Y248589D01*
X161587Y248608D01*
X161534Y248623D01*
X161480Y248639D01*
X161476D01*
X161468Y248643D01*
X161453Y248650D01*
X161434Y248658D01*
X161411Y248666D01*
X161384Y248677D01*
X161322Y248708D01*
X161253Y248746D01*
X161184Y248792D01*
X161119Y248846D01*
X161057Y248911D01*
Y248915D01*
X161050Y248919D01*
X161042Y248931D01*
X161034Y248946D01*
X161011Y248984D01*
X160981Y249038D01*
X160954Y249103D01*
X160931Y249184D01*
X160915Y249272D01*
X160908Y249372D01*
Y249407D01*
X160912Y249445D01*
X160919Y249491D01*
X160927Y249545D01*
X160942Y249606D01*
X160965Y249668D01*
X160992Y249726D01*
X160996Y249733D01*
X161007Y249752D01*
X161027Y249779D01*
X161050Y249818D01*
X161084Y249856D01*
X161126Y249898D01*
X161173Y249940D01*
X161226Y249979D01*
X161234Y249983D01*
X161253Y249994D01*
X161288Y250013D01*
X161330Y250037D01*
X161384Y250060D01*
X161449Y250086D01*
X161522Y250113D01*
X161603Y250136D01*
X161607D01*
X161614Y250140D01*
X161626D01*
X161645Y250144D01*
X161664Y250152D01*
X161691Y250156D01*
X161726Y250159D01*
X161760Y250167D01*
X161802Y250171D01*
X161845Y250175D01*
X161895Y250183D01*
X161948Y250186D01*
X162006Y250190D01*
X162064D01*
X162198Y250194D01*
X162202D01*
X162217D01*
X162240D01*
X162271D01*
X162309Y250190D01*
D02*
G37*
G36*
X163442Y246550D02*
X163438D01*
X163423D01*
X163400D01*
X163373Y246554D01*
X163342Y246557D01*
X163308Y246561D01*
X163269Y246573D01*
X163231Y246584D01*
X163227D01*
X163223Y246588D01*
X163200Y246596D01*
X163169Y246611D01*
X163123Y246634D01*
X163073Y246661D01*
X163016Y246700D01*
X162958Y246738D01*
X162897Y246788D01*
X162893D01*
X162889Y246796D01*
X162866Y246815D01*
X162831Y246846D01*
X162785Y246892D01*
X162732Y246949D01*
X162666Y247018D01*
X162593Y247103D01*
X162513Y247195D01*
X162509Y247199D01*
X162497Y247214D01*
X162482Y247233D01*
X162455Y247260D01*
X162428Y247295D01*
X162394Y247333D01*
X162321Y247418D01*
X162232Y247510D01*
X162144Y247602D01*
X162102Y247648D01*
X162060Y247687D01*
X162017Y247721D01*
X161979Y247752D01*
X161975D01*
X161971Y247759D01*
X161960Y247767D01*
X161944Y247775D01*
X161906Y247798D01*
X161856Y247825D01*
X161799Y247852D01*
X161737Y247875D01*
X161668Y247890D01*
X161603Y247898D01*
X161599D01*
X161595D01*
X161572Y247894D01*
X161537Y247890D01*
X161495Y247882D01*
X161445Y247863D01*
X161395Y247840D01*
X161342Y247809D01*
X161292Y247763D01*
X161288Y247756D01*
X161273Y247740D01*
X161253Y247709D01*
X161226Y247671D01*
X161203Y247621D01*
X161184Y247564D01*
X161169Y247495D01*
X161165Y247418D01*
Y247395D01*
X161169Y247379D01*
X161173Y247341D01*
X161180Y247291D01*
X161199Y247233D01*
X161223Y247172D01*
X161257Y247114D01*
X161303Y247060D01*
X161311Y247057D01*
X161326Y247041D01*
X161357Y247018D01*
X161399Y246995D01*
X161453Y246968D01*
X161514Y246949D01*
X161587Y246934D01*
X161672Y246926D01*
X161637Y246607D01*
X161633D01*
X161622D01*
X161603Y246611D01*
X161580Y246615D01*
X161549Y246623D01*
X161514Y246627D01*
X161438Y246650D01*
X161349Y246680D01*
X161261Y246723D01*
X161173Y246780D01*
X161134Y246811D01*
X161096Y246849D01*
X161092Y246853D01*
X161088Y246861D01*
X161077Y246872D01*
X161065Y246888D01*
X161054Y246911D01*
X161034Y246938D01*
X161019Y246968D01*
X161000Y247003D01*
X160984Y247041D01*
X160965Y247084D01*
X160950Y247133D01*
X160938Y247183D01*
X160915Y247299D01*
X160912Y247360D01*
X160908Y247425D01*
Y247460D01*
X160912Y247487D01*
X160915Y247517D01*
X160919Y247552D01*
X160923Y247590D01*
X160934Y247633D01*
X160958Y247725D01*
X160992Y247821D01*
X161015Y247871D01*
X161042Y247917D01*
X161077Y247959D01*
X161111Y248001D01*
X161115Y248005D01*
X161119Y248009D01*
X161130Y248021D01*
X161146Y248036D01*
X161169Y248051D01*
X161192Y248070D01*
X161249Y248109D01*
X161322Y248147D01*
X161407Y248182D01*
X161503Y248209D01*
X161557Y248213D01*
X161610Y248216D01*
X161618D01*
X161637D01*
X161668Y248213D01*
X161706Y248209D01*
X161752Y248201D01*
X161802Y248189D01*
X161856Y248174D01*
X161910Y248151D01*
X161918Y248147D01*
X161937Y248140D01*
X161964Y248124D01*
X162002Y248101D01*
X162048Y248074D01*
X162102Y248040D01*
X162156Y247994D01*
X162217Y247944D01*
X162225Y247936D01*
X162248Y247917D01*
X162282Y247882D01*
X162305Y247859D01*
X162332Y247832D01*
X162363Y247802D01*
X162398Y247763D01*
X162432Y247725D01*
X162474Y247683D01*
X162517Y247637D01*
X162563Y247583D01*
X162609Y247529D01*
X162662Y247468D01*
X162666Y247464D01*
X162674Y247456D01*
X162686Y247441D01*
X162701Y247422D01*
X162739Y247375D01*
X162789Y247318D01*
X162843Y247260D01*
X162897Y247199D01*
X162943Y247149D01*
X162962Y247130D01*
X162981Y247110D01*
X162985Y247107D01*
X162997Y247099D01*
X163012Y247084D01*
X163035Y247064D01*
X163085Y247022D01*
X163146Y246980D01*
Y248220D01*
X163442D01*
Y246550D01*
D02*
G37*
G36*
X162720Y246170D02*
X162751D01*
X162820Y246166D01*
X162901Y246154D01*
X162981Y246143D01*
X163062Y246124D01*
X163131Y246097D01*
X163139Y246093D01*
X163158Y246081D01*
X163189Y246062D01*
X163227Y246039D01*
X163273Y246005D01*
X163315Y245962D01*
X163358Y245908D01*
X163396Y245851D01*
X163400Y245843D01*
X163411Y245820D01*
X163423Y245786D01*
X163438Y245740D01*
X163457Y245682D01*
X163469Y245617D01*
X163480Y245540D01*
X163484Y245459D01*
Y245428D01*
X163480Y245406D01*
X163477Y245379D01*
X163473Y245344D01*
X163461Y245271D01*
X163438Y245191D01*
X163404Y245106D01*
X163384Y245064D01*
X163358Y245025D01*
X163331Y244987D01*
X163296Y244952D01*
X163292D01*
X163288Y244945D01*
X163277Y244937D01*
X163262Y244925D01*
X163239Y244910D01*
X163215Y244899D01*
X163185Y244879D01*
X163154Y244864D01*
X163116Y244849D01*
X163073Y244833D01*
X163027Y244818D01*
X162974Y244806D01*
X162920Y244795D01*
X162858Y244787D01*
X162797Y244783D01*
X162728D01*
X162686Y245083D01*
X162689D01*
X162697D01*
X162712D01*
X162732Y245087D01*
X162755D01*
X162782Y245091D01*
X162843Y245102D01*
X162912Y245114D01*
X162977Y245133D01*
X163035Y245160D01*
X163062Y245175D01*
X163085Y245191D01*
X163089Y245194D01*
X163100Y245210D01*
X163119Y245229D01*
X163135Y245260D01*
X163154Y245298D01*
X163173Y245344D01*
X163185Y245398D01*
X163189Y245459D01*
Y245482D01*
X163185Y245505D01*
X163181Y245532D01*
X163173Y245567D01*
X163166Y245605D01*
X163150Y245640D01*
X163131Y245674D01*
X163127Y245678D01*
X163119Y245690D01*
X163108Y245705D01*
X163089Y245724D01*
X163070Y245747D01*
X163043Y245766D01*
X163012Y245786D01*
X162977Y245801D01*
X162974D01*
X162958Y245809D01*
X162935Y245813D01*
X162901Y245820D01*
X162855Y245828D01*
X162801Y245832D01*
X162735Y245839D01*
X162659D01*
X160919D01*
Y246174D01*
X162639D01*
X162643D01*
X162655D01*
X162670D01*
X162693D01*
X162720Y246170D01*
D02*
G37*
G36*
X49269Y61143D02*
X47295D01*
X47299Y61139D01*
X47314Y61124D01*
X47333Y61097D01*
X47360Y61063D01*
X47395Y61020D01*
X47429Y60970D01*
X47472Y60913D01*
X47510Y60848D01*
Y60844D01*
X47514Y60840D01*
X47529Y60817D01*
X47548Y60782D01*
X47572Y60740D01*
X47598Y60690D01*
X47622Y60636D01*
X47648Y60579D01*
X47671Y60525D01*
X47368D01*
Y60529D01*
X47364Y60536D01*
X47357Y60552D01*
X47345Y60567D01*
X47333Y60590D01*
X47322Y60617D01*
X47287Y60679D01*
X47245Y60748D01*
X47195Y60825D01*
X47138Y60901D01*
X47076Y60974D01*
X47072Y60978D01*
X47069Y60982D01*
X47045Y61005D01*
X47011Y61040D01*
X46969Y61082D01*
X46915Y61128D01*
X46857Y61174D01*
X46796Y61216D01*
X46734Y61251D01*
Y61454D01*
X49269D01*
Y61143D01*
D02*
G37*
G36*
X48489Y59999D02*
X48509Y59991D01*
X48539Y59984D01*
X48570Y59968D01*
X48612Y59953D01*
X48654Y59938D01*
X48700Y59914D01*
X48804Y59864D01*
X48908Y59795D01*
X49008Y59719D01*
X49054Y59672D01*
X49096Y59623D01*
X49100Y59619D01*
X49104Y59611D01*
X49115Y59596D01*
X49131Y59573D01*
X49146Y59546D01*
X49165Y59515D01*
X49184Y59481D01*
X49204Y59438D01*
X49223Y59392D01*
X49242Y59342D01*
X49261Y59285D01*
X49277Y59227D01*
X49303Y59100D01*
X49307Y59031D01*
X49311Y58958D01*
Y58920D01*
X49307Y58889D01*
Y58855D01*
X49303Y58816D01*
X49296Y58770D01*
X49292Y58724D01*
X49269Y58617D01*
X49242Y58505D01*
X49200Y58398D01*
X49177Y58344D01*
X49146Y58294D01*
X49142Y58290D01*
X49138Y58282D01*
X49127Y58271D01*
X49115Y58252D01*
X49077Y58206D01*
X49023Y58152D01*
X48958Y58087D01*
X48873Y58025D01*
X48777Y57960D01*
X48666Y57906D01*
X48662D01*
X48651Y57902D01*
X48635Y57895D01*
X48612Y57887D01*
X48581Y57875D01*
X48547Y57864D01*
X48509Y57852D01*
X48462Y57841D01*
X48416Y57829D01*
X48363Y57818D01*
X48247Y57795D01*
X48125Y57779D01*
X47990Y57775D01*
X47986D01*
X47971D01*
X47952D01*
X47925Y57779D01*
X47890D01*
X47848Y57783D01*
X47806Y57787D01*
X47756Y57795D01*
X47648Y57814D01*
X47533Y57837D01*
X47414Y57875D01*
X47303Y57925D01*
X47299D01*
X47291Y57933D01*
X47276Y57941D01*
X47253Y57952D01*
X47230Y57968D01*
X47203Y57987D01*
X47138Y58037D01*
X47065Y58094D01*
X46992Y58167D01*
X46919Y58256D01*
X46857Y58351D01*
Y58355D01*
X46850Y58363D01*
X46842Y58378D01*
X46834Y58402D01*
X46823Y58425D01*
X46807Y58455D01*
X46796Y58494D01*
X46780Y58532D01*
X46765Y58574D01*
X46754Y58620D01*
X46727Y58724D01*
X46711Y58839D01*
X46704Y58962D01*
Y59000D01*
X46707Y59027D01*
X46711Y59058D01*
X46715Y59096D01*
X46719Y59139D01*
X46727Y59185D01*
X46750Y59285D01*
X46784Y59392D01*
X46807Y59446D01*
X46834Y59500D01*
X46865Y59550D01*
X46900Y59600D01*
X46903Y59603D01*
X46907Y59611D01*
X46919Y59623D01*
X46934Y59642D01*
X46953Y59661D01*
X46980Y59688D01*
X47007Y59715D01*
X47038Y59742D01*
X47076Y59772D01*
X47115Y59799D01*
X47161Y59830D01*
X47211Y59861D01*
X47260Y59887D01*
X47318Y59914D01*
X47441Y59961D01*
X47518Y59630D01*
X47514D01*
X47506Y59626D01*
X47491Y59623D01*
X47472Y59615D01*
X47449Y59603D01*
X47422Y59592D01*
X47364Y59565D01*
X47299Y59530D01*
X47230Y59484D01*
X47168Y59434D01*
X47115Y59373D01*
X47111Y59365D01*
X47095Y59342D01*
X47076Y59308D01*
X47049Y59258D01*
X47026Y59200D01*
X47007Y59127D01*
X46992Y59047D01*
X46988Y58954D01*
Y58928D01*
X46992Y58908D01*
Y58881D01*
X46995Y58855D01*
X47007Y58785D01*
X47022Y58709D01*
X47049Y58628D01*
X47084Y58547D01*
X47130Y58471D01*
Y58467D01*
X47138Y58463D01*
X47157Y58440D01*
X47188Y58405D01*
X47230Y58363D01*
X47284Y58321D01*
X47345Y58275D01*
X47422Y58232D01*
X47506Y58198D01*
X47510D01*
X47518Y58194D01*
X47529Y58190D01*
X47548Y58186D01*
X47568Y58179D01*
X47595Y58175D01*
X47656Y58160D01*
X47729Y58144D01*
X47810Y58133D01*
X47898Y58125D01*
X47990Y58121D01*
X47994D01*
X48006D01*
X48021D01*
X48044D01*
X48071Y58125D01*
X48105D01*
X48140Y58129D01*
X48178Y58133D01*
X48267Y58144D01*
X48363Y58160D01*
X48459Y58183D01*
X48551Y58213D01*
X48555D01*
X48562Y58217D01*
X48574Y58225D01*
X48589Y58232D01*
X48635Y58252D01*
X48685Y58282D01*
X48747Y58325D01*
X48804Y58375D01*
X48862Y58432D01*
X48912Y58501D01*
Y58505D01*
X48915Y58509D01*
X48923Y58521D01*
X48931Y58536D01*
X48946Y58578D01*
X48969Y58632D01*
X48989Y58693D01*
X49008Y58766D01*
X49023Y58847D01*
X49027Y58931D01*
Y58958D01*
X49023Y58978D01*
Y59000D01*
X49019Y59031D01*
X49008Y59096D01*
X48989Y59170D01*
X48958Y59250D01*
X48919Y59327D01*
X48866Y59404D01*
X48862Y59408D01*
X48858Y59411D01*
X48835Y59434D01*
X48796Y59469D01*
X48747Y59511D01*
X48678Y59553D01*
X48597Y59600D01*
X48497Y59638D01*
X48386Y59669D01*
X48470Y60003D01*
X48474D01*
X48489Y59999D01*
D02*
G37*
%LPC*%
G36*
X57439Y182589D02*
X57420D01*
X57404Y182585D01*
X57366Y182581D01*
X57316Y182570D01*
X57262Y182550D01*
X57201Y182527D01*
X57143Y182489D01*
X57089Y182439D01*
X57082Y182431D01*
X57066Y182412D01*
X57043Y182378D01*
X57016Y182331D01*
X56993Y182270D01*
X56970Y182201D01*
X56955Y182116D01*
X56947Y182024D01*
Y182020D01*
Y182013D01*
Y181997D01*
X56951Y181978D01*
Y181955D01*
X56955Y181932D01*
X56967Y181871D01*
X56982Y181801D01*
X57009Y181732D01*
X57043Y181663D01*
X57089Y181598D01*
X57097Y181590D01*
X57116Y181575D01*
X57143Y181548D01*
X57185Y181517D01*
X57235Y181491D01*
X57293Y181464D01*
X57358Y181448D01*
X57431Y181440D01*
X57450D01*
X57466Y181444D01*
X57504Y181448D01*
X57554Y181460D01*
X57612Y181483D01*
X57669Y181514D01*
X57731Y181552D01*
X57761Y181579D01*
X57792Y181609D01*
X57800Y181617D01*
X57815Y181640D01*
X57838Y181679D01*
X57865Y181728D01*
X57896Y181790D01*
X57919Y181867D01*
X57934Y181951D01*
X57942Y182047D01*
Y182051D01*
Y182059D01*
Y182070D01*
X57938Y182086D01*
X57934Y182132D01*
X57923Y182185D01*
X57907Y182251D01*
X57880Y182316D01*
X57846Y182378D01*
X57800Y182439D01*
X57792Y182447D01*
X57773Y182462D01*
X57742Y182485D01*
X57700Y182512D01*
X57646Y182543D01*
X57585Y182566D01*
X57516Y182581D01*
X57439Y182589D01*
D02*
G37*
G36*
X137942Y227228D02*
X137938D01*
X137935D01*
X137915D01*
X137881Y227220D01*
X137842Y227213D01*
X137800Y227197D01*
X137750Y227178D01*
X137704Y227147D01*
X137658Y227109D01*
X137654Y227105D01*
X137639Y227090D01*
X137620Y227063D01*
X137597Y227028D01*
X137577Y226986D01*
X137558Y226936D01*
X137543Y226882D01*
X137539Y226817D01*
Y226786D01*
X137547Y226756D01*
X137554Y226713D01*
X137566Y226667D01*
X137589Y226617D01*
X137616Y226567D01*
X137654Y226521D01*
X137658Y226518D01*
X137673Y226502D01*
X137700Y226487D01*
X137731Y226464D01*
X137769Y226445D01*
X137819Y226425D01*
X137869Y226410D01*
X137927Y226406D01*
X137935D01*
X137958D01*
X137988Y226414D01*
X138031Y226421D01*
X138077Y226433D01*
X138123Y226452D01*
X138173Y226479D01*
X138219Y226518D01*
X138223Y226521D01*
X138234Y226537D01*
X138253Y226564D01*
X138273Y226598D01*
X138295Y226640D01*
X138311Y226694D01*
X138326Y226752D01*
X138330Y226817D01*
Y226848D01*
X138322Y226878D01*
X138315Y226921D01*
X138303Y226967D01*
X138284Y227017D01*
X138257Y227067D01*
X138219Y227113D01*
X138215Y227116D01*
X138199Y227132D01*
X138177Y227151D01*
X138142Y227170D01*
X138103Y227193D01*
X138054Y227209D01*
X138000Y227224D01*
X137942Y227228D01*
D02*
G37*
G36*
X139102Y227332D02*
X139098D01*
X139090D01*
X139079D01*
X139064Y227328D01*
X139025Y227324D01*
X138971Y227312D01*
X138914Y227297D01*
X138852Y227270D01*
X138791Y227232D01*
X138733Y227182D01*
X138726Y227174D01*
X138710Y227155D01*
X138687Y227124D01*
X138656Y227082D01*
X138630Y227028D01*
X138607Y226963D01*
X138591Y226890D01*
X138584Y226809D01*
Y226790D01*
X138587Y226775D01*
X138591Y226732D01*
X138603Y226683D01*
X138618Y226625D01*
X138645Y226564D01*
X138680Y226506D01*
X138729Y226448D01*
X138737Y226441D01*
X138756Y226425D01*
X138787Y226402D01*
X138829Y226379D01*
X138883Y226352D01*
X138944Y226329D01*
X139017Y226314D01*
X139094Y226306D01*
X139098D01*
X139117D01*
X139140Y226310D01*
X139175Y226314D01*
X139213Y226322D01*
X139259Y226333D01*
X139305Y226348D01*
X139351Y226368D01*
X139355Y226372D01*
X139371Y226379D01*
X139394Y226395D01*
X139421Y226414D01*
X139451Y226441D01*
X139486Y226471D01*
X139517Y226510D01*
X139543Y226552D01*
X139547Y226560D01*
X139555Y226575D01*
X139563Y226598D01*
X139574Y226633D01*
X139590Y226675D01*
X139597Y226717D01*
X139605Y226767D01*
X139609Y226821D01*
Y226844D01*
X139605Y226859D01*
X139601Y226898D01*
X139590Y226951D01*
X139574Y227009D01*
X139547Y227070D01*
X139513Y227128D01*
X139467Y227186D01*
X139459Y227193D01*
X139440Y227209D01*
X139409Y227232D01*
X139367Y227259D01*
X139317Y227286D01*
X139252Y227309D01*
X139182Y227324D01*
X139102Y227332D01*
D02*
G37*
G36*
X162309Y249875D02*
X162198D01*
X162190D01*
X162171D01*
X162140D01*
X162098Y249871D01*
X162048D01*
X161990Y249868D01*
X161929Y249864D01*
X161860Y249856D01*
X161722Y249841D01*
X161587Y249814D01*
X161522Y249798D01*
X161465Y249779D01*
X161415Y249756D01*
X161372Y249729D01*
X161369D01*
X161365Y249722D01*
X161342Y249702D01*
X161307Y249672D01*
X161269Y249629D01*
X161230Y249576D01*
X161196Y249514D01*
X161173Y249445D01*
X161169Y249407D01*
X161165Y249368D01*
Y249349D01*
X161169Y249334D01*
X161173Y249295D01*
X161188Y249246D01*
X161211Y249192D01*
X161242Y249134D01*
X161288Y249077D01*
X161319Y249050D01*
X161349Y249027D01*
X161353D01*
X161361Y249019D01*
X161376Y249011D01*
X161395Y249004D01*
X161422Y248992D01*
X161453Y248977D01*
X161495Y248961D01*
X161541Y248950D01*
X161595Y248935D01*
X161656Y248919D01*
X161726Y248908D01*
X161806Y248892D01*
X161891Y248885D01*
X161983Y248877D01*
X162086Y248869D01*
X162198D01*
X162206D01*
X162225D01*
X162256D01*
X162298Y248873D01*
X162348D01*
X162405Y248877D01*
X162470Y248881D01*
X162536Y248888D01*
X162674Y248904D01*
X162812Y248931D01*
X162874Y248946D01*
X162931Y248965D01*
X162985Y248988D01*
X163027Y249011D01*
X163031D01*
X163035Y249019D01*
X163058Y249038D01*
X163093Y249069D01*
X163127Y249111D01*
X163166Y249165D01*
X163200Y249226D01*
X163223Y249295D01*
X163227Y249334D01*
X163231Y249372D01*
Y249391D01*
X163227Y249407D01*
X163219Y249445D01*
X163204Y249495D01*
X163181Y249553D01*
X163146Y249610D01*
X163123Y249641D01*
X163093Y249672D01*
X163062Y249702D01*
X163027Y249729D01*
X163023D01*
X163016Y249737D01*
X163004Y249745D01*
X162985Y249752D01*
X162962Y249764D01*
X162927Y249775D01*
X162889Y249787D01*
X162847Y249802D01*
X162793Y249818D01*
X162735Y249829D01*
X162666Y249841D01*
X162590Y249852D01*
X162505Y249864D01*
X162413Y249868D01*
X162309Y249875D01*
D02*
G37*
%LPD*%
D12*
X50650Y178169D02*
X73406D01*
X50650D02*
Y189350D01*
X73406D01*
Y178169D02*
Y189350D01*
X132421Y266752D02*
X155177D01*
X132421D02*
Y277933D01*
X155177D01*
Y266752D02*
Y277933D01*
X134272Y210846D02*
Y233602D01*
X145453D01*
Y210846D02*
Y233602D01*
X134272Y210846D02*
X145453D01*
X157894Y233406D02*
Y256161D01*
X169075D01*
Y233406D02*
Y256161D01*
X157894Y233406D02*
X169075D01*
M02*
