G04*
G04 #@! TF.GenerationSoftware,Altium Limited,Altium Designer,22.1.2 (22)*
G04*
G04 Layer_Color=8388736*
%FSLAX25Y25*%
%MOIN*%
G70*
G04*
G04 #@! TF.SameCoordinates,BA90D39C-088B-4E96-BCAD-EBD8A34635F5*
G04*
G04*
G04 #@! TF.FilePolarity,Negative*
G04*
G01*
G75*
%ADD14C,0.10249*%
G04:AMPARAMS|DCode=15|XSize=102.49mil|YSize=102.49mil|CornerRadius=27.62mil|HoleSize=0mil|Usage=FLASHONLY|Rotation=0.000|XOffset=0mil|YOffset=0mil|HoleType=Round|Shape=RoundedRectangle|*
%AMROUNDEDRECTD15*
21,1,0.10249,0.04724,0,0,0.0*
21,1,0.04724,0.10249,0,0,0.0*
1,1,0.05524,0.02362,-0.02362*
1,1,0.05524,-0.02362,-0.02362*
1,1,0.05524,-0.02362,0.02362*
1,1,0.05524,0.02362,0.02362*
%
%ADD15ROUNDEDRECTD15*%
%ADD16C,0.06102*%
%ADD17R,0.06102X0.06102*%
G04:AMPARAMS|DCode=18|XSize=102.49mil|YSize=102.49mil|CornerRadius=27.62mil|HoleSize=0mil|Usage=FLASHONLY|Rotation=270.000|XOffset=0mil|YOffset=0mil|HoleType=Round|Shape=RoundedRectangle|*
%AMROUNDEDRECTD18*
21,1,0.10249,0.04724,0,0,270.0*
21,1,0.04724,0.10249,0,0,270.0*
1,1,0.05524,-0.02362,-0.02362*
1,1,0.05524,-0.02362,0.02362*
1,1,0.05524,0.02362,0.02362*
1,1,0.05524,0.02362,-0.02362*
%
%ADD18ROUNDEDRECTD18*%
%ADD19R,0.06181X0.06181*%
%ADD20C,0.06181*%
%ADD21R,0.06181X0.06181*%
%ADD22R,0.07493X0.07493*%
%ADD23C,0.07493*%
%ADD24C,0.13674*%
G36*
X311614Y375886D02*
Y364469D01*
X306890Y359744D01*
X300984Y357972D01*
X298721Y357283D01*
X242913Y301476D01*
Y266634D01*
X218110Y241831D01*
Y207480D01*
X206398Y206791D01*
X205807Y207382D01*
X206398Y252165D01*
X206791Y252559D01*
X231201Y276969D01*
Y327756D01*
X240059D01*
X288583Y376279D01*
X289075Y376772D01*
X311614Y375886D01*
D02*
G37*
G36*
X228150Y277658D02*
X202559Y252067D01*
X202559Y184252D01*
X185630Y167323D01*
X176181D01*
Y188976D01*
X189370Y202165D01*
Y258760D01*
X191634Y261024D01*
X214027Y285925D01*
X228150D01*
Y277658D01*
D02*
G37*
G36*
X137598Y128051D02*
Y104921D01*
X98622D01*
X91535Y112008D01*
X61122D01*
Y105610D01*
X79035Y87697D01*
Y56988D01*
Y55512D01*
X64370Y39567D01*
Y38484D01*
X44390D01*
Y39173D01*
Y45965D01*
X58661Y61319D01*
Y77756D01*
X46161Y90256D01*
X45079D01*
Y120571D01*
Y121653D01*
X51476Y129134D01*
X136516D01*
X137598Y128051D01*
D02*
G37*
G36*
X264173Y286417D02*
Y240158D01*
X313090Y241339D01*
X319756Y241529D01*
X320177Y241117D01*
Y219291D01*
X308957D01*
X291634Y201969D01*
X253248D01*
Y141929D01*
X238287Y126969D01*
Y102756D01*
X214075D01*
X213779Y102461D01*
X211910Y104331D01*
Y124705D01*
X230217Y147047D01*
X232874Y241437D01*
X246949Y255512D01*
Y286259D01*
X247304Y286610D01*
X264173Y286417D01*
D02*
G37*
G36*
X57087Y143504D02*
X36417Y122835D01*
Y92126D01*
X50787Y77756D01*
X53248D01*
Y64197D01*
X52953Y64075D01*
X24508D01*
Y85039D01*
X22933Y94095D01*
Y111221D01*
Y140256D01*
X44390Y154232D01*
X45472Y155315D01*
X57087D01*
Y143504D01*
D02*
G37*
G36*
X226279Y385630D02*
X226279Y385039D01*
Y363386D01*
X221063D01*
X202165Y344488D01*
X201181Y277067D01*
X199016D01*
X185925Y263976D01*
Y214616D01*
X167224Y192421D01*
Y191634D01*
X167717Y119783D01*
X167815Y119685D01*
X199606Y87894D01*
X230512D01*
X268012Y125394D01*
X278740D01*
X282972Y120669D01*
X283366Y119783D01*
Y106890D01*
X277165D01*
X228346Y60630D01*
X188287D01*
Y68799D01*
X145079Y112008D01*
Y113091D01*
X147146Y205610D01*
X150295D01*
X171949Y227264D01*
Y272933D01*
X172539Y273917D01*
X186713Y288090D01*
Y289370D01*
Y372146D01*
X212894Y386024D01*
X226279D01*
Y385630D01*
D02*
G37*
G36*
X330413Y92126D02*
X266142Y27854D01*
Y7382D01*
X249016D01*
X243602Y12795D01*
Y14469D01*
X242913Y35630D01*
X311122Y99705D01*
X313287Y101870D01*
Y164370D01*
X301083Y176575D01*
Y201772D01*
X307185Y207874D01*
X330413D01*
Y92126D01*
D02*
G37*
D14*
X71280Y362894D02*
D03*
X91280D02*
D03*
X51279D02*
D03*
X31280D02*
D03*
X222126Y111909D02*
D03*
X320826Y276575D02*
D03*
X210984Y213090D02*
D03*
X313444Y22539D02*
D03*
X223779Y16732D02*
D03*
X215354Y179035D02*
D03*
X334882Y369587D02*
D03*
X249548Y380118D02*
D03*
X132087Y117184D02*
D03*
X379134Y188543D02*
D03*
X51673Y119940D02*
D03*
X375984Y101240D02*
D03*
X310630Y199665D02*
D03*
X221712Y280413D02*
D03*
X274566Y117323D02*
D03*
X31594Y219193D02*
D03*
X51595D02*
D03*
X91594D02*
D03*
X71595D02*
D03*
X31280Y313681D02*
D03*
X51279D02*
D03*
X91280D02*
D03*
X71280D02*
D03*
X31594Y266437D02*
D03*
X51595D02*
D03*
X91594D02*
D03*
X71595D02*
D03*
D15*
X111279Y362894D02*
D03*
X192126Y111909D02*
D03*
X350826Y276575D02*
D03*
X240984Y213090D02*
D03*
X343444Y22539D02*
D03*
X253779Y16732D02*
D03*
X185354Y179035D02*
D03*
X304882Y369587D02*
D03*
X219548Y380118D02*
D03*
X251712Y280413D02*
D03*
X304566Y117323D02*
D03*
X111594Y219193D02*
D03*
X111279Y313681D02*
D03*
X111594Y266437D02*
D03*
D16*
X122835Y71949D02*
D03*
X49311Y72540D02*
D03*
D17*
X122835Y42421D02*
D03*
X49311Y43012D02*
D03*
D18*
X132087Y147185D02*
D03*
X379134Y218543D02*
D03*
X51673Y149940D02*
D03*
X375984Y131240D02*
D03*
X310630Y229665D02*
D03*
D19*
X67028Y183760D02*
D03*
X148799Y272343D02*
D03*
D20*
X57028Y183760D02*
D03*
X138799Y272343D02*
D03*
X139862Y227224D02*
D03*
X163484Y249783D02*
D03*
D21*
X139862Y217224D02*
D03*
X163484Y239783D02*
D03*
D22*
X142579Y317618D02*
D03*
X171831Y353051D02*
D03*
D23*
X152579Y317618D02*
D03*
X162579D02*
D03*
X172579D02*
D03*
X161831Y353051D02*
D03*
X151831D02*
D03*
X141831D02*
D03*
D24*
X15354Y188976D02*
D03*
X155413Y380118D02*
D03*
X381890Y383465D02*
D03*
X379528Y12106D02*
D03*
X15354Y17421D02*
D03*
M02*
