G04*
G04 #@! TF.GenerationSoftware,Altium Limited,Altium Designer,22.1.2 (22)*
G04*
G04 Layer_Color=32896*
%FSLAX25Y25*%
%MOIN*%
G70*
G04*
G04 #@! TF.SameCoordinates,BA90D39C-088B-4E96-BCAD-EBD8A34635F5*
G04*
G04*
G04 #@! TF.FilePolarity,Positive*
G04*
G01*
G75*
%ADD13C,0.01000*%
D13*
X318291Y344340D02*
X314356D01*
X316323D01*
Y338436D01*
X309436D02*
X311404D01*
X312388Y339420D01*
Y341388D01*
X311404Y342372D01*
X309436D01*
X308452Y341388D01*
Y340404D01*
X312388D01*
X305500Y342372D02*
X303532D01*
X302548Y341388D01*
Y338436D01*
X305500D01*
X306484Y339420D01*
X305500Y340404D01*
X302548D01*
X300581Y338436D02*
Y342372D01*
X299597D01*
X298613Y341388D01*
Y338436D01*
Y341388D01*
X297629Y342372D01*
X296645Y341388D01*
Y338436D01*
X284838Y343356D02*
X285822Y344340D01*
X287789D01*
X288773Y343356D01*
Y342372D01*
X287789Y341388D01*
X285822D01*
X284838Y340404D01*
Y339420D01*
X285822Y338436D01*
X287789D01*
X288773Y339420D01*
X282870Y336469D02*
Y342372D01*
X279918D01*
X278934Y341388D01*
Y339420D01*
X279918Y338436D01*
X282870D01*
X274014D02*
X275982D01*
X276966Y339420D01*
Y341388D01*
X275982Y342372D01*
X274014D01*
X273030Y341388D01*
Y340404D01*
X276966D01*
X267127Y342372D02*
X270079D01*
X271062Y341388D01*
Y339420D01*
X270079Y338436D01*
X267127D01*
X264175Y343356D02*
Y342372D01*
X265159D01*
X263191D01*
X264175D01*
Y339420D01*
X263191Y338436D01*
X260239Y342372D02*
Y338436D01*
Y340404D01*
X259255Y341388D01*
X258271Y342372D01*
X257288D01*
X253352Y338436D02*
X251384D01*
X250400Y339420D01*
Y341388D01*
X251384Y342372D01*
X253352D01*
X254336Y341388D01*
Y339420D01*
X253352Y338436D01*
X242529Y341388D02*
X238593D01*
X230721Y344340D02*
Y338436D01*
X227769D01*
X226785Y339420D01*
Y340404D01*
X227769Y341388D01*
X230721D01*
X227769D01*
X226785Y342372D01*
Y343356D01*
X227769Y344340D01*
X230721D01*
X223834Y342372D02*
X221866D01*
X220882Y341388D01*
Y338436D01*
X223834D01*
X224818Y339420D01*
X223834Y340404D01*
X220882D01*
X217930Y343356D02*
Y342372D01*
X218914D01*
X216946D01*
X217930D01*
Y339420D01*
X216946Y338436D01*
X210059Y342372D02*
X213011D01*
X213994Y341388D01*
Y339420D01*
X213011Y338436D01*
X210059D01*
X208091Y344340D02*
Y338436D01*
Y341388D01*
X207107Y342372D01*
X205139D01*
X204155Y341388D01*
Y338436D01*
X192348D02*
X196284D01*
X192348Y342372D01*
Y343356D01*
X193332Y344340D01*
X195300D01*
X196284Y343356D01*
X190380D02*
X189396Y344340D01*
X187428D01*
X186444Y343356D01*
Y339420D01*
X187428Y338436D01*
X189396D01*
X190380Y339420D01*
Y343356D01*
X318291Y332888D02*
X316323D01*
X317307D01*
Y326984D01*
X318291D01*
X316323D01*
X313372D02*
X310420D01*
X309436Y327968D01*
X310420Y328952D01*
X312388D01*
X313372Y329936D01*
X312388Y330920D01*
X309436D01*
X307468Y332888D02*
Y326984D01*
Y329936D01*
X306484Y330920D01*
X304516D01*
X303532Y329936D01*
Y326984D01*
X300581Y330920D02*
X298613D01*
X297629Y329936D01*
Y326984D01*
X300581D01*
X301565Y327968D01*
X300581Y328952D01*
X297629D01*
X295661Y330920D02*
Y326984D01*
Y328952D01*
X294677Y329936D01*
X293693Y330920D01*
X292709D01*
X288773D02*
X286806D01*
X285822Y329936D01*
Y326984D01*
X288773D01*
X289757Y327968D01*
X288773Y328952D01*
X285822D01*
X277950Y332888D02*
Y326984D01*
X274998D01*
X274014Y327968D01*
Y331904D01*
X274998Y332888D01*
X277950D01*
X272046Y326984D02*
X270079D01*
X271062D01*
Y330920D01*
X272046D01*
X267127Y326984D02*
X265159D01*
X266143D01*
Y332888D01*
X267127D01*
X262207Y326984D02*
X259255D01*
X258271Y327968D01*
X259255Y328952D01*
X261223D01*
X262207Y329936D01*
X261223Y330920D01*
X258271D01*
X256304Y332888D02*
Y326984D01*
Y329936D01*
X255320Y330920D01*
X253352D01*
X252368Y329936D01*
Y326984D01*
X249416Y330920D02*
X247448D01*
X246464Y329936D01*
Y326984D01*
X249416D01*
X250400Y327968D01*
X249416Y328952D01*
X246464D01*
X244496Y326984D02*
Y330920D01*
X241545D01*
X240561Y329936D01*
Y326984D01*
M02*
