G04*
G04 #@! TF.GenerationSoftware,Altium Limited,Altium Designer,22.1.2 (22)*
G04*
G04 Layer_Physical_Order=2*
G04 Layer_Color=16711680*
%FSLAX25Y25*%
%MOIN*%
G70*
G04*
G04 #@! TF.SameCoordinates,BA90D39C-088B-4E96-BCAD-EBD8A34635F5*
G04*
G04*
G04 #@! TF.FilePolarity,Positive*
G04*
G01*
G75*
%ADD16C,0.06102*%
%ADD17R,0.06102X0.06102*%
%ADD19R,0.06181X0.06181*%
%ADD20C,0.06181*%
%ADD21R,0.06181X0.06181*%
%ADD25C,0.00800*%
%ADD26C,0.09843*%
%ADD28C,0.03937*%
%ADD29C,0.09449*%
G04:AMPARAMS|DCode=30|XSize=94.49mil|YSize=94.49mil|CornerRadius=23.62mil|HoleSize=0mil|Usage=FLASHONLY|Rotation=0.000|XOffset=0mil|YOffset=0mil|HoleType=Round|Shape=RoundedRectangle|*
%AMROUNDEDRECTD30*
21,1,0.09449,0.04724,0,0,0.0*
21,1,0.04724,0.09449,0,0,0.0*
1,1,0.04724,0.02362,-0.02362*
1,1,0.04724,-0.02362,-0.02362*
1,1,0.04724,-0.02362,0.02362*
1,1,0.04724,0.02362,0.02362*
%
%ADD30ROUNDEDRECTD30*%
G04:AMPARAMS|DCode=31|XSize=94.49mil|YSize=94.49mil|CornerRadius=23.62mil|HoleSize=0mil|Usage=FLASHONLY|Rotation=270.000|XOffset=0mil|YOffset=0mil|HoleType=Round|Shape=RoundedRectangle|*
%AMROUNDEDRECTD31*
21,1,0.09449,0.04724,0,0,270.0*
21,1,0.04724,0.09449,0,0,270.0*
1,1,0.04724,-0.02362,-0.02362*
1,1,0.04724,-0.02362,0.02362*
1,1,0.04724,0.02362,0.02362*
1,1,0.04724,0.02362,-0.02362*
%
%ADD31ROUNDEDRECTD31*%
%ADD32R,0.06693X0.06693*%
%ADD33C,0.06693*%
%ADD34C,0.12874*%
%ADD35C,0.01500*%
%ADD36C,0.01968*%
%ADD37C,0.01181*%
D16*
X122835Y71949D02*
D03*
X49311Y72540D02*
D03*
D17*
X122835Y42421D02*
D03*
X49311Y43012D02*
D03*
D19*
X67028Y183760D02*
D03*
X148799Y272343D02*
D03*
D20*
X57028Y183760D02*
D03*
X138799Y272343D02*
D03*
X139862Y227224D02*
D03*
X163484Y249783D02*
D03*
D21*
X139862Y217224D02*
D03*
X163484Y239783D02*
D03*
D25*
X164753Y349084D02*
G03*
X166758Y353051I-2923J3967D01*
G01*
X174341Y343140D02*
G03*
X175380Y345650I-2510J2510D01*
G01*
X174341Y343140D02*
G03*
X175380Y345650I-2510J2510D01*
G01*
X163714Y346292D02*
G03*
X164753Y348802I-2510J2510D01*
G01*
X163714Y346292D02*
G03*
X164753Y348802I-2510J2510D01*
G01*
X163432Y380118D02*
G03*
X163432Y380118I-8018J0D01*
G01*
X166758Y353051D02*
G03*
X157654Y350436I-4928J0D01*
G01*
X147624Y350486D02*
G03*
X156758Y353051I4207J2565D01*
G01*
D02*
G03*
X147624Y355617I-4928J0D01*
G01*
X177506Y317618D02*
G03*
X168372Y320183I-4928J0D01*
G01*
Y315053D02*
G03*
X177506Y317618I4207J2565D01*
G01*
X166786Y320183D02*
G03*
X166786Y315053I-4207J-2565D01*
G01*
X157506Y317618D02*
G03*
X156128Y321036I-4928J0D01*
G01*
X150069Y328908D02*
G03*
X149029Y326398I2510J-2510D01*
G01*
X150069Y328908D02*
G03*
X149029Y326398I2510J-2510D01*
G01*
Y321036D02*
G03*
X149029Y314200I3550J-3418D01*
G01*
X156128D02*
G03*
X157506Y317618I-3550J3418D01*
G01*
X146038Y355617D02*
G03*
X146038Y350486I-4207J-2565D01*
G01*
X114829Y356771D02*
G03*
X117585Y360531I-1187J3760D01*
G01*
Y365256D02*
G03*
X113642Y369199I-3943J0D01*
G01*
X140069Y332687D02*
G03*
X139029Y330177I2510J-2510D01*
G01*
X140069Y332687D02*
G03*
X139029Y330177I2510J-2510D01*
G01*
X108917Y369199D02*
G03*
X104974Y365256I0J-3943D01*
G01*
Y360531D02*
G03*
X107730Y356771I3943J0D01*
G01*
X94829Y357682D02*
G03*
X97585Y362894I-3550J5211D01*
G01*
X136289Y316348D02*
G03*
X135250Y313838I2510J-2510D01*
G01*
X136289Y316348D02*
G03*
X135250Y313838I2510J-2510D01*
G01*
X117585Y316043D02*
G03*
X114829Y319804I-3943J0D01*
G01*
X107730Y319804D02*
G03*
X104974Y316043I1187J-3760D01*
G01*
X97585Y313681D02*
G03*
X94829Y318893I-6306J0D01*
G01*
X114987Y307612D02*
G03*
X117585Y311319I-1345J3707D01*
G01*
X104974D02*
G03*
X107887Y307512I3943J0D01*
G01*
X94987Y308580D02*
G03*
X97585Y313681I-3707J5101D01*
G01*
X155089Y273612D02*
G03*
X156128Y276122I-2510J2510D01*
G01*
X155089Y273612D02*
G03*
X156128Y276122I-2510J2510D01*
G01*
X143471Y272343D02*
G03*
X142349Y275380I-4672J0D01*
G01*
X142880Y270069D02*
G03*
X143471Y272343I-4081J2273D01*
G01*
X135250Y275380D02*
G03*
X135781Y268777I3550J-3037D01*
G01*
X168156Y249783D02*
G03*
X168156Y249783I-4672J0D01*
G01*
X144534Y227224D02*
G03*
X142880Y230790I-4672J0D01*
G01*
X135781Y229498D02*
G03*
X144534Y227224I4081J-2273D01*
G01*
X115144Y260314D02*
G03*
X117900Y264075I-1187J3760D01*
G01*
Y268799D02*
G03*
X114987Y272606I-3943J0D01*
G01*
X105289Y264075D02*
G03*
X108045Y260314I3943J0D01*
G01*
X107887Y272506D02*
G03*
X105289Y268799I1345J-3707D01*
G01*
X97900Y266437D02*
G03*
X94987Y271752I-6306J0D01*
G01*
X95144Y261225D02*
G03*
X97900Y266437I-3550J5212D01*
G01*
X117900Y221555D02*
G03*
X115144Y225315I-3943J0D01*
G01*
X108045Y225315D02*
G03*
X105289Y221555I1187J-3760D01*
G01*
Y216831D02*
G03*
X108045Y213070I3943J0D01*
G01*
X115144Y213070D02*
G03*
X117900Y216831I-1187J3760D01*
G01*
X114104Y208100D02*
G03*
X115144Y210610I-2510J2510D01*
G01*
X114104Y208100D02*
G03*
X115144Y210610I-2510J2510D01*
G01*
X97900Y219193D02*
G03*
X95144Y224405I-6306J0D01*
G01*
X88037Y182435D02*
G03*
X89223Y183218I-1325J3293D01*
G01*
X97585Y362894D02*
G03*
X87730Y357682I-6306J0D01*
G01*
X77585Y362894D02*
G03*
X67730Y357682I-6306J0D01*
G01*
X74829Y357682D02*
G03*
X77585Y362894I-3550J5211D01*
G01*
X87730Y318893D02*
G03*
X87887Y308366I3550J-5212D01*
G01*
X77585Y313681D02*
G03*
X74829Y318893I-6306J0D01*
G01*
X74987Y308580D02*
G03*
X77585Y313681I-3707J5101D01*
G01*
X67730Y318893D02*
G03*
X67887Y308366I3550J-5212D01*
G01*
X54829Y357682D02*
G03*
X57585Y362894I-3550J5211D01*
G01*
D02*
G03*
X47730Y357682I-6306J0D01*
G01*
X34829Y357682D02*
G03*
X37585Y362894I-3550J5211D01*
G01*
D02*
G03*
X27730Y357682I-6306J0D01*
G01*
X54987Y308580D02*
G03*
X57585Y313681I-3707J5101D01*
G01*
D02*
G03*
X54829Y318893I-6306J0D01*
G01*
X47730Y318893D02*
G03*
X47887Y308366I3550J-5212D01*
G01*
X34987Y308580D02*
G03*
X37585Y313681I-3707J5101D01*
G01*
D02*
G03*
X34829Y318893I-6306J0D01*
G01*
X27730Y318893D02*
G03*
X27887Y308366I3550J-5212D01*
G01*
X87887Y271538D02*
G03*
X88045Y261226I3707J-5101D01*
G01*
X77900Y266437D02*
G03*
X74987Y271752I-6306J0D01*
G01*
X75144Y261225D02*
G03*
X77900Y266437I-3550J5212D01*
G01*
X67887Y271538D02*
G03*
X68045Y261226I3707J-5101D01*
G01*
X57900Y266437D02*
G03*
X54987Y271752I-6306J0D01*
G01*
X55144Y261225D02*
G03*
X57900Y266437I-3550J5212D01*
G01*
X88045Y224404D02*
G03*
X97900Y219193I3550J-5211D01*
G01*
X77900D02*
G03*
X75144Y224405I-6306J0D01*
G01*
X68045Y224404D02*
G03*
X77900Y219193I3550J-5211D01*
G01*
X84744Y180210D02*
G03*
X88037Y182435I0J3550D01*
G01*
X84203Y188238D02*
G03*
X83535Y187309I2510J-2510D01*
G01*
X57900Y219193D02*
G03*
X55144Y224405I-6306J0D01*
G01*
X48045Y224404D02*
G03*
X57900Y219193I3550J-5211D01*
G01*
X61699Y183760D02*
G03*
X57390Y188417I-4672J0D01*
G01*
X52370Y183397D02*
G03*
X61699Y183760I4658J362D01*
G01*
X47887Y271538D02*
G03*
X48045Y261226I3707J-5101D01*
G01*
X37900Y266437D02*
G03*
X34987Y271752I-6306J0D01*
G01*
X35144Y261225D02*
G03*
X37900Y266437I-3550J5212D01*
G01*
X27887Y271538D02*
G03*
X28045Y261226I3707J-5101D01*
G01*
X35144Y213981D02*
G03*
X37900Y219193I-3550J5212D01*
G01*
D02*
G03*
X35144Y224405I-6306J0D01*
G01*
X28045Y224404D02*
G03*
X28045Y213982I3550J-5211D01*
G01*
X47727Y198081D02*
G03*
X45217Y199120I-2510J-2510D01*
G01*
X47727Y198081D02*
G03*
X45217Y199120I-2510J-2510D01*
G01*
X34990Y193061D02*
G03*
X37500Y192021I2510J2510D01*
G01*
X28045Y201476D02*
G03*
X29084Y198967I3550J0D01*
G01*
X28045Y201476D02*
G03*
X29084Y198967I3550J0D01*
G01*
X34990Y193061D02*
G03*
X37500Y192021I2510J2510D01*
G01*
X23372Y188976D02*
G03*
X23372Y188976I-8018J0D01*
G01*
X163421Y380520D02*
X181595D01*
X176758Y356520D02*
X181595D01*
X163063Y382520D02*
X181595D01*
X163271Y378520D02*
X181595D01*
X176758Y352520D02*
X181595D01*
X176758Y350520D02*
X181595D01*
X176758Y354520D02*
X181595D01*
X181201Y389961D02*
X181595Y389567D01*
X166903Y357979D02*
X176758D01*
X165331Y356520D02*
X166903D01*
X166534Y354520D02*
X166903D01*
X166058Y350520D02*
X166903D01*
X164742Y348520D02*
X166903D01*
X176758D02*
X181595D01*
X176758Y348124D02*
Y357979D01*
X175380Y348124D02*
X176758D01*
X175380Y346520D02*
X181595D01*
X175196Y344520D02*
X181595D01*
X166903Y348124D02*
Y357979D01*
Y348124D02*
X168281D01*
Y347120D02*
Y348124D01*
X175380Y345650D02*
Y348124D01*
X163922Y346520D02*
X167681D01*
X157974Y372520D02*
X181595D01*
X117585Y364520D02*
X181595D01*
X115855Y368520D02*
X181595D01*
X117377Y366520D02*
X181595D01*
X117585Y362520D02*
X181595D01*
X117585Y360520D02*
X181595D01*
X117033Y358520D02*
X181595D01*
X162115Y384520D02*
X181595D01*
X162579Y376520D02*
X181595D01*
X160241Y386520D02*
X181595D01*
X161153Y374520D02*
X181595D01*
X156535Y354520D02*
X157127D01*
X155331Y356520D02*
X158331D01*
X156058Y350520D02*
X157603D01*
X140069Y332687D02*
X157654Y350273D01*
X150069Y328908D02*
X168281Y347120D01*
X161941Y344520D02*
X165681D01*
X156128Y324927D02*
X174341Y343140D01*
X146128Y328707D02*
X163714Y346292D01*
X153766Y348520D02*
X155901D01*
X143766D02*
X149895D01*
X114829Y344520D02*
X151901D01*
X114829Y342520D02*
X149901D01*
X114829Y346520D02*
X153901D01*
X167721Y336520D02*
X181595D01*
X165721Y334520D02*
X181595D01*
X163721Y332520D02*
X181595D01*
X161721Y330520D02*
X181595D01*
X159721Y328520D02*
X181595D01*
X173083Y322520D02*
X181595D01*
X157721Y326520D02*
X181595D01*
X173721Y342520D02*
X181595D01*
X171721Y340520D02*
X181595D01*
X159941Y342520D02*
X163681D01*
X157941Y340520D02*
X161681D01*
X169721Y338520D02*
X181595D01*
X163083Y322520D02*
X172074D01*
X156561Y320520D02*
X158596D01*
X176561D02*
X181595D01*
X177423Y318520D02*
X181595D01*
X177382Y316520D02*
X181595D01*
X176410Y314520D02*
X181595D01*
X166410D02*
X168747D01*
X166561Y320520D02*
X168596D01*
X166786Y320183D02*
X168372D01*
X157423Y318520D02*
X157734D01*
X157382Y316520D02*
X157775D01*
X166786Y315053D02*
X168372D01*
X156410Y314520D02*
X158747D01*
X155941Y338520D02*
X159681D01*
X156128Y321036D02*
Y324927D01*
X153941Y336520D02*
X157681D01*
X151941Y334520D02*
X155681D01*
X156128Y322520D02*
X162074D01*
X156128Y324520D02*
X181595D01*
X149941Y332520D02*
X153681D01*
X147941Y330520D02*
X151681D01*
X146128Y326520D02*
X149031D01*
X147506Y322520D02*
X149029D01*
X146128Y328520D02*
X149733D01*
X156128Y304520D02*
X181595D01*
X156128Y302520D02*
X181595D01*
X156128Y308520D02*
X181595D01*
X156128Y306520D02*
X181595D01*
X156128Y298520D02*
X181595D01*
X156128Y296520D02*
X181595D01*
X156128Y300520D02*
X181595D01*
X156128Y312520D02*
X181595D01*
X156128Y310520D02*
X181595D01*
X142349Y300520D02*
X149029D01*
X142349Y298520D02*
X149029D01*
X142349Y306520D02*
X149029D01*
X145331Y356520D02*
X148331D01*
X146038Y355617D02*
X147624D01*
X114829Y356520D02*
X138331D01*
X146038Y350486D02*
X147624D01*
X114829Y340520D02*
X147901D01*
X114829Y348520D02*
X139895D01*
X117585Y360531D02*
Y365256D01*
X108917Y369199D02*
X113642D01*
X114829Y352520D02*
X136932D01*
X114829Y350520D02*
X137603D01*
X114829Y354520D02*
X137127D01*
X114829Y334520D02*
X141901D01*
X114829Y338520D02*
X145901D01*
X114829Y336520D02*
X143901D01*
X146128Y322546D02*
Y328707D01*
X149029Y321036D02*
Y326398D01*
X114829Y332520D02*
X139912D01*
X114829Y330520D02*
X139046D01*
X107730Y319804D02*
Y356771D01*
X114829Y319804D02*
Y356771D01*
Y326520D02*
X139029D01*
Y322546D02*
Y330177D01*
X114829Y328520D02*
X139029D01*
X94127Y368520D02*
X106704D01*
X94829Y356520D02*
X107730D01*
X94829Y352520D02*
X107730D01*
X94829Y350520D02*
X107730D01*
X94829Y354520D02*
X107730D01*
X97372Y364520D02*
X104974D01*
Y360531D02*
Y365256D01*
X96438Y366520D02*
X105182D01*
X97574Y362520D02*
X104974D01*
X97121Y360520D02*
X104974D01*
X95821Y358520D02*
X105526D01*
X94829Y334520D02*
X107730D01*
X94829Y332520D02*
X107730D01*
X94829Y338520D02*
X107730D01*
X94829Y336520D02*
X107730D01*
X94829Y328520D02*
X107730D01*
X94829Y326520D02*
X107730D01*
X94829Y330520D02*
X107730D01*
X94829Y348520D02*
X107730D01*
X94829Y346520D02*
X107730D01*
X87730Y318893D02*
Y357682D01*
X94829Y318893D02*
Y357682D01*
Y342520D02*
X107730D01*
X94829Y340520D02*
X107730D01*
X94829Y344520D02*
X107730D01*
X146128Y322546D02*
X147506D01*
Y312690D02*
Y322546D01*
X146128Y324520D02*
X149029D01*
X137651Y322546D02*
X139029D01*
X147506Y320520D02*
X148596D01*
X147506Y314520D02*
X148747D01*
X142671Y312690D02*
X147506D01*
X137651Y317710D02*
Y322546D01*
X136289Y316348D02*
X137651Y317710D01*
X116710Y318520D02*
X137651D01*
X117556Y316520D02*
X136461D01*
X117585Y314520D02*
X135316D01*
X142500Y312520D02*
X149029D01*
X142349Y308520D02*
X149029D01*
X142349Y312368D02*
X142671Y312690D01*
X142349Y310520D02*
X149029D01*
X142349Y302520D02*
X149029D01*
X142349Y296520D02*
X149029D01*
X142349Y304520D02*
X149029D01*
X117585Y312520D02*
X135250D01*
X117585Y311319D02*
Y316043D01*
X117503Y310520D02*
X135250D01*
X116419Y308520D02*
X135250D01*
X114987Y298520D02*
X135250D01*
X114987Y296520D02*
X135250D01*
X114987Y300520D02*
X135250D01*
X114829Y324520D02*
X139029D01*
X114829Y322520D02*
X137651D01*
X94829D02*
X107730D01*
X94829Y320520D02*
X107730D01*
X114829D02*
X137651D01*
X95323Y318520D02*
X105849D01*
X96910Y316520D02*
X105003D01*
X94829Y324520D02*
X107730D01*
X97529Y314520D02*
X104974D01*
Y311319D02*
Y316043D01*
X97477Y312520D02*
X104974D01*
X114987Y304520D02*
X135250D01*
X114987Y302520D02*
X135250D01*
X114987Y306520D02*
X135250D01*
X94987Y298520D02*
X107887D01*
X94987Y296520D02*
X107887D01*
X94987Y300520D02*
X107887D01*
X96735Y310520D02*
X105056D01*
X94987Y308520D02*
X106140D01*
X94987Y304520D02*
X107887D01*
X94987Y302520D02*
X107887D01*
X94987Y306520D02*
X107887D01*
X181595Y293996D02*
Y389567D01*
X156128Y290520D02*
X180517D01*
X156128Y294520D02*
X181595D01*
X156128Y292520D02*
X181137D01*
X156128Y286520D02*
X179277D01*
X156128Y284520D02*
X178657D01*
X156128Y288520D02*
X179897D01*
X156128Y280520D02*
X177417D01*
X156128Y278520D02*
X176797D01*
X156128Y282520D02*
X178037D01*
X149029Y277592D02*
Y314200D01*
X148451Y277014D02*
X149029Y277592D01*
X156128Y276520D02*
X176177D01*
X144128Y277014D02*
X148451D01*
X155746Y274520D02*
X175557D01*
X172441Y264469D02*
X181595Y293996D01*
X153996Y272520D02*
X174937D01*
X153471Y268520D02*
X173697D01*
X172441Y235138D02*
Y264469D01*
X153471Y270520D02*
X174317D01*
X156128Y276122D02*
Y314200D01*
X153471Y271994D02*
X155089Y273612D01*
X144128Y267671D02*
Y277014D01*
Y267671D02*
X153471D01*
Y271994D01*
X143467Y272520D02*
X144128D01*
X142349Y286520D02*
X149029D01*
X142349Y284520D02*
X149029D01*
X142349Y290520D02*
X149029D01*
X142349Y288520D02*
X149029D01*
X142349Y280520D02*
X149029D01*
X142349Y278520D02*
X149029D01*
X142349Y282520D02*
X149029D01*
X142349Y292520D02*
X149029D01*
X142349Y276520D02*
X144128D01*
X142349Y294520D02*
X149029D01*
X142349Y275380D02*
Y312368D01*
X142933Y274520D02*
X144128D01*
X143101Y270520D02*
X144128D01*
X142880Y264520D02*
X172457D01*
X142880Y262520D02*
X172441D01*
X142880Y268520D02*
X144128D01*
X142880Y266520D02*
X173077D01*
X142880Y258520D02*
X172441D01*
X142880Y256520D02*
X172441D01*
X142880Y260520D02*
X172441D01*
X142880Y230790D02*
Y270069D01*
X135781Y229498D02*
Y268777D01*
X117900Y266520D02*
X135781D01*
X117900Y264520D02*
X135781D01*
X117900Y268520D02*
X135781D01*
X168098Y250520D02*
X172441D01*
X168156Y242520D02*
X172441D01*
X167982Y248520D02*
X172441D01*
X166827Y246520D02*
X172441D01*
X168156Y238520D02*
X172441D01*
X168156Y236520D02*
X172441D01*
X168156Y240520D02*
X172441D01*
X167271Y252520D02*
X172441D01*
X142880Y254520D02*
X172441D01*
X142880Y252520D02*
X159698D01*
X158813Y244455D02*
X168156D01*
X158813Y235112D02*
X168156D01*
X142880Y240520D02*
X158813D01*
X168156Y235112D02*
Y244455D01*
X143174Y230520D02*
X167823D01*
X142880Y234520D02*
X171823D01*
X142880Y232520D02*
X169823D01*
X144351Y228520D02*
X165823D01*
X144480Y226520D02*
X163823D01*
X143671Y224520D02*
X161823D01*
X158813Y235112D02*
Y244455D01*
X144534Y220520D02*
X157823D01*
X144534Y212553D02*
Y221896D01*
Y216520D02*
X153823D01*
X144534Y214520D02*
X151823D01*
X144534Y218520D02*
X155823D01*
X142880Y246520D02*
X160142D01*
X142880Y244520D02*
X172441D01*
X142880Y250520D02*
X158871D01*
X142880Y248520D02*
X158987D01*
X142880Y238520D02*
X158813D01*
X142880Y236520D02*
X158813D01*
X142880Y242520D02*
X158813D01*
X115144Y244520D02*
X135781D01*
X115144Y242520D02*
X135781D01*
X115144Y248520D02*
X135781D01*
X115144Y246520D02*
X135781D01*
X115144Y238520D02*
X135781D01*
X115144Y236520D02*
X135781D01*
X115144Y240520D02*
X135781D01*
X135191Y212553D02*
X144534D01*
X142618Y205315D02*
X172441Y235138D01*
X117780Y222520D02*
X159823D01*
X135191Y221896D02*
X144534D01*
X115144Y212520D02*
X149823D01*
X115143Y210520D02*
X147823D01*
X114463Y208520D02*
X145823D01*
X115144Y230520D02*
X135781D01*
X115144Y234520D02*
X135781D01*
X115144Y232520D02*
X135781D01*
X116557Y224520D02*
X136053D01*
X132579Y205315D02*
X142618D01*
X112524Y206520D02*
X143823D01*
X114987Y282520D02*
X135250D01*
Y275380D02*
Y313838D01*
X114987Y286520D02*
X135250D01*
X114987Y284520D02*
X135250D01*
X114987Y278520D02*
X135250D01*
X114987Y276520D02*
X135250D01*
X114987Y280520D02*
X135250D01*
X114987Y292520D02*
X135250D01*
X114987Y290520D02*
X135250D01*
X114987Y294520D02*
X135250D01*
X114987Y272606D02*
Y307612D01*
Y274520D02*
X134666D01*
X115263Y272520D02*
X134131D01*
X114987Y288520D02*
X135250D01*
X117505Y270520D02*
X134498D01*
X117580Y262520D02*
X135781D01*
X115663Y260520D02*
X135781D01*
X115144Y256520D02*
X135781D01*
X115144Y254520D02*
X135781D01*
X115144Y258520D02*
X135781D01*
X117900Y264075D02*
Y268799D01*
X107887Y272506D02*
Y307512D01*
X105289Y264075D02*
Y268799D01*
X115144Y225315D02*
Y260314D01*
X108045Y225315D02*
Y260314D01*
X94987Y280520D02*
X107887D01*
X94987Y278520D02*
X107887D01*
X94987Y284520D02*
X107887D01*
X94987Y282520D02*
X107887D01*
X94987Y274520D02*
X107887D01*
X94987Y272520D02*
X107887D01*
X94987Y276520D02*
X107887D01*
X94987Y294520D02*
X107887D01*
X94987Y292520D02*
X107887D01*
X94987Y271752D02*
Y308580D01*
X87887Y271538D02*
Y308366D01*
X94987Y288520D02*
X107887D01*
X94987Y286520D02*
X107887D01*
X94987Y290520D02*
X107887D01*
X96536Y262520D02*
X105609D01*
X96400Y270520D02*
X105684D01*
X95144Y260520D02*
X107526D01*
X95144Y256520D02*
X108045D01*
X95144Y254520D02*
X108045D01*
X95144Y258520D02*
X108045D01*
X97546Y268520D02*
X105289D01*
X97900Y266520D02*
X105289D01*
X97601Y264520D02*
X105289D01*
X95144Y224405D02*
Y261225D01*
X88045Y224404D02*
Y261226D01*
X115144Y228520D02*
X135374D01*
X115144Y226520D02*
X135244D01*
X115144Y252520D02*
X135781D01*
X115144Y250520D02*
X135781D01*
X117900Y218520D02*
X135191D01*
X117888Y216520D02*
X135191D01*
X117152Y214520D02*
X135191D01*
X117900Y216831D02*
Y221555D01*
X105289Y216831D02*
Y221555D01*
X117900Y220520D02*
X135191D01*
X97864Y218520D02*
X105289D01*
X135191Y212553D02*
Y221896D01*
X110524Y204520D02*
X131783D01*
X108524Y202520D02*
X129783D01*
X104724Y177461D02*
X132579Y205315D01*
X106524Y200520D02*
X127784D01*
X104524Y198520D02*
X125784D01*
X102524Y196520D02*
X123784D01*
X115144Y210610D02*
Y213070D01*
X108045Y212081D02*
Y213070D01*
X100524Y194520D02*
X121783D01*
X98524Y192520D02*
X119783D01*
X95144Y234520D02*
X108045D01*
X95144Y232520D02*
X108045D01*
X95144Y238520D02*
X108045D01*
X95144Y236520D02*
X108045D01*
X95144Y228520D02*
X108045D01*
X95144Y226520D02*
X108045D01*
X95144Y230520D02*
X108045D01*
X95144Y248520D02*
X108045D01*
X95144Y246520D02*
X108045D01*
X95144Y252520D02*
X108045D01*
X95144Y250520D02*
X108045D01*
X95144Y242520D02*
X108045D01*
X95144Y240520D02*
X108045D01*
X95144Y244520D02*
X108045D01*
X96524Y190520D02*
X117783D01*
X94524Y188520D02*
X115784D01*
X92524Y186520D02*
X113784D01*
X89223Y183218D02*
X114104Y208100D01*
X90524Y184520D02*
X111784D01*
X88231Y182520D02*
X109783D01*
X86194Y180520D02*
X107783D01*
X96951Y222520D02*
X105409D01*
X97759Y220520D02*
X105289D01*
X95144Y224520D02*
X106632D01*
X97305Y216520D02*
X105301D01*
X95828Y214520D02*
X106037D01*
X77121Y360520D02*
X85438D01*
X74127Y368520D02*
X88432D01*
X76438Y366520D02*
X86121D01*
X75821Y358520D02*
X86738D01*
X74829Y354520D02*
X87730D01*
X74829Y356520D02*
X87730D01*
X77372Y364520D02*
X85187D01*
X56438Y366520D02*
X66121D01*
X57372Y364520D02*
X65187D01*
X77574Y362520D02*
X84985D01*
X57121Y360520D02*
X65438D01*
X74829Y338520D02*
X87730D01*
X74829Y336520D02*
X87730D01*
X74829Y342520D02*
X87730D01*
X74829Y340520D02*
X87730D01*
X74829Y332520D02*
X87730D01*
X74829Y330520D02*
X87730D01*
X74829Y334520D02*
X87730D01*
X74829Y352520D02*
X87730D01*
X74829Y350520D02*
X87730D01*
X67730Y318893D02*
Y357682D01*
X74829Y318893D02*
Y357682D01*
Y346520D02*
X87730D01*
X74829Y344520D02*
X87730D01*
X74829Y348520D02*
X87730D01*
X5413Y386520D02*
X150585D01*
X5413Y384520D02*
X148711D01*
X5413Y389961D02*
X181201D01*
X5413Y388520D02*
X181595D01*
X5413Y372520D02*
X152853D01*
X5413Y370520D02*
X181595D01*
X5413Y374520D02*
X149673D01*
X5413Y378520D02*
X147556D01*
X5413Y376520D02*
X148248D01*
X5413Y382520D02*
X147763D01*
X5413Y380520D02*
X147405D01*
X55821Y358520D02*
X66738D01*
X54829Y356520D02*
X67730D01*
X54127Y368520D02*
X68432D01*
X54829Y336520D02*
X67730D01*
X54829Y334520D02*
X67730D01*
X54829Y340520D02*
X67730D01*
X54829Y338520D02*
X67730D01*
X54829Y330520D02*
X67730D01*
X54829Y328520D02*
X67730D01*
X54829Y332520D02*
X67730D01*
X54829Y350520D02*
X67730D01*
X54829Y348520D02*
X67730D01*
X54829Y354520D02*
X67730D01*
X54829Y352520D02*
X67730D01*
X54829Y344520D02*
X67730D01*
X54829Y342520D02*
X67730D01*
X54829Y346520D02*
X67730D01*
X74829Y320520D02*
X87730D01*
X74829Y328520D02*
X87730D01*
X74829Y322520D02*
X87730D01*
X74987Y306520D02*
X87887D01*
X74987Y304520D02*
X87887D01*
X74987Y308520D02*
X87657D01*
X76910Y316520D02*
X85649D01*
X77529Y314520D02*
X85030D01*
X75323Y318520D02*
X87236D01*
X77477Y312520D02*
X85082D01*
X76735Y310520D02*
X85824D01*
X74987Y284520D02*
X87887D01*
X74987Y282520D02*
X87887D01*
X74987Y288520D02*
X87887D01*
X74987Y286520D02*
X87887D01*
X74987Y278520D02*
X87887D01*
X74987Y276520D02*
X87887D01*
X74987Y280520D02*
X87887D01*
X74987Y298520D02*
X87887D01*
X74987Y296520D02*
X87887D01*
X74987Y302520D02*
X87887D01*
X74987Y300520D02*
X87887D01*
X74987Y292520D02*
X87887D01*
X74987Y290520D02*
X87887D01*
X74987Y294520D02*
X87887D01*
X74829Y326520D02*
X87730D01*
X74829Y324520D02*
X87730D01*
X54829Y322520D02*
X67730D01*
X54829Y320520D02*
X67730D01*
X54987Y304520D02*
X67887D01*
X54987Y306520D02*
X67887D01*
X55323Y318520D02*
X67236D01*
X56910Y316520D02*
X65649D01*
X54829Y326520D02*
X67730D01*
X54829Y324520D02*
X67730D01*
X57477Y312520D02*
X65082D01*
X56735Y310520D02*
X65824D01*
X54987Y308520D02*
X67658D01*
X54987Y284520D02*
X67887D01*
X54987Y282520D02*
X67887D01*
X54987Y288520D02*
X67887D01*
X54987Y286520D02*
X67887D01*
X54987Y278520D02*
X67887D01*
X54987Y276520D02*
X67887D01*
X54987Y280520D02*
X67887D01*
X54987Y298520D02*
X67887D01*
X54987Y296520D02*
X67887D01*
X54987Y302520D02*
X67887D01*
X54987Y300520D02*
X67887D01*
X54987Y292520D02*
X67887D01*
X54987Y290520D02*
X67887D01*
X54987Y294520D02*
X67887D01*
X57574Y362520D02*
X64985D01*
X34829Y354520D02*
X47730D01*
X34829Y348520D02*
X47730D01*
X34829Y346520D02*
X47730D01*
X34829Y350520D02*
X47730D01*
X37372Y364520D02*
X45187D01*
X37574Y362520D02*
X44985D01*
X36438Y366520D02*
X46121D01*
X37121Y360520D02*
X45438D01*
X35821Y358520D02*
X46738D01*
X34829Y356520D02*
X47730D01*
Y318893D02*
Y357682D01*
X54829Y318893D02*
Y357682D01*
X34829Y332520D02*
X47730D01*
X34829Y330520D02*
X47730D01*
X34829Y326520D02*
X47730D01*
X34829Y324520D02*
X47730D01*
X34829Y328520D02*
X47730D01*
X34829Y342520D02*
X47730D01*
X34829Y340520D02*
X47730D01*
X34829Y344520D02*
X47730D01*
X34829Y318893D02*
Y357682D01*
Y336520D02*
X47730D01*
X34829Y334520D02*
X47730D01*
X34829Y338520D02*
X47730D01*
X34127Y368520D02*
X48432D01*
X5413D02*
X28432D01*
X5413Y352520D02*
X27730D01*
X34829D02*
X47730D01*
X5413Y348520D02*
X27730D01*
X5413Y350520D02*
X27730D01*
X5413Y362520D02*
X24985D01*
X5413Y360520D02*
X25438D01*
X5413Y366520D02*
X26121D01*
X5413Y364520D02*
X25187D01*
X5413Y356520D02*
X27730D01*
X5413Y354520D02*
X27730D01*
X5413Y358520D02*
X26738D01*
X5413Y328520D02*
X27730D01*
Y318893D02*
Y357682D01*
X5413Y332520D02*
X27730D01*
X5413Y330520D02*
X27730D01*
X5413Y324520D02*
X27730D01*
X5413Y322520D02*
X27730D01*
X5413Y326520D02*
X27730D01*
X5413Y342520D02*
X27730D01*
X5413Y340520D02*
X27730D01*
X5413Y346520D02*
X27730D01*
X5413Y344520D02*
X27730D01*
X5413Y336520D02*
X27730D01*
X5413Y334520D02*
X27730D01*
X5413Y338520D02*
X27730D01*
X57529Y314520D02*
X65030D01*
X34987Y304520D02*
X47887D01*
X34987Y302520D02*
X47887D01*
X34987Y306520D02*
X47887D01*
X36910Y316520D02*
X45649D01*
X37529Y314520D02*
X45030D01*
X35323Y318520D02*
X47236D01*
X37477Y312520D02*
X45082D01*
X36735Y310520D02*
X45824D01*
X34987Y308520D02*
X47657D01*
X34987Y282520D02*
X47887D01*
X34987Y280520D02*
X47887D01*
X34987Y286520D02*
X47887D01*
X34987Y284520D02*
X47887D01*
X34987Y276520D02*
X47887D01*
X34987Y274520D02*
X47887D01*
X34987Y278520D02*
X47887D01*
X34987Y296520D02*
X47887D01*
X34987Y294520D02*
X47887D01*
X34987Y300520D02*
X47887D01*
X34987Y298520D02*
X47887D01*
X34987Y290520D02*
X47887D01*
X34987Y288520D02*
X47887D01*
X34987Y292520D02*
X47887D01*
X34829Y320520D02*
X47730D01*
X34829Y322520D02*
X47730D01*
X5413Y304520D02*
X27887D01*
X5413Y302520D02*
X27887D01*
X5413Y306520D02*
X27887D01*
X5413Y316520D02*
X25649D01*
X5413Y314520D02*
X25030D01*
X5413Y320520D02*
X27730D01*
X5413Y318520D02*
X27236D01*
X5413Y310520D02*
X25824D01*
X5413Y308520D02*
X27657D01*
X5413Y312520D02*
X25082D01*
X5413Y282520D02*
X27887D01*
X5413Y280520D02*
X27887D01*
X5413Y286520D02*
X27887D01*
X5413Y284520D02*
X27887D01*
X5413Y276520D02*
X27887D01*
X5413Y274520D02*
X27887D01*
X5413Y278520D02*
X27887D01*
X5413Y296520D02*
X27887D01*
X5413Y294520D02*
X27887D01*
X5413Y300520D02*
X27887D01*
X5413Y298520D02*
X27887D01*
X5413Y290520D02*
X27887D01*
X5413Y288520D02*
X27887D01*
X5413Y292520D02*
X27887D01*
X76400Y270520D02*
X86789D01*
X74987Y274520D02*
X87887D01*
X74987Y272520D02*
X87887D01*
X75144Y258520D02*
X88045D01*
X75144Y256520D02*
X88045D01*
X75144Y260520D02*
X88045D01*
X77546Y268520D02*
X85643D01*
X77899Y266520D02*
X85290D01*
X74987Y271752D02*
Y308580D01*
X77601Y264520D02*
X85588D01*
X76536Y262520D02*
X86653D01*
X75144Y240520D02*
X88045D01*
X75144Y238520D02*
X88045D01*
X75144Y244520D02*
X88045D01*
X75144Y242520D02*
X88045D01*
X75144Y234520D02*
X88045D01*
X75144Y232520D02*
X88045D01*
X75144Y236520D02*
X88045D01*
X75144Y254520D02*
X88045D01*
X75144Y252520D02*
X88045D01*
X75144Y224405D02*
Y261225D01*
X68045Y224404D02*
Y261226D01*
X75144Y248520D02*
X88045D01*
X75144Y246520D02*
X88045D01*
X75144Y250520D02*
X88045D01*
X67887Y271538D02*
Y308366D01*
X54987Y274520D02*
X67887D01*
X54987Y272520D02*
X67887D01*
X56400Y270520D02*
X66789D01*
X55144Y258520D02*
X68045D01*
X55144Y260520D02*
X68045D01*
X57546Y268520D02*
X65643D01*
X57899Y266520D02*
X65289D01*
X54987Y271752D02*
Y308580D01*
X57601Y264520D02*
X65588D01*
X56536Y262520D02*
X66653D01*
X55144Y240520D02*
X68045D01*
X55144Y238520D02*
X68045D01*
X55144Y244520D02*
X68045D01*
X55144Y242520D02*
X68045D01*
X55144Y234520D02*
X68045D01*
X55144Y232520D02*
X68045D01*
X55144Y236520D02*
X68045D01*
X55144Y254520D02*
X68045D01*
X55144Y252520D02*
X68045D01*
X55144Y256520D02*
X68045D01*
X55144Y224405D02*
Y261225D01*
Y248520D02*
X68045D01*
X55144Y246520D02*
X68045D01*
X55144Y250520D02*
X68045D01*
X75144Y226520D02*
X88045D01*
X75144Y224520D02*
X88045D01*
X75144Y230520D02*
X88045D01*
X75144Y228520D02*
X88045D01*
X76951Y222520D02*
X86238D01*
X75828Y214520D02*
X87361D01*
X77759Y220520D02*
X85430D01*
X57759D02*
X65430D01*
X77864Y218520D02*
X85325D01*
X77305Y216520D02*
X85884D01*
X57864Y218520D02*
X65325D01*
X84203Y188238D02*
X108045Y212081D01*
X71699Y187309D02*
X83535D01*
X71699Y180210D02*
X84744D01*
X71699Y179088D02*
Y180210D01*
X62356Y179088D02*
X71699D01*
X62356Y188432D02*
X71699D01*
Y187309D02*
Y188432D01*
X60797Y186520D02*
X62356D01*
Y179088D02*
Y188432D01*
X61637Y184520D02*
X62356D01*
X61532Y182520D02*
X62356D01*
X60393Y180520D02*
X62356D01*
X55144Y226520D02*
X68045D01*
X55144Y224520D02*
X68045D01*
X35144Y212520D02*
X108045D01*
X35144Y210520D02*
X106484D01*
X35144Y206520D02*
X102484D01*
X35144Y204520D02*
X100484D01*
X35144Y208520D02*
X104484D01*
X55144Y228520D02*
X68045D01*
X55144Y230520D02*
X68045D01*
X56951Y222520D02*
X66238D01*
X57305Y216520D02*
X65884D01*
X55828Y214520D02*
X67361D01*
X47192Y198520D02*
X94484D01*
X49288Y196520D02*
X92484D01*
X35571Y202520D02*
X98484D01*
X37571Y200520D02*
X96484D01*
X51288Y194520D02*
X90484D01*
X5413Y177461D02*
X104724D01*
X5413Y178520D02*
X105783D01*
X55288Y190520D02*
X86484D01*
X57288Y188520D02*
X84484D01*
X53288Y192520D02*
X88484D01*
X47727Y198081D02*
X57390Y188417D01*
X5413Y180520D02*
X53662D01*
X47887Y271538D02*
Y308366D01*
X34987Y272520D02*
X47887D01*
X35144Y260520D02*
X48045D01*
X35144Y256520D02*
X48045D01*
X35144Y254520D02*
X48045D01*
X35144Y258520D02*
X48045D01*
X37546Y268520D02*
X45643D01*
X37900Y266520D02*
X45289D01*
X36400Y270520D02*
X46789D01*
X37601Y264520D02*
X45588D01*
X36536Y262520D02*
X46653D01*
X35144Y236520D02*
X48045D01*
Y224404D02*
Y261226D01*
X35144Y240520D02*
X48045D01*
X35144Y238520D02*
X48045D01*
X35144Y232520D02*
X48045D01*
X35144Y230520D02*
X48045D01*
X35144Y234520D02*
X48045D01*
X35144Y250520D02*
X48045D01*
X35144Y248520D02*
X48045D01*
X35144Y252520D02*
X48045D01*
X35144Y224405D02*
Y261225D01*
Y244520D02*
X48045D01*
X35144Y242520D02*
X48045D01*
X35144Y246520D02*
X48045D01*
X34987Y271752D02*
Y308580D01*
X5413Y260520D02*
X28045D01*
X5413Y258520D02*
X28045D01*
X5413Y254520D02*
X28045D01*
X5413Y252520D02*
X28045D01*
X5413Y256520D02*
X28045D01*
X27887Y271538D02*
Y308366D01*
X5413Y268520D02*
X25643D01*
X5413Y272520D02*
X27887D01*
X5413Y270520D02*
X26789D01*
X5413Y264520D02*
X25587D01*
X5413Y262520D02*
X26653D01*
X5413Y266520D02*
X25289D01*
X5413Y234520D02*
X28045D01*
Y224404D02*
Y261226D01*
X5413Y238520D02*
X28045D01*
X5413Y236520D02*
X28045D01*
X5413Y230520D02*
X28045D01*
X5413Y228520D02*
X28045D01*
X5413Y232520D02*
X28045D01*
X5413Y248520D02*
X28045D01*
X5413Y246520D02*
X28045D01*
X5413Y250520D02*
X28045D01*
X5413Y177461D02*
Y389961D01*
Y242520D02*
X28045D01*
X5413Y240520D02*
X28045D01*
X5413Y244520D02*
X28045D01*
X35144Y224520D02*
X48045D01*
X36951Y222520D02*
X46238D01*
X35144Y228520D02*
X48045D01*
X35144Y226520D02*
X48045D01*
X37759Y220520D02*
X45430D01*
X37305Y216520D02*
X45884D01*
X35828Y214520D02*
X47361D01*
X37864Y218520D02*
X45325D01*
X35144Y202947D02*
Y213981D01*
Y202947D02*
X38970Y199120D01*
X28045Y201476D02*
Y213982D01*
X38970Y199120D02*
X45217D01*
X43746Y192021D02*
X52370Y183397D01*
X23223Y190520D02*
X45248D01*
X23359Y188520D02*
X47248D01*
X22987Y186520D02*
X49248D01*
X29084Y198967D02*
X34990Y193061D01*
X37500Y192021D02*
X43746D01*
X22547Y192520D02*
X35686D01*
X5413Y208520D02*
X28045D01*
X5413Y206520D02*
X28045D01*
X5413Y212520D02*
X28045D01*
X5413Y210520D02*
X28045D01*
X5413Y202520D02*
X28045D01*
X5413Y200520D02*
X28176D01*
X5413Y204520D02*
X28045D01*
X5413Y222520D02*
X26238D01*
X5413Y220520D02*
X25430D01*
X5413Y226520D02*
X28045D01*
X5413Y224520D02*
X28045D01*
X5413Y216520D02*
X25884D01*
X5413Y214520D02*
X27361D01*
X5413Y218520D02*
X25325D01*
X18072Y196520D02*
X31531D01*
X5413Y198520D02*
X29531D01*
X5413Y196520D02*
X12636D01*
X21148Y194520D02*
X33531D01*
X22020Y184520D02*
X51248D01*
X20108Y182520D02*
X52524D01*
X5413Y190520D02*
X7486D01*
X5413Y188520D02*
X7349D01*
X5413Y194520D02*
X9561D01*
X5413Y192520D02*
X8162D01*
X5413Y184520D02*
X8689D01*
X5413Y182520D02*
X10600D01*
X5413Y186520D02*
X7722D01*
D26*
X255355Y385925D02*
X351772D01*
X381201Y220610D02*
Y356496D01*
X351772Y385925D02*
X381201Y356496D01*
X364764Y202913D02*
Y328839D01*
Y202913D02*
X379134Y188543D01*
X334882Y358720D02*
X364764Y328839D01*
X379134Y218543D02*
X381201Y220610D01*
X164016Y149114D02*
X185433D01*
X132087Y117184D02*
X164016Y149114D01*
X215354Y179035D02*
X369626D01*
X379134Y188543D01*
X185433Y149114D02*
X215354Y179035D01*
X334882Y358720D02*
Y369587D01*
X319638Y276575D02*
X320826D01*
X301399Y258335D02*
X319638Y276575D01*
X132087Y179830D02*
X210593Y258335D01*
X301399D01*
X132087Y147185D02*
Y179830D01*
X249548Y380118D02*
X255355Y385925D01*
X310630Y229665D02*
X350826Y269861D01*
Y276575D01*
X288483Y131240D02*
X375984D01*
X274566Y117323D02*
X288483Y131240D01*
X283504Y96260D02*
X304566Y117323D01*
X237776Y96260D02*
X283504D01*
X222126Y111909D02*
X237776Y96260D01*
X360630Y22539D02*
X375984Y37894D01*
Y101240D01*
X343444Y22539D02*
X360630D01*
X312205D02*
X313444D01*
X305362Y29382D02*
X312205Y22539D01*
X235925Y28878D02*
Y29382D01*
X305362D01*
X223779Y16732D02*
X235925Y28878D01*
X222126Y111909D02*
X222526Y112309D01*
X152165Y71949D02*
X192126Y111909D01*
X122835Y71949D02*
X152165D01*
X180610Y16732D02*
X223779D01*
X122835Y42421D02*
X154921D01*
X180610Y16732D01*
X122244Y43012D02*
X122835Y42421D01*
X49311Y43012D02*
X122244D01*
X49606Y72244D02*
X122539D01*
X49311Y72540D02*
X49606Y72244D01*
X122539D02*
X122835Y71949D01*
D28*
X67028Y183760D02*
X84744D01*
X161204Y352424D02*
X161831Y353051D01*
X161204Y348802D02*
Y352424D01*
X142579Y330177D02*
X161204Y348802D01*
X142579Y317618D02*
Y330177D01*
X152579Y326398D02*
X171831Y345650D01*
Y353051D01*
X152579Y317618D02*
Y326398D01*
X138799Y313838D02*
X142579Y317618D01*
X138799Y272343D02*
Y313838D01*
X152579Y276122D02*
Y317618D01*
X148799Y272343D02*
X152579Y276122D01*
X139331Y227756D02*
Y271811D01*
Y227756D02*
X139862Y227224D01*
X138799Y272343D02*
X139331Y271811D01*
X51280Y313681D02*
Y362894D01*
X51437Y266594D02*
Y313524D01*
X51594Y219193D02*
Y266437D01*
X31594Y219193D02*
Y266437D01*
X71594Y219193D02*
Y266437D01*
X71437Y266594D02*
Y313524D01*
Y266594D02*
X71594Y266437D01*
X71280Y313681D02*
X71437Y313524D01*
X71280Y313681D02*
Y362894D01*
X91594Y219193D02*
Y266437D01*
X91280Y313681D02*
X91437Y313524D01*
Y266594D02*
Y313524D01*
Y266594D02*
X91594Y266437D01*
X91280Y313681D02*
Y362894D01*
X111437Y266594D02*
Y313524D01*
Y266594D02*
X111594Y266437D01*
X111280Y313681D02*
X111437Y313524D01*
X111280Y313681D02*
Y362894D01*
X111594Y210610D02*
Y266437D01*
X86713Y185728D02*
X111594Y210610D01*
X45217Y195571D02*
X57028Y183760D01*
X37500Y195571D02*
X45217D01*
X31594Y201476D02*
Y219193D01*
Y201476D02*
X37500Y195571D01*
X31437Y266594D02*
Y313524D01*
Y266594D02*
X31594Y266437D01*
X31280Y313681D02*
X31437Y313524D01*
X31280Y313681D02*
Y362894D01*
X71250Y362864D02*
X71280Y362894D01*
D29*
X71280Y362894D02*
D03*
X91280D02*
D03*
X51279D02*
D03*
X31280D02*
D03*
X222126Y111909D02*
D03*
X320826Y276575D02*
D03*
X210984Y213090D02*
D03*
X313444Y22539D02*
D03*
X223779Y16732D02*
D03*
X215354Y179035D02*
D03*
X334882Y369587D02*
D03*
X249548Y380118D02*
D03*
X132087Y117184D02*
D03*
X379134Y188543D02*
D03*
X51673Y119940D02*
D03*
X375984Y101240D02*
D03*
X310630Y199665D02*
D03*
X221712Y280413D02*
D03*
X274566Y117323D02*
D03*
X31594Y219193D02*
D03*
X51595D02*
D03*
X91594D02*
D03*
X71595D02*
D03*
X31280Y313681D02*
D03*
X51279D02*
D03*
X91280D02*
D03*
X71280D02*
D03*
X31594Y266437D02*
D03*
X51595D02*
D03*
X91594D02*
D03*
X71595D02*
D03*
D30*
X111279Y362894D02*
D03*
X192126Y111909D02*
D03*
X350826Y276575D02*
D03*
X240984Y213090D02*
D03*
X343444Y22539D02*
D03*
X253779Y16732D02*
D03*
X185354Y179035D02*
D03*
X304882Y369587D02*
D03*
X219548Y380118D02*
D03*
X251712Y280413D02*
D03*
X304566Y117323D02*
D03*
X111594Y219193D02*
D03*
X111279Y313681D02*
D03*
X111594Y266437D02*
D03*
D31*
X132087Y147185D02*
D03*
X379134Y218543D02*
D03*
X51673Y149940D02*
D03*
X375984Y131240D02*
D03*
X310630Y229665D02*
D03*
D32*
X142579Y317618D02*
D03*
X171831Y353051D02*
D03*
D33*
X152579Y317618D02*
D03*
X162579D02*
D03*
X172579D02*
D03*
X161831Y353051D02*
D03*
X151831D02*
D03*
X141831D02*
D03*
D34*
X15354Y188976D02*
D03*
X155413Y380118D02*
D03*
X381890Y383465D02*
D03*
X379528Y12106D02*
D03*
X15354Y17421D02*
D03*
D35*
X84744Y183760D02*
X86713Y185728D01*
D36*
X162579Y317618D02*
X172579D01*
X141831Y353051D02*
X151831D01*
D37*
X51437Y266594D02*
X51594Y266437D01*
X51280Y313681D02*
X51437Y313524D01*
X51550Y219238D02*
X51594Y219193D01*
M02*
