G04*
G04 #@! TF.GenerationSoftware,Altium Limited,Altium Designer,22.1.2 (22)*
G04*
G04 Layer_Color=16711935*
%FSLAX25Y25*%
%MOIN*%
G70*
G04*
G04 #@! TF.SameCoordinates,D2A74ED6-6853-450D-875C-18D0DEDCCFCE*
G04*
G04*
G04 #@! TF.FilePolarity,Positive*
G04*
G01*
G75*
%ADD12C,0.00787*%
G36*
X328162Y231160D02*
Y231156D01*
Y231144D01*
Y231129D01*
Y231106D01*
X328158Y231079D01*
Y231048D01*
X328154Y230979D01*
X328142Y230899D01*
X328131Y230818D01*
X328112Y230737D01*
X328085Y230668D01*
X328081Y230661D01*
X328069Y230641D01*
X328050Y230611D01*
X328027Y230572D01*
X327993Y230526D01*
X327951Y230484D01*
X327897Y230442D01*
X327839Y230403D01*
X327831Y230399D01*
X327808Y230388D01*
X327774Y230376D01*
X327728Y230361D01*
X327670Y230342D01*
X327605Y230330D01*
X327528Y230319D01*
X327447Y230315D01*
X327417D01*
X327394Y230319D01*
X327367Y230323D01*
X327332Y230326D01*
X327259Y230338D01*
X327179Y230361D01*
X327094Y230396D01*
X327052Y230415D01*
X327013Y230442D01*
X326975Y230469D01*
X326941Y230503D01*
Y230507D01*
X326933Y230511D01*
X326925Y230522D01*
X326914Y230538D01*
X326898Y230561D01*
X326887Y230584D01*
X326868Y230614D01*
X326852Y230645D01*
X326837Y230683D01*
X326821Y230726D01*
X326806Y230772D01*
X326795Y230826D01*
X326783Y230879D01*
X326775Y230941D01*
X326772Y231002D01*
Y231071D01*
X327071Y231114D01*
Y231110D01*
Y231102D01*
Y231087D01*
X327075Y231067D01*
Y231045D01*
X327079Y231018D01*
X327090Y230956D01*
X327102Y230887D01*
X327121Y230822D01*
X327148Y230764D01*
X327163Y230737D01*
X327179Y230714D01*
X327183Y230710D01*
X327198Y230699D01*
X327217Y230680D01*
X327248Y230664D01*
X327286Y230645D01*
X327332Y230626D01*
X327386Y230614D01*
X327447Y230611D01*
X327470D01*
X327494Y230614D01*
X327520Y230618D01*
X327555Y230626D01*
X327593Y230634D01*
X327628Y230649D01*
X327662Y230668D01*
X327666Y230672D01*
X327678Y230680D01*
X327693Y230691D01*
X327712Y230710D01*
X327735Y230730D01*
X327755Y230756D01*
X327774Y230787D01*
X327789Y230822D01*
Y230826D01*
X327797Y230841D01*
X327801Y230864D01*
X327808Y230899D01*
X327816Y230945D01*
X327820Y230998D01*
X327828Y231064D01*
Y231140D01*
Y232880D01*
X328162D01*
Y231160D01*
D02*
G37*
G36*
X329748Y230357D02*
X329437D01*
Y232331D01*
X329433Y232327D01*
X329417Y232312D01*
X329391Y232293D01*
X329356Y232266D01*
X329314Y232231D01*
X329264Y232196D01*
X329206Y232154D01*
X329141Y232116D01*
X329137D01*
X329133Y232112D01*
X329110Y232097D01*
X329076Y232078D01*
X329033Y232054D01*
X328983Y232028D01*
X328930Y232004D01*
X328872Y231978D01*
X328818Y231955D01*
Y232258D01*
X328822D01*
X328830Y232262D01*
X328845Y232270D01*
X328861Y232281D01*
X328884Y232293D01*
X328910Y232304D01*
X328972Y232339D01*
X329041Y232381D01*
X329118Y232431D01*
X329195Y232488D01*
X329268Y232550D01*
X329271Y232554D01*
X329275Y232558D01*
X329298Y232580D01*
X329333Y232615D01*
X329375Y232657D01*
X329421Y232711D01*
X329467Y232769D01*
X329509Y232830D01*
X329544Y232892D01*
X329748D01*
Y230357D01*
D02*
G37*
G36*
X293748Y61020D02*
X293775Y61016D01*
X293810Y61012D01*
X293882Y61001D01*
X293963Y60978D01*
X294048Y60943D01*
X294090Y60924D01*
X294128Y60897D01*
X294167Y60870D01*
X294201Y60835D01*
Y60832D01*
X294209Y60828D01*
X294216Y60816D01*
X294228Y60801D01*
X294243Y60778D01*
X294255Y60755D01*
X294274Y60724D01*
X294289Y60693D01*
X294305Y60655D01*
X294320Y60613D01*
X294336Y60567D01*
X294347Y60513D01*
X294359Y60459D01*
X294366Y60398D01*
X294370Y60336D01*
Y60267D01*
X294071Y60225D01*
Y60229D01*
Y60237D01*
Y60252D01*
X294067Y60271D01*
Y60294D01*
X294063Y60321D01*
X294051Y60382D01*
X294040Y60452D01*
X294021Y60517D01*
X293994Y60574D01*
X293978Y60601D01*
X293963Y60624D01*
X293959Y60628D01*
X293944Y60640D01*
X293925Y60659D01*
X293894Y60674D01*
X293856Y60693D01*
X293810Y60713D01*
X293756Y60724D01*
X293694Y60728D01*
X293671D01*
X293648Y60724D01*
X293621Y60720D01*
X293587Y60713D01*
X293548Y60705D01*
X293514Y60690D01*
X293479Y60670D01*
X293475Y60667D01*
X293464Y60659D01*
X293448Y60647D01*
X293429Y60628D01*
X293406Y60609D01*
X293387Y60582D01*
X293368Y60551D01*
X293353Y60517D01*
Y60513D01*
X293345Y60498D01*
X293341Y60475D01*
X293333Y60440D01*
X293326Y60394D01*
X293322Y60340D01*
X293314Y60275D01*
Y60198D01*
Y58459D01*
X292980D01*
Y60179D01*
Y60183D01*
Y60194D01*
Y60210D01*
Y60233D01*
X292984Y60259D01*
Y60290D01*
X292988Y60359D01*
X292999Y60440D01*
X293011Y60521D01*
X293030Y60601D01*
X293057Y60670D01*
X293061Y60678D01*
X293072Y60697D01*
X293091Y60728D01*
X293114Y60766D01*
X293149Y60812D01*
X293191Y60855D01*
X293245Y60897D01*
X293303Y60935D01*
X293310Y60939D01*
X293333Y60951D01*
X293368Y60962D01*
X293414Y60978D01*
X293472Y60997D01*
X293537Y61008D01*
X293614Y61020D01*
X293694Y61024D01*
X293725D01*
X293748Y61020D01*
D02*
G37*
G36*
X292604Y60978D02*
Y60962D01*
Y60939D01*
X292600Y60912D01*
X292596Y60882D01*
X292592Y60847D01*
X292581Y60809D01*
X292569Y60770D01*
Y60766D01*
X292565Y60763D01*
X292558Y60739D01*
X292542Y60709D01*
X292519Y60663D01*
X292492Y60613D01*
X292454Y60555D01*
X292415Y60498D01*
X292366Y60436D01*
Y60432D01*
X292358Y60429D01*
X292339Y60405D01*
X292308Y60371D01*
X292262Y60325D01*
X292204Y60271D01*
X292135Y60206D01*
X292051Y60133D01*
X291959Y60052D01*
X291955Y60048D01*
X291939Y60037D01*
X291920Y60021D01*
X291893Y59995D01*
X291859Y59968D01*
X291820Y59933D01*
X291736Y59860D01*
X291644Y59772D01*
X291551Y59684D01*
X291506Y59641D01*
X291467Y59599D01*
X291432Y59557D01*
X291402Y59518D01*
Y59515D01*
X291394Y59511D01*
X291386Y59499D01*
X291379Y59484D01*
X291356Y59445D01*
X291329Y59395D01*
X291302Y59338D01*
X291279Y59276D01*
X291264Y59207D01*
X291256Y59142D01*
Y59138D01*
Y59134D01*
X291260Y59111D01*
X291264Y59077D01*
X291271Y59035D01*
X291290Y58985D01*
X291314Y58935D01*
X291344Y58881D01*
X291390Y58831D01*
X291398Y58827D01*
X291413Y58812D01*
X291444Y58793D01*
X291482Y58766D01*
X291532Y58743D01*
X291590Y58723D01*
X291659Y58708D01*
X291736Y58704D01*
X291759D01*
X291774Y58708D01*
X291813Y58712D01*
X291863Y58720D01*
X291920Y58739D01*
X291982Y58762D01*
X292039Y58797D01*
X292093Y58843D01*
X292097Y58850D01*
X292112Y58866D01*
X292135Y58896D01*
X292158Y58939D01*
X292185Y58992D01*
X292204Y59054D01*
X292220Y59127D01*
X292227Y59211D01*
X292546Y59177D01*
Y59173D01*
Y59161D01*
X292542Y59142D01*
X292538Y59119D01*
X292531Y59088D01*
X292527Y59054D01*
X292504Y58977D01*
X292473Y58889D01*
X292431Y58800D01*
X292373Y58712D01*
X292343Y58674D01*
X292304Y58635D01*
X292300Y58631D01*
X292293Y58627D01*
X292281Y58616D01*
X292266Y58605D01*
X292243Y58593D01*
X292216Y58574D01*
X292185Y58558D01*
X292151Y58539D01*
X292112Y58524D01*
X292070Y58505D01*
X292020Y58489D01*
X291970Y58478D01*
X291855Y58455D01*
X291793Y58451D01*
X291728Y58447D01*
X291694D01*
X291667Y58451D01*
X291636Y58455D01*
X291601Y58459D01*
X291563Y58462D01*
X291521Y58474D01*
X291429Y58497D01*
X291333Y58531D01*
X291283Y58555D01*
X291237Y58581D01*
X291194Y58616D01*
X291152Y58651D01*
X291148Y58654D01*
X291144Y58658D01*
X291133Y58670D01*
X291118Y58685D01*
X291102Y58708D01*
X291083Y58731D01*
X291045Y58789D01*
X291006Y58862D01*
X290972Y58946D01*
X290945Y59042D01*
X290941Y59096D01*
X290937Y59150D01*
Y59157D01*
Y59177D01*
X290941Y59207D01*
X290945Y59246D01*
X290952Y59292D01*
X290964Y59342D01*
X290979Y59395D01*
X291002Y59449D01*
X291006Y59457D01*
X291014Y59476D01*
X291029Y59503D01*
X291052Y59541D01*
X291079Y59588D01*
X291114Y59641D01*
X291160Y59695D01*
X291210Y59756D01*
X291217Y59764D01*
X291237Y59787D01*
X291271Y59822D01*
X291294Y59845D01*
X291321Y59872D01*
X291352Y59902D01*
X291390Y59937D01*
X291429Y59971D01*
X291471Y60014D01*
X291517Y60056D01*
X291571Y60102D01*
X291624Y60148D01*
X291686Y60202D01*
X291690Y60206D01*
X291698Y60213D01*
X291713Y60225D01*
X291732Y60240D01*
X291778Y60279D01*
X291836Y60329D01*
X291893Y60382D01*
X291955Y60436D01*
X292005Y60482D01*
X292024Y60501D01*
X292043Y60521D01*
X292047Y60524D01*
X292055Y60536D01*
X292070Y60551D01*
X292089Y60574D01*
X292131Y60624D01*
X292174Y60686D01*
X290933D01*
Y60981D01*
X292604D01*
Y60978D01*
D02*
G37*
G36*
X317403Y96453D02*
X317434Y96449D01*
X317465Y96445D01*
X317503Y96441D01*
X317542Y96434D01*
X317630Y96411D01*
X317722Y96372D01*
X317768Y96353D01*
X317810Y96326D01*
X317856Y96295D01*
X317899Y96261D01*
X317902Y96257D01*
X317906Y96253D01*
X317918Y96242D01*
X317933Y96226D01*
X317949Y96203D01*
X317968Y96180D01*
X317991Y96153D01*
X318010Y96123D01*
X318056Y96046D01*
X318094Y95957D01*
X318129Y95858D01*
X318141Y95804D01*
X318148Y95746D01*
X317837Y95704D01*
Y95708D01*
X317833Y95716D01*
Y95731D01*
X317826Y95746D01*
X317814Y95792D01*
X317795Y95850D01*
X317772Y95912D01*
X317741Y95977D01*
X317703Y96034D01*
X317660Y96084D01*
X317653Y96088D01*
X317637Y96104D01*
X317611Y96119D01*
X317572Y96142D01*
X317530Y96161D01*
X317476Y96180D01*
X317415Y96196D01*
X317350Y96200D01*
X317326D01*
X317311Y96196D01*
X317273Y96192D01*
X317223Y96180D01*
X317161Y96161D01*
X317100Y96138D01*
X317038Y96100D01*
X316981Y96050D01*
X316973Y96042D01*
X316958Y96023D01*
X316935Y95992D01*
X316904Y95946D01*
X316877Y95892D01*
X316854Y95827D01*
X316839Y95754D01*
X316831Y95673D01*
Y95670D01*
Y95666D01*
Y95654D01*
X316835Y95639D01*
X316839Y95600D01*
X316850Y95551D01*
X316866Y95497D01*
X316893Y95435D01*
X316927Y95378D01*
X316973Y95324D01*
X316981Y95316D01*
X316996Y95301D01*
X317027Y95282D01*
X317069Y95255D01*
X317119Y95228D01*
X317180Y95209D01*
X317246Y95193D01*
X317323Y95186D01*
X317357D01*
X317384Y95189D01*
X317415Y95193D01*
X317453Y95197D01*
X317495Y95205D01*
X317542Y95216D01*
X317507Y94944D01*
X317488D01*
X317472Y94948D01*
X317422D01*
X317388Y94944D01*
X317338Y94936D01*
X317284Y94925D01*
X317227Y94905D01*
X317165Y94882D01*
X317104Y94848D01*
X317096Y94844D01*
X317077Y94829D01*
X317054Y94802D01*
X317023Y94767D01*
X316992Y94725D01*
X316969Y94671D01*
X316950Y94606D01*
X316942Y94529D01*
Y94525D01*
Y94521D01*
Y94502D01*
X316950Y94472D01*
X316958Y94429D01*
X316969Y94387D01*
X316992Y94341D01*
X317019Y94291D01*
X317058Y94249D01*
X317061Y94245D01*
X317077Y94230D01*
X317104Y94210D01*
X317138Y94191D01*
X317180Y94168D01*
X317230Y94153D01*
X317288Y94137D01*
X317353Y94134D01*
X317384D01*
X317419Y94141D01*
X317457Y94149D01*
X317507Y94160D01*
X317557Y94183D01*
X317607Y94210D01*
X317657Y94249D01*
X317660Y94253D01*
X317676Y94268D01*
X317695Y94295D01*
X317718Y94333D01*
X317745Y94379D01*
X317768Y94437D01*
X317791Y94506D01*
X317806Y94587D01*
X318117Y94533D01*
Y94529D01*
X318114Y94517D01*
X318110Y94502D01*
X318106Y94483D01*
X318098Y94456D01*
X318091Y94425D01*
X318064Y94356D01*
X318033Y94279D01*
X317987Y94199D01*
X317933Y94122D01*
X317864Y94053D01*
X317860Y94049D01*
X317856Y94045D01*
X317845Y94037D01*
X317826Y94026D01*
X317806Y94015D01*
X317783Y93999D01*
X317726Y93965D01*
X317653Y93934D01*
X317565Y93907D01*
X317469Y93888D01*
X317415Y93880D01*
X317326D01*
X317288Y93884D01*
X317238Y93892D01*
X317180Y93903D01*
X317115Y93919D01*
X317050Y93941D01*
X316985Y93972D01*
X316981D01*
X316977Y93976D01*
X316954Y93988D01*
X316923Y94007D01*
X316885Y94034D01*
X316843Y94068D01*
X316796Y94111D01*
X316754Y94160D01*
X316716Y94214D01*
X316712Y94222D01*
X316701Y94241D01*
X316685Y94272D01*
X316670Y94310D01*
X316654Y94360D01*
X316639Y94414D01*
X316628Y94472D01*
X316624Y94537D01*
Y94544D01*
Y94564D01*
X316628Y94594D01*
X316635Y94633D01*
X316647Y94679D01*
X316662Y94729D01*
X316681Y94783D01*
X316712Y94832D01*
X316716Y94840D01*
X316727Y94855D01*
X316750Y94879D01*
X316777Y94909D01*
X316816Y94944D01*
X316858Y94978D01*
X316912Y95017D01*
X316973Y95047D01*
X316969D01*
X316962Y95051D01*
X316950D01*
X316935Y95059D01*
X316896Y95070D01*
X316846Y95094D01*
X316793Y95120D01*
X316735Y95159D01*
X316677Y95205D01*
X316628Y95262D01*
X316624Y95270D01*
X316608Y95293D01*
X316589Y95328D01*
X316562Y95374D01*
X316539Y95432D01*
X316520Y95501D01*
X316505Y95581D01*
X316501Y95670D01*
Y95673D01*
Y95685D01*
Y95700D01*
X316505Y95723D01*
X316509Y95754D01*
X316512Y95785D01*
X316520Y95823D01*
X316532Y95862D01*
X316558Y95950D01*
X316578Y96000D01*
X316604Y96046D01*
X316631Y96092D01*
X316662Y96138D01*
X316701Y96184D01*
X316743Y96230D01*
X316747Y96234D01*
X316754Y96242D01*
X316766Y96249D01*
X316785Y96265D01*
X316808Y96284D01*
X316839Y96303D01*
X316873Y96322D01*
X316908Y96342D01*
X316950Y96365D01*
X316996Y96384D01*
X317046Y96403D01*
X317100Y96422D01*
X317158Y96438D01*
X317219Y96445D01*
X317284Y96453D01*
X317350Y96457D01*
X317380D01*
X317403Y96453D01*
D02*
G37*
G36*
X319339D02*
X319366Y96449D01*
X319400Y96445D01*
X319473Y96434D01*
X319554Y96411D01*
X319638Y96376D01*
X319680Y96357D01*
X319719Y96330D01*
X319757Y96303D01*
X319792Y96269D01*
Y96265D01*
X319799Y96261D01*
X319807Y96249D01*
X319819Y96234D01*
X319834Y96211D01*
X319846Y96188D01*
X319865Y96157D01*
X319880Y96127D01*
X319895Y96088D01*
X319911Y96046D01*
X319926Y96000D01*
X319938Y95946D01*
X319949Y95892D01*
X319957Y95831D01*
X319961Y95769D01*
Y95700D01*
X319661Y95658D01*
Y95662D01*
Y95670D01*
Y95685D01*
X319657Y95704D01*
Y95727D01*
X319654Y95754D01*
X319642Y95815D01*
X319630Y95885D01*
X319611Y95950D01*
X319584Y96008D01*
X319569Y96034D01*
X319554Y96057D01*
X319550Y96061D01*
X319534Y96073D01*
X319515Y96092D01*
X319484Y96107D01*
X319446Y96127D01*
X319400Y96146D01*
X319346Y96157D01*
X319285Y96161D01*
X319262D01*
X319239Y96157D01*
X319212Y96153D01*
X319177Y96146D01*
X319139Y96138D01*
X319104Y96123D01*
X319070Y96104D01*
X319066Y96100D01*
X319054Y96092D01*
X319039Y96080D01*
X319020Y96061D01*
X318997Y96042D01*
X318978Y96015D01*
X318958Y95984D01*
X318943Y95950D01*
Y95946D01*
X318935Y95931D01*
X318932Y95908D01*
X318924Y95873D01*
X318916Y95827D01*
X318912Y95773D01*
X318905Y95708D01*
Y95631D01*
Y93892D01*
X318571D01*
Y95612D01*
Y95616D01*
Y95627D01*
Y95643D01*
Y95666D01*
X318574Y95693D01*
Y95723D01*
X318578Y95792D01*
X318590Y95873D01*
X318601Y95954D01*
X318620Y96034D01*
X318647Y96104D01*
X318651Y96111D01*
X318663Y96130D01*
X318682Y96161D01*
X318705Y96200D01*
X318740Y96245D01*
X318782Y96288D01*
X318836Y96330D01*
X318893Y96368D01*
X318901Y96372D01*
X318924Y96384D01*
X318958Y96395D01*
X319005Y96411D01*
X319062Y96430D01*
X319127Y96441D01*
X319204Y96453D01*
X319285Y96457D01*
X319316D01*
X319339Y96453D01*
D02*
G37*
D12*
X315394Y224724D02*
Y235906D01*
Y224724D02*
X338150D01*
Y235906D01*
X315394D02*
X338150D01*
X305748Y55433D02*
Y66614D01*
X282992D02*
X305748D01*
X282992Y55433D02*
Y66614D01*
Y55433D02*
X305748D01*
X331339Y90866D02*
Y102047D01*
X308583D02*
X331339D01*
X308583Y90866D02*
Y102047D01*
Y90866D02*
X331339D01*
M02*
