M48
;Layer_Color=9474304
;FILE_FORMAT=2:5
INCH,LZ
;TYPE=PLATED
T1F00S00C0.03150
T2F00S00C0.03346
T3F00S00C0.04016
T4F00S00C0.04685
T5F00S00C0.06299
T6F00S00C0.11811
%
T01
X0283465Y0023622
X0291339
X0299213
T02
X0242126Y0037795
Y0076378
X0362205Y0193307
Y023189
T03
X028937Y0061024
X029937
X0314961Y0096457
X0324961
X0321772Y0230315
X0331772
T04
X022441Y0199567
Y0209567
X0275591Y021063
Y020063
X0173228Y0200472
Y0210472
X0122047Y0212441
Y0202441
X0074803
Y0212441
X0025591
Y0202441
Y0222441
Y0232441
X0074803
Y0222441
X0122047
Y0232441
X0173228Y0230472
Y0220472
X022441Y0219567
Y0229567
X0275591Y023063
Y022063
T05
X0031496Y0046024
X0125984Y0036929
X0225158Y015748
X0255158
X0125984Y0152796
Y0122796
X0125984Y0066929
X0058307Y0129921
X0028307
X0031496Y0076024
T06
X0017717Y0015748
X0366142
X0019685Y0265748
X036811Y0263779
M30
