G04*
G04 #@! TF.GenerationSoftware,Altium Limited,Altium Designer,22.1.2 (22)*
G04*
G04 Layer_Color=32768*
%FSLAX25Y25*%
%MOIN*%
G70*
G04*
G04 #@! TF.SameCoordinates,D2A74ED6-6853-450D-875C-18D0DEDCCFCE*
G04*
G04*
G04 #@! TF.FilePolarity,Positive*
G04*
G01*
G75*
%ADD38C,0.00591*%
D38*
X232286Y138780D02*
Y144684D01*
X235238D01*
X236222Y143700D01*
Y141732D01*
X235238Y140748D01*
X232286D01*
X242125Y138780D02*
X238190D01*
X242125Y142716D01*
Y143700D01*
X241141Y144684D01*
X239174D01*
X238190Y143700D01*
X248029Y144684D02*
X246061Y143700D01*
X244093Y141732D01*
Y139764D01*
X245077Y138780D01*
X247045D01*
X248029Y139764D01*
Y140748D01*
X247045Y141732D01*
X244093D01*
X144684Y44057D02*
X138780D01*
Y47009D01*
X139764Y47993D01*
X141732D01*
X142716Y47009D01*
Y44057D01*
X139764Y49961D02*
X138780Y50945D01*
Y52913D01*
X139764Y53896D01*
X140748D01*
X141732Y52913D01*
Y51929D01*
Y52913D01*
X142716Y53896D01*
X143700D01*
X144684Y52913D01*
Y50945D01*
X143700Y49961D01*
X144684Y59800D02*
Y55864D01*
X140748Y59800D01*
X139764D01*
X138780Y58816D01*
Y56848D01*
X139764Y55864D01*
X50195Y148621D02*
Y142718D01*
X47243D01*
X46259Y143701D01*
Y145669D01*
X47243Y146653D01*
X50195D01*
X44291Y143701D02*
X43307Y142718D01*
X41339D01*
X40355Y143701D01*
Y144685D01*
X41339Y145669D01*
X42323D01*
X41339D01*
X40355Y146653D01*
Y147637D01*
X41339Y148621D01*
X43307D01*
X44291Y147637D01*
X38387Y148621D02*
X36419D01*
X37404D01*
Y142718D01*
X38387Y143701D01*
X50196Y53152D02*
X44292D01*
Y56104D01*
X45276Y57088D01*
X47244D01*
X48228Y56104D01*
Y53152D01*
X45276Y59056D02*
X44292Y60040D01*
Y62008D01*
X45276Y62991D01*
X46260D01*
X47244Y62008D01*
Y61024D01*
Y62008D01*
X48228Y62991D01*
X49212D01*
X50196Y62008D01*
Y60040D01*
X49212Y59056D01*
X45276Y64959D02*
X44292Y65943D01*
Y67911D01*
X45276Y68895D01*
X49212D01*
X50196Y67911D01*
Y65943D01*
X49212Y64959D01*
X45276D01*
X144684Y129924D02*
X138780D01*
Y132876D01*
X139764Y133860D01*
X141732D01*
X142716Y132876D01*
Y129924D01*
X144684Y139763D02*
Y135827D01*
X140748Y139763D01*
X139764D01*
X138780Y138779D01*
Y136811D01*
X139764Y135827D01*
X138780Y145667D02*
Y141731D01*
X141732D01*
X140748Y143699D01*
Y144683D01*
X141732Y145667D01*
X143700D01*
X144684Y144683D01*
Y142715D01*
X143700Y141731D01*
M02*
