G04*
G04 #@! TF.GenerationSoftware,Altium Limited,Altium Designer,22.1.2 (22)*
G04*
G04 Layer_Physical_Order=2*
G04 Layer_Color=16711680*
%FSLAX25Y25*%
%MOIN*%
G70*
G04*
G04 #@! TF.SameCoordinates,D2A74ED6-6853-450D-875C-18D0DEDCCFCE*
G04*
G04*
G04 #@! TF.FilePolarity,Positive*
G04*
G01*
G75*
%ADD19C,0.06181*%
%ADD20R,0.06181X0.06181*%
%ADD25C,0.00800*%
%ADD26C,0.02953*%
%ADD27C,0.03937*%
G04:AMPARAMS|DCode=28|XSize=94.49mil|YSize=94.49mil|CornerRadius=23.62mil|HoleSize=0mil|Usage=FLASHONLY|Rotation=0.000|XOffset=0mil|YOffset=0mil|HoleType=Round|Shape=RoundedRectangle|*
%AMROUNDEDRECTD28*
21,1,0.09449,0.04724,0,0,0.0*
21,1,0.04724,0.09449,0,0,0.0*
1,1,0.04724,0.02362,-0.02362*
1,1,0.04724,-0.02362,-0.02362*
1,1,0.04724,-0.02362,0.02362*
1,1,0.04724,0.02362,0.02362*
%
%ADD28ROUNDEDRECTD28*%
%ADD29C,0.09449*%
G04:AMPARAMS|DCode=30|XSize=94.49mil|YSize=94.49mil|CornerRadius=23.62mil|HoleSize=0mil|Usage=FLASHONLY|Rotation=90.000|XOffset=0mil|YOffset=0mil|HoleType=Round|Shape=RoundedRectangle|*
%AMROUNDEDRECTD30*
21,1,0.09449,0.04724,0,0,90.0*
21,1,0.04724,0.09449,0,0,90.0*
1,1,0.04724,0.02362,0.02362*
1,1,0.04724,0.02362,-0.02362*
1,1,0.04724,-0.02362,-0.02362*
1,1,0.04724,-0.02362,0.02362*
%
%ADD30ROUNDEDRECTD30*%
%ADD31R,0.06693X0.06693*%
%ADD32C,0.06693*%
%ADD33C,0.05315*%
%ADD34C,0.05118*%
%ADD35R,0.05118X0.05118*%
%ADD36C,0.12874*%
%ADD37C,0.11811*%
D19*
X331772Y230315D02*
D03*
X289370Y61024D02*
D03*
X314961Y96457D02*
D03*
D20*
X321772Y230315D02*
D03*
X299370Y61024D02*
D03*
X324961Y96457D02*
D03*
D25*
X375947Y263779D02*
G03*
X375947Y263779I-7837J0D01*
G01*
X366262Y231890D02*
G03*
X366262Y231890I-4058J0D01*
G01*
Y193307D02*
G03*
X366262Y193307I-4058J0D01*
G01*
X336262Y230315D02*
G03*
X336262Y230315I-4491J0D01*
G01*
X280337Y220630D02*
G03*
X280337Y220630I-4747J0D01*
G01*
X239589Y210630D02*
G03*
X238602Y213012I-3368J0D01*
G01*
X280337Y210630D02*
G03*
X280337Y210630I-4747J0D01*
G01*
X281496Y101302D02*
G03*
X279462Y100459I0J-2876D01*
G01*
X298645D02*
G03*
X296611Y101302I-2034J-2034D01*
G01*
X298645Y100459D02*
G03*
X296611Y101302I-2034J-2034D01*
G01*
X281496D02*
G03*
X279462Y100459I0J-2876D01*
G01*
X280337Y200630D02*
G03*
X280337Y200630I-4747J0D01*
G01*
X238602Y176752D02*
G03*
X239589Y179134I-2382J2382D01*
G01*
Y210630D02*
G03*
X238602Y213012I-3368J0D01*
G01*
Y176752D02*
G03*
X239589Y179134I-2382J2382D01*
G01*
X257346Y151760D02*
G03*
X261282Y157480I-2188J5720D01*
G01*
D02*
G03*
X252970Y151760I-6124J0D01*
G01*
X326994Y84580D02*
G03*
X327837Y86614I-2034J2034D01*
G01*
X311512Y93580D02*
G03*
X319451Y96457I3448J2876D01*
G01*
D02*
G03*
X311512Y99333I-4491J0D01*
G01*
X326994Y84580D02*
G03*
X327837Y86614I-2034J2034D01*
G01*
X373979Y15748D02*
G03*
X373979Y15748I-7837J0D01*
G01*
X296545Y94423D02*
G03*
X298579Y93580I2034J2034D01*
G01*
X296545Y94423D02*
G03*
X298579Y93580I2034J2034D01*
G01*
X293861Y61024D02*
G03*
X284898Y60619I-4491J0D01*
G01*
X288966Y56551D02*
G03*
X293861Y61024I404J4472D01*
G01*
X281431Y57152D02*
G03*
X280588Y55118I2034J-2034D01*
G01*
X281431Y57152D02*
G03*
X280588Y55118I2034J-2034D01*
G01*
X259449Y73502D02*
G03*
X261483Y74344I0J2876D01*
G01*
X259449Y73502D02*
G03*
X261483Y74344I0J2876D01*
G01*
X244988Y79254D02*
G03*
X244988Y73502I-2862J-2876D01*
G01*
X287402Y24039D02*
G03*
X286341Y26342I-3937J-417D01*
G01*
X294059Y26498D02*
G03*
X287402Y24039I-2720J-2876D01*
G01*
X280744Y20746D02*
G03*
X287402Y23205I2720J2876D01*
G01*
D02*
G03*
X294059Y20746I3937J417D01*
G01*
X246183Y37806D02*
G03*
X242116Y33738I-4058J-10D01*
G01*
X254265Y21588D02*
G03*
X256299Y20746I2034J2034D01*
G01*
X254265Y21588D02*
G03*
X256299Y20746I2034J2034D01*
G01*
X234631Y216984D02*
G03*
X232249Y217970I-2382J-2382D01*
G01*
X234631Y216984D02*
G03*
X232249Y217970I-2382J-2382D01*
G01*
X229156Y219584D02*
G03*
X227778Y222911I-4746J-17D01*
G01*
X221041D02*
G03*
X221041Y216223I3368J-3344D01*
G01*
Y212911D02*
G03*
X229156Y209567I3368J-3344D01*
G01*
Y199567D02*
G03*
X229156Y199567I-4747J0D01*
G01*
X177975Y210472D02*
G03*
X177975Y210472I-4747J0D01*
G01*
Y220472D02*
G03*
X177975Y220472I-4747J0D01*
G01*
X126794Y212441D02*
G03*
X126794Y212441I-4747J0D01*
G01*
X177975Y200472D02*
G03*
X177975Y200472I-4747J0D01*
G01*
X126794Y202441D02*
G03*
X126794Y202441I-4747J0D01*
G01*
X27522Y265748D02*
G03*
X27522Y265748I-7837J0D01*
G01*
X126794Y222441D02*
G03*
X126794Y222441I-4747J0D01*
G01*
X79550D02*
G03*
X79550Y222441I-4747J0D01*
G01*
Y212441D02*
G03*
X79550Y212441I-4747J0D01*
G01*
Y202441D02*
G03*
X79550Y202441I-4747J0D01*
G01*
X30337D02*
G03*
X30337Y202441I-4747J0D01*
G01*
Y222441D02*
G03*
X30337Y222441I-4747J0D01*
G01*
Y212441D02*
G03*
X30337Y212441I-4747J0D01*
G01*
X222776Y170453D02*
G03*
X221790Y168071I2382J-2382D01*
G01*
X222776Y170453D02*
G03*
X221790Y168071I2382J-2382D01*
G01*
X231282Y159843D02*
G03*
X228526Y163468I-3762J0D01*
G01*
X221790D02*
G03*
X219034Y159843I1006J-3625D01*
G01*
X229217Y151760D02*
G03*
X231282Y155118I-1696J3358D01*
G01*
X219034D02*
G03*
X221099Y151760I3762J0D01*
G01*
X375759Y277559D02*
X377953Y275365D01*
X371861Y277559D02*
X377953Y271468D01*
X371854Y270664D02*
X377953Y276763D01*
X367964Y277559D02*
X377953Y267570D01*
X375626Y265999D02*
X377953Y263673D01*
X375911Y263029D02*
X377953Y265071D01*
X374017Y268930D02*
X377953Y272865D01*
X375467Y266482D02*
X377953Y268968D01*
X356272Y277559D02*
X363625Y270206D01*
X352374Y277559D02*
X361677Y268256D01*
X348477Y277559D02*
X360478Y265558D01*
X344579Y277559D02*
X360601Y261537D01*
X368872Y271579D02*
X374851Y277559D01*
X364066D02*
X370330Y271296D01*
X360169Y277559D02*
X366319Y271409D01*
X363544Y270148D02*
X370954Y277559D01*
X369889Y256147D02*
X377953Y248083D01*
X365868Y256270D02*
X377953Y244185D01*
X340682Y277559D02*
X377953Y240288D01*
X336784Y277559D02*
X377953Y236391D01*
X365911Y233541D02*
X377953Y245583D01*
X366209Y232544D02*
X377953Y220801D01*
X364000Y235528D02*
X377953Y249481D01*
X336114Y231460D02*
X377953Y189621D01*
X375740Y261988D02*
X377953Y259775D01*
X374537Y259294D02*
X377953Y255878D01*
X334811Y233621D02*
X361225Y260035D01*
X372586Y257347D02*
X377953Y251980D01*
X336192Y231105D02*
X362960Y257873D01*
X328989Y277559D02*
X377953Y228596D01*
X325092Y277559D02*
X377953Y224698D01*
X309502Y277559D02*
X377953Y209108D01*
X305605Y277559D02*
X377953Y205211D01*
X301707Y277559D02*
X377953Y201313D01*
X297810Y277559D02*
X377953Y197416D01*
X293912Y277559D02*
X377953Y193519D01*
X262733Y277559D02*
X377953Y162339D01*
X321195Y277559D02*
X362859Y235894D01*
X324303Y234805D02*
X367057Y277559D01*
X317297D02*
X359742Y235114D01*
X320406Y234805D02*
X363159Y277559D01*
X332087Y234794D02*
X360310Y263018D01*
X332887Y277559D02*
X377953Y232493D01*
X326262Y232867D02*
X361741Y268346D01*
X268540Y151760D02*
X377953Y261173D01*
X272437Y151760D02*
X377953Y257276D01*
X254938Y277559D02*
X377953Y154544D01*
X251040Y277559D02*
X377953Y150647D01*
X291925Y151760D02*
X377953Y237788D01*
X295822Y151760D02*
X377953Y233891D01*
X276335Y151760D02*
X377953Y253378D01*
X288027Y151760D02*
X377953Y241686D01*
X258835Y277559D02*
X377953Y158442D01*
X247143Y277559D02*
X372942Y151760D01*
X239348Y277559D02*
X365147Y151760D01*
X243246Y277559D02*
X369044Y151760D01*
X264642D02*
X368861Y255978D01*
X280337Y232673D02*
X361249Y151760D01*
X260745D02*
X365408Y256423D01*
X373447Y143641D02*
X377953Y148147D01*
X373447Y147357D02*
X377953Y142852D01*
X373447Y147539D02*
X377953Y152044D01*
X373447Y151255D02*
X377953Y146749D01*
X373447Y135847D02*
X377953Y140352D01*
X373447Y139562D02*
X377953Y135057D01*
X373447Y139744D02*
X377953Y144249D01*
X373447Y143460D02*
X377953Y138954D01*
X366023Y194679D02*
X377953Y206609D01*
X366256Y193523D02*
X377953Y181826D01*
X365429Y229427D02*
X377953Y216903D01*
X365253Y190629D02*
X377953Y177929D01*
X369873Y151760D02*
X377953Y159839D01*
X373447Y151436D02*
X377953Y155942D01*
X365976Y151760D02*
X377953Y163737D01*
X373447Y116359D02*
X377953Y120865D01*
X373447Y120075D02*
X377953Y115570D01*
X373447Y120257D02*
X377953Y124762D01*
X373447Y123973D02*
X377953Y119467D01*
X373447Y116178D02*
X377953Y111672D01*
X372954Y112773D02*
X377953Y107775D01*
X369057Y112773D02*
X377953Y103877D01*
X365159Y112773D02*
X377953Y99980D01*
X373447Y135665D02*
X377953Y131159D01*
X373447Y128052D02*
X377953Y132557D01*
X373447Y131949D02*
X377953Y136455D01*
X373447Y112773D02*
Y151760D01*
Y124154D02*
X377953Y128660D01*
X373447Y127870D02*
X377953Y123364D01*
X373447Y131767D02*
X377953Y127262D01*
X335641Y228036D02*
X377953Y185724D01*
X322262Y225824D02*
X377953Y170134D01*
X299719Y151760D02*
X377953Y229993D01*
X303617Y151760D02*
X377953Y226096D01*
X364255Y196808D02*
X377953Y210506D01*
X362704Y189280D02*
X377953Y174031D01*
X360570Y197020D02*
X377953Y214404D01*
X318365Y225824D02*
X377953Y166236D01*
X363039Y227919D02*
X377953Y213006D01*
X329345Y226536D02*
X359526Y196355D01*
X280232Y151760D02*
X358566Y230094D01*
X284130Y151760D02*
X360553Y228184D01*
X333576Y226203D02*
X362420Y197359D01*
X257346Y151760D02*
X373447D01*
X342591D02*
X377953Y187121D01*
X346489Y151760D02*
X377953Y183224D01*
X334797Y151760D02*
X377953Y194916D01*
X338694Y151760D02*
X377953Y191019D01*
X358181Y151760D02*
X377953Y171532D01*
X362079Y151760D02*
X377953Y167634D01*
X350386Y151760D02*
X377953Y179327D01*
X354284Y151760D02*
X377953Y175429D01*
X327002Y151760D02*
X377953Y202711D01*
X330899Y151760D02*
X377953Y198814D01*
X307514Y151760D02*
X377953Y222199D01*
X311412Y151760D02*
X377953Y218301D01*
X319207Y151760D02*
X358703Y191257D01*
X323104Y151760D02*
X360833Y189489D01*
X315309Y151760D02*
X358491Y194942D01*
X290015Y277559D02*
X332917Y234657D01*
X286117Y277559D02*
X329492Y234184D01*
X280337Y229814D02*
X328082Y277559D01*
X280337Y225917D02*
X331980Y277559D01*
X326262Y233517D02*
X327660Y232119D01*
X326262Y229619D02*
X327993Y227888D01*
X313400Y277559D02*
X358234Y232725D01*
X317281Y225824D02*
X326262D01*
X278323Y277559D02*
X321076Y234805D01*
X280337Y233711D02*
X324185Y277559D01*
X278105Y235376D02*
X320287Y277559D01*
X274425D02*
X317281Y234703D01*
Y234805D02*
X326262D01*
X317281Y225824D02*
Y234805D01*
X282220Y277559D02*
X324974Y234805D01*
X280337Y225884D02*
Y235376D01*
X280327Y210316D02*
X347569Y277559D01*
X280337Y228775D02*
X357352Y151760D01*
X278379Y204471D02*
X351467Y277559D01*
X280053Y202248D02*
X355364Y277559D01*
X326160Y225824D02*
X358178Y193806D01*
X280323Y220994D02*
X349557Y151760D01*
X279331Y225884D02*
X353455Y151760D01*
X279492Y217927D02*
X345660Y151760D01*
X326262Y225824D02*
Y234805D01*
X280175Y221858D02*
X335877Y277559D01*
X277281Y215065D02*
X339774Y277559D01*
X279473Y213360D02*
X343672Y277559D01*
X278666Y224245D02*
X280304Y225884D01*
X277315Y216208D02*
X341762Y151760D01*
X274207Y235376D02*
X316390Y277559D01*
X239247Y212109D02*
X304697Y277559D01*
X235479Y216135D02*
X296902Y277559D01*
X237428Y214187D02*
X300800Y277559D01*
X270844Y225884D02*
X280337D01*
X270528Y277559D02*
X317281Y230806D01*
X266630Y277559D02*
X317281Y226908D01*
X270844Y235376D02*
X280337D01*
X270844Y225884D02*
Y235376D01*
X235451Y277559D02*
X277633Y235376D01*
X234631Y216984D02*
X238602Y213012D01*
X272917Y216708D02*
X274400Y215225D01*
X272752Y214434D02*
X274363Y216045D01*
X239589Y204656D02*
X312492Y277559D01*
X252491Y162994D02*
X317281Y227783D01*
X239589Y208553D02*
X308595Y277559D01*
X237360Y151760D02*
X317281Y231681D01*
X260873Y159683D02*
X328466Y227276D01*
X261105Y156018D02*
X330982Y225894D01*
X256781Y163386D02*
X319219Y225824D01*
X259292Y161999D02*
X323117Y225824D01*
X239589Y192963D02*
X272509Y225884D01*
X239589Y189066D02*
X270854Y220331D01*
X239589Y200758D02*
X270844Y232013D01*
X239589Y196861D02*
X270844Y228116D01*
X239589Y181271D02*
X271786Y213468D01*
X239589Y185168D02*
X271975Y217555D01*
X280239Y201591D02*
X330070Y151760D01*
X310595Y112773D02*
X322421Y100947D01*
X279692Y198241D02*
X326172Y151760D01*
X280185Y209440D02*
X337865Y151760D01*
X322958Y100947D02*
X334784Y112773D01*
X326856Y100947D02*
X338682Y112773D01*
X314493D02*
X326319Y100947D01*
X320470D02*
X329451D01*
X284338Y101302D02*
X295810Y112773D01*
X288235Y101302D02*
X299707Y112773D01*
X279415D02*
X290887Y101302D01*
X283313Y112773D02*
X294784Y101302D01*
X292133D02*
X303605Y112773D01*
X296030Y101302D02*
X307502Y112773D01*
X281496Y101302D02*
X296611D01*
X302800Y112773D02*
X314638Y100936D01*
X305754Y99333D02*
X319194Y112773D01*
X298903D02*
X311917Y99759D01*
X301857Y99333D02*
X315297Y112773D01*
X317935Y99821D02*
X330887Y112773D01*
X329451Y99645D02*
X342579Y112773D01*
X315159Y100943D02*
X326989Y112773D01*
X299771Y99333D02*
X311512D01*
X298865Y100239D02*
X311399Y112773D01*
X291108D02*
X304548Y99333D01*
X280051Y100912D02*
X291912Y112773D01*
X239589Y203267D02*
X291095Y151760D01*
X239557Y211093D02*
X298890Y151760D01*
X239589Y207164D02*
X294993Y151760D01*
X239589Y179882D02*
X255913Y163558D01*
X239589Y191574D02*
X279403Y151760D01*
X239589Y199369D02*
X287198Y151760D01*
X239589Y195472D02*
X283300Y151760D01*
X239589Y179134D02*
Y210630D01*
X238709Y176864D02*
X252551Y163022D01*
X236763Y174913D02*
X250373Y161303D01*
X234814Y172964D02*
X249143Y158635D01*
X277671Y196364D02*
X322275Y151760D01*
X278691Y207036D02*
X333967Y151760D01*
X239589Y187677D02*
X275506Y151760D01*
X273968Y196169D02*
X318378Y151760D01*
X271620Y112773D02*
X283092Y101302D01*
X275518Y112773D02*
X286990Y101302D01*
X239589Y183779D02*
X271608Y151760D01*
X267723Y112773D02*
X279770Y100726D01*
X261236Y158235D02*
X267711Y151760D01*
X241258D02*
X249645Y160147D01*
X249053Y151760D02*
X250639Y153347D01*
X260700Y154874D02*
X263813Y151760D01*
X245155D02*
X249253Y155858D01*
X361262Y112773D02*
X377953Y96082D01*
X329451Y95748D02*
X346477Y112773D01*
X327837Y90236D02*
X350374Y112773D01*
X327822Y86324D02*
X354271Y112773D01*
X357364D02*
X377953Y92185D01*
X353467Y112773D02*
X377953Y88288D01*
X329451Y91966D02*
Y100947D01*
X320470Y91966D02*
Y100947D01*
X310301Y93580D02*
X319080Y84801D01*
X322084Y87806D02*
Y91966D01*
X327837Y86614D02*
Y91966D01*
X318263Y93413D02*
X322084Y89592D01*
X315743Y92035D02*
X321028Y86750D01*
X326185Y112773D02*
X377953Y61005D01*
X377953Y277559D02*
X377953Y5906D01*
X322287Y112773D02*
X377953Y57108D01*
X318390Y112773D02*
X377953Y53210D01*
X329451Y97815D02*
X377953Y49313D01*
X329451Y93917D02*
X377953Y45415D01*
X327837Y91634D02*
X377953Y41518D01*
X327837Y87736D02*
X377953Y37621D01*
X349570Y112773D02*
X377953Y84390D01*
X345672Y112773D02*
X377953Y80493D01*
X341775Y112773D02*
X377953Y76595D01*
X337877Y112773D02*
X377953Y72698D01*
X333980Y112773D02*
X377953Y68800D01*
X330082Y112773D02*
X377953Y64903D01*
X309652Y99333D02*
X323092Y112773D01*
X306698D02*
X320470Y99001D01*
X302506Y93580D02*
X315182Y80904D01*
X291083Y65175D02*
X320470Y94562D01*
X306403Y93580D02*
X317131Y82853D01*
X299793Y65514D02*
X322084Y87806D01*
X295320Y65514D02*
X321772Y91966D01*
X299217Y65514D02*
X322084Y88381D01*
X295005Y112773D02*
X308445Y99333D01*
X292742Y95549D02*
X311285Y77006D01*
X288845Y95549D02*
X309336Y75058D01*
X284948Y95549D02*
X307388Y73109D01*
X298579Y93580D02*
X311512D01*
X298608D02*
X313234Y78955D01*
X281869Y94730D02*
X305439Y71160D01*
X302246Y33466D02*
X377953Y109172D01*
X302246Y29569D02*
X377953Y105275D01*
X302246Y41261D02*
X377953Y116967D01*
X302246Y37364D02*
X377953Y113070D01*
X303172Y26597D02*
X377953Y101378D01*
X303172Y22699D02*
X377953Y97480D01*
X290276Y5906D02*
X377953Y93583D01*
X294173Y5906D02*
X377953Y89685D01*
X303861Y58465D02*
X358169Y112773D01*
X302246Y45158D02*
X369861Y112773D01*
X302246Y52953D02*
X362066Y112773D01*
X302246Y49056D02*
X365964Y112773D01*
X286421Y64410D02*
X314067Y92056D01*
X251051Y32938D02*
X311596Y93483D01*
X249102Y34887D02*
X307796Y93580D01*
X373349Y18825D02*
X377953Y23429D01*
X329250Y5906D02*
X377953Y54608D01*
X321455Y5906D02*
X377953Y62403D01*
X325353Y5906D02*
X377953Y58506D01*
X373976Y15555D02*
X377953Y19531D01*
X373866Y14425D02*
X377953Y10339D01*
X373339Y18850D02*
X377953Y14236D01*
X372792Y11602D02*
X377953Y6441D01*
X327045Y84631D02*
X377953Y33723D01*
X366412Y23580D02*
X377953Y35121D01*
X325096Y82682D02*
X377953Y29826D01*
X323148Y80733D02*
X377953Y25928D01*
X369539Y22810D02*
X377953Y31223D01*
X371799Y21172D02*
X377953Y27326D01*
X340943Y5906D02*
X377953Y42916D01*
X344840Y5906D02*
X377953Y39018D01*
X333148Y5906D02*
X377953Y50711D01*
X337045Y5906D02*
X377953Y46813D01*
X372122Y5906D02*
X377953Y11736D01*
X376020Y5906D02*
X377953Y7839D01*
X368225Y5906D02*
X377953Y15634D01*
X370943Y9554D02*
X374591Y5906D01*
X356532D02*
X360718Y10091D01*
X360430Y5906D02*
X363065Y8540D01*
X348737Y5906D02*
X358309Y15477D01*
X352635Y5906D02*
X359080Y12350D01*
X364647Y8055D02*
X366796Y5906D01*
X368366Y8233D02*
X370694Y5906D01*
X364327D02*
X366335Y7913D01*
X321199Y78785D02*
X377953Y22031D01*
X319250Y76836D02*
X377953Y18133D01*
X298071Y5906D02*
X377953Y85788D01*
X301968Y5906D02*
X377953Y81890D01*
X315353Y72939D02*
X364819Y23473D01*
X317302Y74887D02*
X369244Y22945D01*
X313404Y70990D02*
X361995Y22398D01*
X311455Y69041D02*
X359948Y20549D01*
X309507Y67093D02*
X358627Y17972D01*
X307558Y65144D02*
X358449Y14253D01*
X303861Y61446D02*
X326994Y84580D01*
X302246Y54866D02*
X351206Y5906D01*
X298475Y19663D02*
X312232Y5906D01*
X302246Y50968D02*
X347309Y5906D01*
X293755Y20486D02*
X308335Y5906D01*
X313660D02*
X377953Y70198D01*
X317558Y5906D02*
X377953Y66300D01*
X305865Y5906D02*
X377953Y77993D01*
X309763Y5906D02*
X377953Y74095D01*
X303861Y57149D02*
X355104Y5906D01*
X305609Y63195D02*
X362899Y5906D01*
X302246Y47071D02*
X343412Y5906D01*
X303861Y61046D02*
X359001Y5906D01*
X302246Y35378D02*
X331719Y5906D01*
X302246Y31481D02*
X327822Y5906D01*
X302246Y43173D02*
X339514Y5906D01*
X302246Y39276D02*
X335617Y5906D01*
X303172Y26658D02*
X323924Y5906D01*
X303172Y22761D02*
X320027Y5906D01*
X302372Y19663D02*
X316129Y5906D01*
X287210Y112773D02*
X300651Y99333D01*
X279920Y92782D02*
X303490Y69212D01*
X277972Y90833D02*
X301541Y67263D01*
X294880Y65514D02*
X299793D01*
X274074Y86935D02*
X295495Y65514D01*
X276023Y88884D02*
X299393Y65514D01*
X282687Y95549D02*
X295419D01*
X272125Y84987D02*
X294880Y62233D01*
X263826Y112773D02*
X277801Y98798D01*
X270177Y83038D02*
X287936Y65279D01*
X293190Y63384D02*
X294880Y65074D01*
X268228Y81089D02*
X285702Y63615D01*
X266279Y79141D02*
X284849Y60571D01*
X294880Y56533D02*
Y65514D01*
X303861Y56533D02*
Y61446D01*
X291961Y57356D02*
X296494Y52824D01*
Y27581D02*
Y56533D01*
X302246Y27581D02*
Y56533D01*
X288917Y56503D02*
X296494Y48926D01*
X286341Y48740D02*
X294880Y57279D01*
X281431Y57152D02*
X284898Y60619D01*
X264331Y77192D02*
X282900Y58622D01*
X286341Y53927D02*
X288966Y56551D01*
X286341Y52638D02*
X290343Y56640D01*
X280588Y26498D02*
Y55118D01*
X259929Y112773D02*
X275852Y96849D01*
X256031Y112773D02*
X273904Y94901D01*
X243677Y80128D02*
X276322Y112773D01*
X246701Y79254D02*
X280220Y112773D01*
X258257Y79254D02*
X279462Y100459D01*
X261483Y74344D02*
X282687Y95549D01*
X250598Y79254D02*
X284117Y112773D01*
X254496Y79254D02*
X288015Y112773D01*
X248236D02*
X270006Y91003D01*
X244339Y112773D02*
X268057Y89055D01*
X240441Y112773D02*
X266109Y87106D01*
X236544Y112773D02*
X264160Y85157D01*
X252134Y112773D02*
X271955Y92952D01*
X244988Y73502D02*
X259449D01*
X244988Y79254D02*
X258257D01*
X245843Y39422D02*
X300001Y93580D01*
X247154Y36835D02*
X303899Y93580D01*
X243946Y41422D02*
X296756Y94232D01*
X239584Y40958D02*
X294175Y95549D01*
X262382Y75243D02*
X281009Y56616D01*
X253000Y30989D02*
X285984Y63973D01*
X244806Y73332D02*
X280588Y37549D01*
X241914Y72326D02*
X280588Y33652D01*
X260141Y73586D02*
X280588Y53139D01*
X256328Y73502D02*
X280588Y49242D01*
X252431Y73502D02*
X280588Y45344D01*
X248533Y73502D02*
X280588Y41447D01*
X286341Y37048D02*
X296494Y47201D01*
X286341Y43489D02*
X296494Y33336D01*
X286341Y40945D02*
X296494Y51098D01*
X286341Y47386D02*
X296494Y37234D01*
X286341Y29253D02*
X296494Y39406D01*
X292336Y27453D02*
X296494Y31611D01*
X286341Y33151D02*
X296494Y43303D01*
X286341Y39592D02*
X296494Y29439D01*
X286968Y54554D02*
X296494Y45029D01*
X286341Y51284D02*
X296494Y41131D01*
X286341Y44843D02*
X296494Y54996D01*
X286341Y26342D02*
Y53927D01*
Y31797D02*
X290622Y27516D01*
X286341Y35694D02*
X295253Y26781D01*
X275792Y26498D02*
X280588Y31295D01*
X303172Y19663D02*
Y27581D01*
X290613Y19730D02*
X304437Y5906D01*
X286776Y25791D02*
X296494Y35508D01*
X285925Y20520D02*
X300540Y5906D01*
X295253Y19663D02*
X303172D01*
X286378Y5906D02*
X300136Y19663D01*
X282481Y5906D02*
X296238Y19663D01*
X282834Y19714D02*
X296642Y5906D01*
X286341Y27899D02*
X288202Y26038D01*
X278583Y5906D02*
X292522Y19844D01*
X277905Y20746D02*
X292745Y5906D01*
X260202Y26498D02*
X280588Y46885D01*
X264099Y26498D02*
X280588Y42987D01*
X254949Y29040D02*
X280588Y54680D01*
X256897Y27092D02*
X280588Y50782D01*
X267997Y26498D02*
X280588Y39090D01*
X271894Y26498D02*
X280588Y35193D01*
X257491Y26498D02*
X280588D01*
X256299Y20746D02*
X280744D01*
X246183Y37806D02*
X257491Y26498D01*
X242116Y33738D02*
X254265Y21588D01*
X235711Y5906D02*
X252830Y23024D01*
X239609Y5906D02*
X254844Y21141D01*
X266212Y20746D02*
X281052Y5906D01*
X270110Y20746D02*
X284950Y5906D01*
X262315Y20746D02*
X277155Y5906D01*
X262994D02*
X277834Y20746D01*
X274007D02*
X288847Y5906D01*
X274686D02*
X289122Y20342D01*
X266891Y5906D02*
X281295Y20310D01*
X270788Y5906D02*
X284766Y19883D01*
X247404Y5906D02*
X262244Y20746D01*
X251301Y5906D02*
X266141Y20746D01*
X241475Y33790D02*
X269360Y5906D01*
X243506D02*
X258346Y20746D01*
X258417D02*
X273257Y5906D01*
X259096D02*
X273936Y20746D01*
X255199Y5906D02*
X270039Y20746D01*
X231553Y277559D02*
X273736Y235376D01*
X229156Y233197D02*
X273518Y277559D01*
X215963D02*
X271168Y222354D01*
X177949Y220965D02*
X234543Y277559D01*
X229156Y229300D02*
X277415Y277559D01*
X229156Y225402D02*
X281313Y277559D01*
X229156Y229300D02*
X277415Y277559D01*
X228862Y221211D02*
X285210Y277559D01*
X176989Y277559D02*
X220234Y234313D01*
X173091Y277559D02*
X219663Y230987D01*
X169194Y277559D02*
X219663Y227090D01*
X161399Y277559D02*
X219671Y219287D01*
X180886Y277559D02*
X224132Y234313D01*
X184784Y277559D02*
X228029Y234313D01*
X176746Y223659D02*
X230646Y277559D01*
X165296Y277559D02*
X220540Y222316D01*
X212066Y277559D02*
X271669Y217956D01*
X204271Y277559D02*
X270857Y210974D01*
X196476Y277559D02*
X271324Y202711D01*
X192579Y277559D02*
X271130Y199008D01*
X230144Y218596D02*
X289108Y277559D01*
X233261Y217815D02*
X293005Y277559D01*
X208168D02*
X271997Y213731D01*
X200374Y277559D02*
X273201Y204731D01*
X153604Y277559D02*
X219956Y211208D01*
X149707Y277559D02*
X220976Y206290D01*
X145809Y277559D02*
X220763Y202605D01*
X141912Y277559D02*
X219669Y199802D01*
X175514Y214632D02*
X238441Y277559D01*
X177440Y212661D02*
X242338Y277559D01*
X157501Y277559D02*
X221041Y214020D01*
X130219Y277559D02*
X172560Y235219D01*
X126794Y232169D02*
X172184Y277559D01*
X126322D02*
X168662Y235219D01*
X114630Y277559D02*
X169202Y222986D01*
X134117Y277559D02*
X176457Y235219D01*
X126794Y228271D02*
X176082Y277559D01*
X7874D02*
X377953Y277559D01*
X126501Y224081D02*
X179979Y277559D01*
X120120Y237187D02*
X160492Y277559D01*
X124018Y237187D02*
X164389Y277559D01*
X79550Y227797D02*
X129312Y277559D01*
X79373Y223723D02*
X133210Y277559D01*
X126794Y236066D02*
X168287Y277559D01*
X122424D02*
X168482Y231502D01*
X118527Y277559D02*
X168482Y227604D01*
X110732Y277559D02*
X168536Y219755D01*
X106835Y277559D02*
X170237Y214157D01*
X102938Y277559D02*
X168677Y211820D01*
X95143Y277559D02*
X169410Y203292D01*
X125694Y215479D02*
X187774Y277559D01*
X126788Y212676D02*
X191671Y277559D01*
X125471Y219153D02*
X183877Y277559D01*
X99040D02*
X171650Y204949D01*
X78657Y215212D02*
X141005Y277559D01*
X79544Y212201D02*
X144902Y277559D01*
X76443Y216895D02*
X137107Y277559D01*
X77551Y206311D02*
X148800Y277559D01*
X79247Y204109D02*
X152697Y277559D01*
X91245D02*
X168484Y200320D01*
X78503Y199468D02*
X156594Y277559D01*
X227656Y277559D02*
X270844Y234371D01*
X226375Y234313D02*
X269620Y277559D01*
X222477Y234313D02*
X265723Y277559D01*
X223758D02*
X270844Y230473D01*
X219861Y277559D02*
X270844Y226576D01*
X228105Y222545D02*
X232712Y217938D01*
X219663Y234313D02*
X229156D01*
Y224820D02*
Y234313D01*
X177975Y225726D02*
Y235219D01*
X219663Y224820D02*
Y234313D01*
X229156Y219584D02*
X230770Y217970D01*
X229150Y209808D02*
X232852Y206106D01*
X228711Y201573D02*
X232852Y205714D01*
X228264Y206797D02*
X232852Y202209D01*
X226050Y205113D02*
X232852Y198311D01*
X228800Y197765D02*
X232852Y201816D01*
X228980Y198286D02*
X232852Y194414D01*
X227448Y195920D02*
X232852Y190516D01*
X224644Y194826D02*
X232852Y186619D01*
X229150Y209806D02*
X230577Y211233D01*
X230854D02*
X232852Y209235D01*
X221041Y212911D02*
Y216223D01*
X221133Y206133D02*
X223129Y204137D01*
X226868Y203627D02*
X232664Y209423D01*
X172716Y235219D02*
X215056Y277559D01*
X176613Y235219D02*
X218953Y277559D01*
X168818Y235219D02*
X211159Y277559D01*
X124509Y206499D02*
X195569Y277559D01*
X177975Y232683D02*
X222851Y277559D01*
X177975Y228785D02*
X226748Y277559D01*
X177770Y209093D02*
X246236Y277559D01*
X168482Y235219D02*
X177975D01*
X168482Y225726D02*
Y235219D01*
X117301Y237187D02*
X126794D01*
Y227695D02*
Y237187D01*
X168482Y225726D02*
X177975D01*
X176493Y203918D02*
X250133Y277559D01*
X177881Y201410D02*
X254031Y277559D01*
X126351Y204443D02*
X199466Y277559D01*
X126435Y200630D02*
X203364Y277559D01*
X124465Y183071D02*
X168482Y227087D01*
X116671Y183071D02*
X168482Y234882D01*
X120568Y183071D02*
X168482Y230985D01*
X123575Y217947D02*
X158451Y183071D01*
X125001Y208726D02*
X150656Y183071D01*
X79550Y234690D02*
X131169Y183071D01*
X79550Y230793D02*
X127272Y183071D01*
X119959Y198179D02*
X135067Y183071D01*
X123945Y198090D02*
X138964Y183071D01*
X77248Y237187D02*
X117620Y277559D01*
X75656D02*
X117301Y235914D01*
X71758Y277559D02*
X117301Y232016D01*
X67861Y277559D02*
X117301Y228119D01*
X79553Y277559D02*
X119925Y237187D01*
X83450Y277559D02*
X123822Y237187D01*
X79550Y235591D02*
X121517Y277559D01*
X79550Y231694D02*
X125415Y277559D01*
X32784D02*
X73155Y237187D01*
X30337Y237046D02*
X70850Y277559D01*
X27514Y265403D02*
X39671Y277559D01*
X28886D02*
X70057Y236388D01*
X36681Y277559D02*
X77053Y237187D01*
X73351D02*
X113722Y277559D01*
X30337Y233148D02*
X74748Y277559D01*
X30337Y229251D02*
X78645Y277559D01*
X63963D02*
X117553Y223969D01*
X52271Y277559D02*
X117302Y212528D01*
X44476Y277559D02*
X117697Y204338D01*
X30311Y201942D02*
X105928Y277559D01*
X60066D02*
X120648Y216976D01*
X56168Y277559D02*
X118332Y215395D01*
X48373Y277559D02*
X119492Y206441D01*
X40578Y277559D02*
X117785Y200353D01*
X30203Y221322D02*
X86440Y277559D01*
X30210Y213533D02*
X94235Y277559D01*
X29736Y224752D02*
X82543Y277559D01*
X28756Y215978D02*
X90338Y277559D01*
X27402Y206828D02*
X98133Y277559D01*
X29542Y205071D02*
X102030Y277559D01*
X27344Y267409D02*
X70441Y224312D01*
X20096Y273574D02*
X24081Y277559D01*
X17194D02*
X21346Y273407D01*
X13296Y277559D02*
X17563Y273292D01*
X7874Y265249D02*
X20184Y277559D01*
X25413Y271096D02*
X31876Y277559D01*
X26936Y268722D02*
X35773Y277559D01*
X23181Y272762D02*
X27979Y277559D01*
X9399D02*
X14959Y271999D01*
X7874Y275186D02*
X13086Y269975D01*
X7874Y273044D02*
X12389Y277559D01*
X7874Y269147D02*
X16286Y277559D01*
X7874Y267392D02*
X12396Y262870D01*
X7874Y261352D02*
X11859Y265337D01*
X7874Y271289D02*
X11981Y267183D01*
X26581Y237187D02*
X66953Y277559D01*
X24989D02*
X70057Y232491D01*
X22684Y237187D02*
X63056Y277559D01*
X7874Y226275D02*
X59158Y277559D01*
X27229Y263626D02*
X70579Y220276D01*
X25936Y261022D02*
X71307Y215651D01*
X21091Y277559D02*
X70057Y228594D01*
X7874Y263494D02*
X70243Y201126D01*
X7874Y234070D02*
X51363Y277559D01*
X7874Y230172D02*
X55261Y277559D01*
X7874Y241865D02*
X43568Y277559D01*
X7874Y237967D02*
X47466Y277559D01*
X7874Y253557D02*
X14337Y260020D01*
X7874Y259597D02*
X30283Y237187D01*
X7874Y257455D02*
X12671Y262252D01*
X124818Y226295D02*
X126217Y227695D01*
X117725D02*
X119189Y226231D01*
X79550Y227695D02*
Y237187D01*
X117301Y227695D02*
Y237187D01*
X123329Y217011D02*
X125335Y219018D01*
X117301Y227695D02*
X126794D01*
X70057Y237187D02*
X79550D01*
X70057Y227695D02*
Y237187D01*
X30337Y227695D02*
Y237187D01*
X23912Y259149D02*
X70087Y212974D01*
X77841Y226088D02*
X79448Y227695D01*
X71502Y215851D02*
X73521Y217871D01*
X70057Y227695D02*
X79550D01*
X78788Y219862D02*
X115579Y183071D01*
X79512Y223036D02*
X119477Y183071D01*
X73799D02*
X118422Y227695D01*
X77696Y183071D02*
X117307Y222682D01*
X79438Y211418D02*
X107784Y183071D01*
X81593D02*
X118193Y219671D01*
X76674Y218079D02*
X111682Y183071D01*
X78013Y208945D02*
X103887Y183071D01*
X21120Y258043D02*
X72546Y206617D01*
X78979Y200184D02*
X96092Y183071D01*
X79387Y203674D02*
X99990Y183071D01*
X77021Y198245D02*
X92195Y183071D01*
X20844Y237187D02*
X30337D01*
X7874Y240109D02*
X22210Y225773D01*
X7874Y255699D02*
X26386Y237187D01*
X7874Y251802D02*
X22488Y237187D01*
X20844Y227695D02*
X30337D01*
X7874Y236212D02*
X20902Y223183D01*
X7874Y232314D02*
X23491Y216698D01*
X7874Y247904D02*
X20844Y234934D01*
X7874Y244007D02*
X20844Y231037D01*
X7874Y249660D02*
X16711Y258497D01*
X7874Y245762D02*
X20030Y257919D01*
X20844Y227695D02*
Y237187D01*
X7874Y218480D02*
X20844Y231450D01*
X7874Y222377D02*
X20844Y235348D01*
X16807Y258459D02*
X70607Y204659D01*
X7874Y202890D02*
X23279Y218295D01*
X7874Y228417D02*
X21479Y214812D01*
X7874Y220622D02*
X22475Y206021D01*
X7874Y183403D02*
X22961Y198490D01*
X7874Y195095D02*
X22054Y209275D01*
X7874Y191198D02*
X21466Y204790D01*
X7874Y210685D02*
X21067Y223878D01*
X7874Y206788D02*
X21365Y220279D01*
X7874Y214583D02*
X20986Y227695D01*
X7874Y224520D02*
X20950Y211444D01*
X7874Y198993D02*
X20866Y211985D01*
X7874Y187301D02*
X21203Y200630D01*
X7874Y216725D02*
X20990Y203609D01*
X231078Y161067D02*
X270849Y200838D01*
X231282Y157375D02*
X271749Y197842D01*
X228526Y166311D02*
X271155Y208940D01*
X229280Y163168D02*
X272860Y206747D01*
X222776Y170453D02*
X232852Y180529D01*
X228526Y166676D02*
X238602Y176752D01*
X198386Y151760D02*
X232852Y186226D01*
X202283Y151760D02*
X232852Y182329D01*
Y180529D02*
Y209235D01*
X221790Y163468D02*
Y168071D01*
X231282Y155118D02*
Y159843D01*
X228526Y163468D02*
Y166676D01*
X229156Y225392D02*
X302788Y151760D01*
X233463D02*
X359262Y277559D01*
X229156Y233187D02*
X310583Y151760D01*
X229156Y229289D02*
X306685Y151760D01*
X230917Y169067D02*
X248223Y151760D01*
X232866Y171015D02*
X252121Y151760D01*
X229217D02*
X252970D01*
X229565D02*
X273973Y196168D01*
X231053Y161135D02*
X240429Y151760D01*
X231282Y157009D02*
X236531Y151760D01*
X206181D02*
X221790Y167369D01*
X228968Y167118D02*
X244326Y151760D01*
X230909Y153484D02*
X232634Y151760D01*
X167337Y183071D02*
X261825Y277559D01*
X177975Y233701D02*
X231999Y179676D01*
X163440Y183071D02*
X257928Y277559D01*
X138014Y277559D02*
X232852Y182721D01*
X177975Y229804D02*
X230051Y177728D01*
X177975Y225906D02*
X228102Y175779D01*
X177551Y222432D02*
X226153Y173830D01*
X177558Y218528D02*
X224204Y171882D01*
X177165Y177309D02*
X219669Y219813D01*
X177165Y173412D02*
X220553Y216799D01*
X177165Y181207D02*
X220779Y224820D01*
X175742Y216446D02*
X222313Y169875D01*
X177972Y210319D02*
X221790Y166502D01*
X177165Y165617D02*
X219838Y208290D01*
X177165Y169514D02*
X221041Y213390D01*
X188681Y277559D02*
X314480Y151760D01*
X194488D02*
X232852Y190124D01*
X177165Y142232D02*
X232852Y197919D01*
X177165Y138335D02*
X232852Y194021D01*
X177165Y117587D02*
X268254Y26498D01*
X177165Y113690D02*
X264357Y26498D01*
X177165Y125382D02*
X276049Y26498D01*
X177165Y121485D02*
X272152Y26498D01*
X177165Y157822D02*
X219735Y200392D01*
X177165Y153924D02*
X220349Y197108D01*
X176913Y207481D02*
X221162Y163232D01*
X177165Y161719D02*
X221369Y205923D01*
X192851Y151760D02*
X221099D01*
X177165Y146130D02*
X226212Y195176D01*
X177165Y150027D02*
X222404Y195265D01*
X228749Y112773D02*
X260263Y81260D01*
X224852Y112773D02*
X258314Y79311D01*
X217057Y112773D02*
X250576Y79254D01*
X220954Y112773D02*
X254473Y79254D01*
X232646Y112773D02*
X262211Y83208D01*
X197569Y112773D02*
X280588Y29754D01*
X192851Y112773D02*
X373447D01*
X193672D02*
X279947Y26498D01*
X209262Y112773D02*
X241630Y80405D01*
X213159Y112773D02*
X246678Y79254D01*
X205364Y112773D02*
X239080Y79058D01*
X201467Y112773D02*
X238074Y76166D01*
X177165Y66921D02*
X238180Y5906D01*
X177165Y63023D02*
X234283Y5906D01*
X177165Y70818D02*
X242078Y5906D01*
X196737D02*
X286380Y95549D01*
X200634Y5906D02*
X290278Y95549D01*
X181147Y5906D02*
X248743Y73502D01*
X192839Y5906D02*
X260743Y73809D01*
X227916Y5906D02*
X248932Y26921D01*
X231814Y5906D02*
X250881Y24973D01*
X185045Y5906D02*
X252641Y73502D01*
X188942Y5906D02*
X256538Y73502D01*
X208429Y5906D02*
X238499Y35976D01*
X212327Y5906D02*
X240499Y34078D01*
X177250Y5906D02*
X244289Y72945D01*
X204532Y5906D02*
X238964Y40337D01*
X220122Y5906D02*
X245035Y30819D01*
X224019Y5906D02*
X246983Y28870D01*
X216224Y5906D02*
X243086Y32768D01*
X177165Y40898D02*
X249040Y112773D01*
X177165Y37001D02*
X252938Y112773D01*
X177165Y48693D02*
X241245Y112773D01*
X177165Y44796D02*
X245143Y112773D01*
X177165Y105895D02*
X241294Y41767D01*
X177165Y109793D02*
X260459Y26498D01*
X177165Y33103D02*
X256835Y112773D01*
X177165Y29206D02*
X260733Y112773D01*
X177165Y60386D02*
X229553Y112773D01*
X177165Y56488D02*
X233450Y112773D01*
X177165Y68181D02*
X221758Y112773D01*
X177165Y64283D02*
X225656Y112773D01*
X177165Y101998D02*
X238903Y40260D01*
X177165Y98100D02*
X238121Y37145D01*
X177165Y52591D02*
X237348Y112773D01*
X177165Y17514D02*
X272425Y112773D01*
X177165Y94203D02*
X265463Y5906D01*
X177165Y25309D02*
X264630Y112773D01*
X177165Y21411D02*
X268528Y112773D01*
X177165Y82511D02*
X253770Y5906D01*
X177165D02*
X377953D01*
X177165Y90305D02*
X261565Y5906D01*
X177165Y86408D02*
X257668Y5906D01*
X177165Y9719D02*
X240235Y72788D01*
X177165Y74716D02*
X245975Y5906D01*
X177165Y13616D02*
X238376Y74827D01*
X177165Y78613D02*
X249873Y5906D01*
X177165Y55228D02*
X226488Y5906D01*
X177165Y51331D02*
X222591Y5906D01*
X177165Y59126D02*
X230386Y5906D01*
X125837Y219583D02*
X162349Y183071D01*
X126793Y222524D02*
X166246Y183071D01*
X112773D02*
X207261Y277559D01*
X125520Y227695D02*
X170144Y183071D01*
X126583Y211042D02*
X154554Y183071D01*
X126751Y203079D02*
X146759Y183071D01*
X108876D02*
X123858Y198054D01*
X126047Y199885D02*
X142862Y183071D01*
X85491D02*
X120407Y217987D01*
X89388Y183071D02*
X117477Y211160D01*
X69901Y183071D02*
X117301Y230471D01*
X78751Y227695D02*
X123374Y183071D01*
X101081D02*
X117989Y199979D01*
X104978Y183071D02*
X120045Y198138D01*
X93286Y183071D02*
X119009Y208794D01*
X97183Y183071D02*
X117372Y203260D01*
X126794Y230318D02*
X174041Y183071D01*
X171235D02*
X219663Y231499D01*
X87348Y277559D02*
X213147Y151760D01*
X126794Y234216D02*
X209249Y151760D01*
X177165Y177309D02*
X219669Y219813D01*
X177705Y198895D02*
X219034Y157566D01*
X175132Y183071D02*
X219663Y227602D01*
X174576Y205921D02*
X219290Y161207D01*
X136158Y183071D02*
X170042Y216955D01*
X140055Y183071D02*
X168629Y211645D01*
X128363Y183071D02*
X171018Y225726D01*
X132260Y183071D02*
X168602Y219412D01*
X147850Y183071D02*
X171040Y206261D01*
X151748Y183071D02*
X168523Y199847D01*
X143953Y183071D02*
X169069Y208187D01*
X23132Y183071D02*
X70057Y229996D01*
X27029Y183071D02*
X71653Y227695D01*
X15337Y183071D02*
X109825Y277559D01*
X19234Y183071D02*
X70057Y233893D01*
X29847Y210341D02*
X57118Y183071D01*
X30067Y214019D02*
X61015Y183071D01*
X28084Y227695D02*
X72707Y183071D01*
X28923Y219061D02*
X64913Y183071D01*
X7874Y208930D02*
X33733Y183071D01*
X27962Y208329D02*
X53220Y183071D01*
X7874D02*
Y277559D01*
Y212827D02*
X37630Y183071D01*
X7874Y201135D02*
X25938Y183071D01*
X29171Y199325D02*
X45425Y183071D01*
X7874Y205032D02*
X29836Y183071D01*
X30337Y229339D02*
X76605Y183071D01*
X66004D02*
X117301Y234368D01*
X30337Y237134D02*
X84400Y183071D01*
X30337Y233236D02*
X80502Y183071D01*
X58209D02*
X73135Y197997D01*
X62106Y183071D02*
X77776Y198741D01*
X38721Y183071D02*
X71393Y215742D01*
X46516Y183071D02*
X72032Y208587D01*
X34824Y183071D02*
X71156Y219403D01*
X42619Y183071D02*
X70349Y210801D01*
X30265Y221616D02*
X68810Y183071D01*
X30927D02*
X70063Y222207D01*
X50414Y183071D02*
X70065Y202722D01*
X54311Y183071D02*
X70933Y199693D01*
X30323Y202071D02*
X49323Y183071D01*
X219034Y155118D02*
Y159843D01*
X217873Y151760D02*
X219471Y153358D01*
X210078Y151760D02*
X219172Y160854D01*
X213976Y151760D02*
X219034Y156818D01*
X192851Y112773D02*
Y151760D01*
X177165Y103258D02*
X192851Y118943D01*
X177165Y111053D02*
X192851Y126738D01*
X177165Y107155D02*
X192851Y122840D01*
X177165Y137075D02*
X192851Y121389D01*
X177165Y118847D02*
X192851Y134533D01*
X177165Y140972D02*
X192851Y125287D01*
X177165Y122745D02*
X192851Y138430D01*
X177165Y114950D02*
X192851Y130635D01*
X177165Y129280D02*
X192851Y113594D01*
X177165Y133177D02*
X192851Y117492D01*
X177165Y75975D02*
X213963Y112773D01*
X177165Y72078D02*
X217861Y112773D01*
X177165Y83770D02*
X206168Y112773D01*
X177165Y79873D02*
X210066Y112773D01*
X177165Y39639D02*
X210898Y5906D01*
X177165Y35741D02*
X207001Y5906D01*
X177165Y47433D02*
X218693Y5906D01*
X177165Y43536D02*
X214796Y5906D01*
X177165Y91565D02*
X198373Y112773D01*
X177165Y87668D02*
X202271Y112773D01*
X177165Y99360D02*
X192851Y115046D01*
X177165Y95463D02*
X194476Y112773D01*
X177165Y27946D02*
X199206Y5906D01*
X177165Y24049D02*
X195308Y5906D01*
X177165Y31844D02*
X203103Y5906D01*
X176048Y196654D02*
X219655Y153047D01*
X173076Y195728D02*
X217044Y151760D01*
X155645Y183071D02*
X169782Y197208D01*
X159542Y183071D02*
X172291Y195819D01*
X177165Y176049D02*
X201454Y151760D01*
X177165Y172152D02*
X197557Y151760D01*
X7874Y183071D02*
X177165D01*
Y179947D02*
X205352Y151760D01*
X26758Y197840D02*
X41528Y183071D01*
X73488Y197880D02*
X88297Y183071D01*
X7874Y197238D02*
X22041Y183071D01*
X11439D02*
X26089Y197721D01*
X7874Y189443D02*
X14246Y183071D01*
X7874Y185545D02*
X10348Y183071D01*
X7874Y193340D02*
X18143Y183071D01*
X177165Y152665D02*
X192851Y136979D01*
X177165Y134437D02*
X192851Y150123D01*
X177165Y168254D02*
X193660Y151760D01*
X177165Y156562D02*
X192851Y140876D01*
X177165Y144870D02*
X192851Y129184D01*
X177165Y126642D02*
X192851Y142328D01*
X177165Y148767D02*
X192851Y133082D01*
X177165Y130540D02*
X192851Y146225D01*
X177165Y160459D02*
X192851Y144774D01*
X177165Y20151D02*
X191411Y5906D01*
X177165Y164357D02*
X192851Y148671D01*
X177165Y5906D02*
Y183071D01*
Y12356D02*
X183616Y5906D01*
X177165Y8459D02*
X179719Y5906D01*
X177165Y16254D02*
X187514Y5906D01*
D26*
X291339Y23622D02*
X299213D01*
X256299D02*
X283465D01*
X242126Y37795D02*
X256299Y23622D01*
X283465D02*
Y55118D01*
X289370Y61024D01*
X299213Y23622D02*
X299370Y23779D01*
Y61024D01*
X324961Y86614D01*
Y96457D01*
X281496Y98425D02*
X296611D01*
X298579Y96457D02*
X314961D01*
X296611Y98425D02*
X298579Y96457D01*
X242126Y76378D02*
X259449D01*
X281496Y98425D01*
D27*
X224410Y219567D02*
Y229567D01*
Y209567D02*
Y219567D01*
X229375Y214602D01*
X232249D01*
X236221Y210630D01*
Y179134D02*
Y210630D01*
X225158Y157480D02*
Y168071D01*
X236221Y179134D01*
D28*
X225158Y157480D02*
D03*
X58307Y129921D02*
D03*
D29*
X255158Y157480D02*
D03*
X125984Y66929D02*
D03*
X28307Y129921D02*
D03*
X31496Y76024D02*
D03*
X125984Y152796D02*
D03*
D30*
X125984Y36929D02*
D03*
X31496Y46024D02*
D03*
X125984Y122796D02*
D03*
D31*
X173228Y230472D02*
D03*
X122047Y232441D02*
D03*
X275591Y230630D02*
D03*
X74803Y232441D02*
D03*
X224410Y229567D02*
D03*
X25591Y232441D02*
D03*
D32*
X173228Y220472D02*
D03*
Y210472D02*
D03*
Y200472D02*
D03*
X122047Y222441D02*
D03*
Y212441D02*
D03*
Y202441D02*
D03*
X275591Y220630D02*
D03*
Y210630D02*
D03*
Y200630D02*
D03*
X74803Y222441D02*
D03*
Y212441D02*
D03*
Y202441D02*
D03*
X224410Y219567D02*
D03*
Y209567D02*
D03*
Y199567D02*
D03*
X25591Y222441D02*
D03*
Y212441D02*
D03*
Y202441D02*
D03*
D33*
X362205Y231890D02*
D03*
Y193307D02*
D03*
X242126Y37795D02*
D03*
Y76378D02*
D03*
D34*
X283465Y23622D02*
D03*
X291339D02*
D03*
D35*
X299213D02*
D03*
D36*
X17717Y15748D02*
D03*
X19685Y265748D02*
D03*
X368110Y263779D02*
D03*
X366142Y15748D02*
D03*
D37*
X28083Y142256D02*
X37178Y151351D01*
X124539D01*
X125984Y152796D01*
X31272Y76248D02*
Y100394D01*
X28083Y130145D02*
Y142256D01*
Y103583D02*
X31272Y100394D01*
X28083Y103583D02*
Y129697D01*
X147638Y57965D02*
Y101142D01*
X125984Y122796D02*
X147638Y101142D01*
X58307Y109016D02*
Y129921D01*
X100394Y66929D02*
X125984D01*
X58307Y109016D02*
X100394Y66929D01*
X146142Y57087D02*
X146759D01*
X147638Y57965D01*
X125984Y36929D02*
X146142Y57087D01*
X40591Y36929D02*
X125984D01*
X31496Y46024D02*
X40591Y36929D01*
M02*
