G04*
G04 #@! TF.GenerationSoftware,Altium Limited,Altium Designer,22.1.2 (22)*
G04*
G04 Layer_Physical_Order=1*
G04 Layer_Color=255*
%FSLAX25Y25*%
%MOIN*%
G70*
G04*
G04 #@! TF.SameCoordinates,D2A74ED6-6853-450D-875C-18D0DEDCCFCE*
G04*
G04*
G04 #@! TF.FilePolarity,Positive*
G04*
G01*
G75*
%ADD13C,0.01000*%
%ADD19C,0.06181*%
%ADD20R,0.06181X0.06181*%
%ADD25C,0.00800*%
%ADD26C,0.02953*%
%ADD27C,0.03937*%
G04:AMPARAMS|DCode=28|XSize=94.49mil|YSize=94.49mil|CornerRadius=23.62mil|HoleSize=0mil|Usage=FLASHONLY|Rotation=0.000|XOffset=0mil|YOffset=0mil|HoleType=Round|Shape=RoundedRectangle|*
%AMROUNDEDRECTD28*
21,1,0.09449,0.04724,0,0,0.0*
21,1,0.04724,0.09449,0,0,0.0*
1,1,0.04724,0.02362,-0.02362*
1,1,0.04724,-0.02362,-0.02362*
1,1,0.04724,-0.02362,0.02362*
1,1,0.04724,0.02362,0.02362*
%
%ADD28ROUNDEDRECTD28*%
%ADD29C,0.09449*%
G04:AMPARAMS|DCode=30|XSize=94.49mil|YSize=94.49mil|CornerRadius=23.62mil|HoleSize=0mil|Usage=FLASHONLY|Rotation=90.000|XOffset=0mil|YOffset=0mil|HoleType=Round|Shape=RoundedRectangle|*
%AMROUNDEDRECTD30*
21,1,0.09449,0.04724,0,0,90.0*
21,1,0.04724,0.09449,0,0,90.0*
1,1,0.04724,0.02362,0.02362*
1,1,0.04724,0.02362,-0.02362*
1,1,0.04724,-0.02362,-0.02362*
1,1,0.04724,-0.02362,0.02362*
%
%ADD30ROUNDEDRECTD30*%
%ADD31R,0.06693X0.06693*%
%ADD32C,0.06693*%
%ADD33C,0.05315*%
%ADD34C,0.05118*%
%ADD35R,0.05118X0.05118*%
%ADD36C,0.12874*%
D13*
X368110Y263779D02*
Y271217D01*
Y263779D02*
X375547D01*
X360673D02*
X368110D01*
Y256343D02*
Y263779D01*
X362205Y193307D02*
Y196965D01*
Y193307D02*
X365862D01*
X362205Y189650D02*
Y193307D01*
X275591Y200630D02*
Y204976D01*
X224410Y199567D02*
Y203913D01*
X220063Y199567D02*
X224410D01*
Y195220D02*
Y199567D01*
X255158Y157480D02*
Y163205D01*
X249434Y157480D02*
X255158D01*
X260882D01*
X255158Y151756D02*
Y157480D01*
X19685Y265748D02*
Y273185D01*
Y265748D02*
X27122D01*
X12248D02*
X19685D01*
Y258311D02*
Y265748D01*
X173228Y200472D02*
Y204819D01*
X122047Y202441D02*
Y206787D01*
X117701Y202441D02*
X122047D01*
X168882Y200472D02*
X173228D01*
Y196126D02*
Y200472D01*
X177575D01*
X122047Y202441D02*
X126394D01*
X122047Y198094D02*
Y202441D01*
X74803D02*
X79150D01*
X74803D02*
Y206787D01*
X25591Y198094D02*
Y202441D01*
Y206787D01*
X74803Y198094D02*
Y202441D01*
X70457D02*
X74803D01*
X25591D02*
X29937D01*
X21244D02*
X25591D01*
D19*
X331772Y230315D02*
D03*
X289370Y61024D02*
D03*
X314961Y96457D02*
D03*
D20*
X321772Y230315D02*
D03*
X299370Y61024D02*
D03*
X324961Y96457D02*
D03*
D25*
X375947Y263779D02*
G03*
X375947Y263779I-7837J0D01*
G01*
X359908Y238254D02*
G03*
X357874Y239097I-2034J-2034D01*
G01*
X366262Y231890D02*
G03*
X362215Y235947I-4058J0D01*
G01*
X337677Y239097D02*
G03*
X335643Y238254I0J-2876D01*
G01*
X337677Y239097D02*
G03*
X335643Y238254I0J-2876D01*
G01*
X317900D02*
G03*
X315866Y239097I-2034J-2034D01*
G01*
X359908Y238254D02*
G03*
X357874Y239097I-2034J-2034D01*
G01*
X281181D02*
G03*
X279147Y238254I0J-2876D01*
G01*
X281181Y239097D02*
G03*
X279147Y238254I0J-2876D01*
G01*
X317900D02*
G03*
X315866Y239097I-2034J-2034D01*
G01*
X332176Y234787D02*
G03*
X336262Y230315I-404J-4472D01*
G01*
D02*
G03*
X336244Y230719I-4491J0D01*
G01*
X358147Y231879D02*
G03*
X366262Y231890I4058J10D01*
G01*
X280337Y220630D02*
G03*
X278467Y224406I-4747J0D01*
G01*
X272714D02*
G03*
X271054Y219234I2876J-3776D01*
G01*
X229156Y219567D02*
G03*
X223774Y224271I-4747J0D01*
G01*
X217664Y230380D02*
G03*
X215630Y231223I-2034J-2034D01*
G01*
X217664Y230380D02*
G03*
X215630Y231223I-2034J-2034D01*
G01*
X181102D02*
G03*
X179069Y230380I0J-2876D01*
G01*
X181102Y231223D02*
G03*
X179069Y230380I0J-2876D01*
G01*
X269750Y220538D02*
G03*
X267717Y221380I-2034J-2034D01*
G01*
X278467Y216854D02*
G03*
X280337Y220630I-2876J3776D01*
G01*
X269750Y220538D02*
G03*
X267717Y221380I-2034J-2034D01*
G01*
X233347D02*
G03*
X231313Y220538I0J-2876D01*
G01*
X233347Y221380D02*
G03*
X231313Y220538I0J-2876D01*
G01*
X280337Y210630D02*
G03*
X278467Y214405I-4747J0D01*
G01*
X270887Y211266D02*
G03*
X280337Y210630I4704J-636D01*
G01*
X229156Y209567D02*
G03*
X229113Y210203I-4747J0D01*
G01*
X219706Y220203D02*
G03*
X225805Y215030I4704J-636D01*
G01*
X228946Y218171D02*
G03*
X229156Y219567I-4537J1395D01*
G01*
X177975Y220472D02*
G03*
X177932Y221108I-4747J0D01*
G01*
X225045Y214271D02*
G03*
X229156Y209567I-636J-4704D01*
G01*
X366262Y193307D02*
G03*
X359343Y196184I-4058J0D01*
G01*
X298254Y202664D02*
G03*
X296220Y203506I-2034J-2034D01*
G01*
X359343Y190431D02*
G03*
X366262Y193307I2862J2876D01*
G01*
X301509Y191273D02*
G03*
X303543Y190431I2034J2034D01*
G01*
X301509Y191273D02*
G03*
X303543Y190431I2034J2034D01*
G01*
X298254Y202664D02*
G03*
X296220Y203506I-2034J-2034D01*
G01*
X279366D02*
G03*
X271815Y203506I-3776J-2876D01*
G01*
X278959Y197286D02*
G03*
X279366Y197754I-3368J3344D01*
G01*
X277972Y175531D02*
G03*
X278959Y177913I-2382J2382D01*
G01*
X277972Y175531D02*
G03*
X278959Y177913I-2382J2382D01*
G01*
X251811Y203506D02*
G03*
X249777Y202664I0J-2876D01*
G01*
X251811Y203506D02*
G03*
X249777Y202664I0J-2876D01*
G01*
X271815Y197754D02*
G03*
X272222Y197286I3776J2876D01*
G01*
X250000Y195942D02*
G03*
X252034Y196785I0J2876D01*
G01*
X250000Y195942D02*
G03*
X252034Y196785I0J2876D01*
G01*
X223774Y194863D02*
G03*
X227474Y195942I636J4704D01*
G01*
X228652Y201695D02*
G03*
X219706Y198931I-4242J-2128D01*
G01*
X177932Y199837D02*
G03*
X177975Y200472I-4704J636D01*
G01*
X217756Y190037D02*
G03*
X219790Y190879I0J2876D01*
G01*
X217756Y190037D02*
G03*
X219790Y190879I0J2876D01*
G01*
X178753D02*
G03*
X180787Y190037I2034J2034D01*
G01*
X178753Y190879D02*
G03*
X180787Y190037I2034J2034D01*
G01*
X261282Y157480D02*
G03*
X261157Y158715I-6124J0D01*
G01*
X231282Y159843D02*
G03*
X227520Y163605I-3762J0D01*
G01*
X256393Y163479D02*
G03*
X261282Y157480I-1235J-5999D01*
G01*
X227520Y151356D02*
G03*
X231282Y155118I0J3762D01*
G01*
X222796Y163605D02*
G03*
X219034Y159843I0J-3762D01*
G01*
Y155118D02*
G03*
X222796Y151356I3762J0D01*
G01*
X127953Y231223D02*
G03*
X126794Y230979I0J-2876D01*
G01*
X92520Y231223D02*
G03*
X90486Y230380I0J-2876D01*
G01*
X106365D02*
G03*
X104331Y231223I-2034J-2034D01*
G01*
X106365Y230380D02*
G03*
X104331Y231223I-2034J-2034D01*
G01*
X167388Y230380D02*
G03*
X165354Y231223I-2034J-2034D01*
G01*
X167388Y230380D02*
G03*
X165354Y231223I-2034J-2034D01*
G01*
X127953D02*
G03*
X126794Y230979I0J-2876D01*
G01*
X119171Y226217D02*
G03*
X118272Y225317I2876J-3776D01*
G01*
X126794Y222441D02*
G03*
X126751Y223077I-4747J0D01*
G01*
X92520Y231223D02*
G03*
X90486Y230380I0J-2876D01*
G01*
X108202Y220407D02*
G03*
X110236Y219565I2034J2034D01*
G01*
X86614D02*
G03*
X88648Y220407I0J2876D01*
G01*
X86614Y219565D02*
G03*
X88648Y220407I0J2876D01*
G01*
X58786Y240223D02*
G03*
X56752Y241065I-2034J-2034D01*
G01*
X58786Y240223D02*
G03*
X56752Y241065I-2034J-2034D01*
G01*
X43642D02*
G03*
X41608Y240223I0J-2876D01*
G01*
X43642Y241065D02*
G03*
X41608Y240223I0J-2876D01*
G01*
X27522Y265748D02*
G03*
X27522Y265748I-7837J0D01*
G01*
X60466Y230407D02*
G03*
X62500Y229565I2034J2034D01*
G01*
X60466Y230407D02*
G03*
X62500Y229565I2034J2034D01*
G01*
X37894D02*
G03*
X39928Y230407I0J2876D01*
G01*
X37894Y229565D02*
G03*
X39928Y230407I0J2876D01*
G01*
X78579Y225317D02*
G03*
X77680Y226217I-3776J-2876D01*
G01*
X30337Y222441D02*
G03*
X28467Y226217I-4747J0D01*
G01*
X176105Y216697D02*
G03*
X177975Y220472I-2876J3776D01*
G01*
Y210472D02*
G03*
X176105Y214248I-4747J0D01*
G01*
X168525Y221108D02*
G03*
X170352Y216697I4704J-636D01*
G01*
X124924Y218665D02*
G03*
X126794Y222441I-2876J3776D01*
G01*
X177975Y200472D02*
G03*
X168525Y199837I-4747J0D01*
G01*
X170352Y214248D02*
G03*
X177975Y210472I2876J-3776D01*
G01*
X126794Y212441D02*
G03*
X124924Y216217I-4747J0D01*
G01*
X118272Y219565D02*
G03*
X119171Y218665I3776J2876D01*
G01*
X126727Y203234D02*
G03*
X117344Y201805I-4680J-793D01*
G01*
X119171Y216217D02*
G03*
X126794Y212441I2876J-3776D01*
G01*
X172592Y195769D02*
G03*
X173864Y195769I636J4704D01*
G01*
X167638Y192006D02*
G03*
X169672Y192848I0J2876D01*
G01*
X167638Y192006D02*
G03*
X169672Y192848I0J2876D01*
G01*
X128978D02*
G03*
X131011Y192006I2034J2034D01*
G01*
X128978Y192848D02*
G03*
X131011Y192006I2034J2034D01*
G01*
X121411Y197737D02*
G03*
X123797Y198029I636J4704D01*
G01*
X112520Y190037D02*
G03*
X114554Y190879I0J2876D01*
G01*
X112520Y190037D02*
G03*
X114554Y190879I0J2876D01*
G01*
X108202Y220407D02*
G03*
X110236Y219565I2034J2034D01*
G01*
X77680Y218665D02*
G03*
X78579Y219565I-2876J3776D01*
G01*
X71927Y226217D02*
G03*
X71927Y218665I2876J-3776D01*
G01*
X30337Y212441D02*
G03*
X28467Y216217I-4747J0D01*
G01*
X79550Y212441D02*
G03*
X77680Y216217I-4747J0D01*
G01*
X79550Y202441D02*
G03*
X70100Y201805I-4747J0D01*
G01*
X71927Y216217D02*
G03*
X79550Y212441I2876J-3776D01*
G01*
X28467Y218665D02*
G03*
X30337Y222441I-2876J3776D01*
G01*
X22714Y226217D02*
G03*
X22714Y218665I2876J-3776D01*
G01*
X30337Y202441D02*
G03*
X26226Y197737I-4747J0D01*
G01*
X22714Y216217D02*
G03*
X30337Y212441I2876J-3776D01*
G01*
X79507Y201805D02*
G03*
X79550Y202441I-4704J636D01*
G01*
X74167Y197737D02*
G03*
X75439Y197737I636J4704D01*
G01*
X82297Y190879D02*
G03*
X84331Y190037I2034J2034D01*
G01*
X82297Y190879D02*
G03*
X84331Y190037I2034J2034D01*
G01*
X67244Y192006D02*
G03*
X69278Y192848I0J2876D01*
G01*
X67244Y192006D02*
G03*
X69278Y192848I0J2876D01*
G01*
X30294Y201805D02*
G03*
X30337Y202441I-4704J636D01*
G01*
X31116Y192848D02*
G03*
X33150Y192006I2034J2034D01*
G01*
X31116Y192848D02*
G03*
X33150Y192006I2034J2034D01*
G01*
X319451Y96457D02*
G03*
X319451Y96457I-4491J0D01*
G01*
X293861Y61024D02*
G03*
X293861Y61024I-4491J0D01*
G01*
X373979Y15748D02*
G03*
X373979Y15748I-7837J0D01*
G01*
X295253Y24211D02*
G03*
X287402Y24039I-3915J-589D01*
G01*
Y23205D02*
G03*
X295253Y23033I3937J417D01*
G01*
X287402Y24039D02*
G03*
X287402Y23205I-3937J-417D01*
G01*
X246183Y76378D02*
G03*
X246183Y76378I-4058J0D01*
G01*
Y37795D02*
G03*
X246183Y37795I-4058J0D01*
G01*
X375945Y263960D02*
X377953D01*
X375733Y261960D02*
X377953D01*
X375638Y265960D02*
X377953D01*
X374954Y259960D02*
X377953D01*
X373360Y257960D02*
X377953D01*
X372929Y269960D02*
X377953D01*
X374739Y267960D02*
X377953D01*
X368639Y255960D02*
X377953D01*
X360202Y237960D02*
X377953D01*
X365694Y233960D02*
X377953D01*
X362202Y235960D02*
X377953D01*
X359908Y238254D02*
X362215Y235947D01*
X337677Y239097D02*
X357874D01*
X281181D02*
X315866D01*
X320194Y235960D02*
X333349D01*
X332176Y234787D02*
X335643Y238254D01*
X318194Y237960D02*
X335349D01*
X326262Y233960D02*
X329149D01*
X321349Y234805D02*
X326262D01*
X317900Y238254D02*
X321349Y234805D01*
X326262Y225824D02*
Y234805D01*
X280337Y231309D02*
X282373Y233344D01*
X338869D02*
X356683D01*
X358147Y231879D01*
X337485Y231960D02*
X358066D01*
X366262D02*
X377953D01*
X336248Y229960D02*
X358635D01*
X336244Y230719D02*
X338869Y233344D01*
X326262Y231960D02*
X327593D01*
X326262Y229960D02*
X327295D01*
X365774D02*
X377953D01*
X335595Y227960D02*
X361193D01*
X363216D02*
X377953D01*
X332868Y225960D02*
X377953D01*
X326262Y227960D02*
X327948D01*
X317281Y225824D02*
Y230738D01*
X326262Y225960D02*
X330675D01*
X317281Y225824D02*
X326262D01*
X280337Y227960D02*
X317281D01*
X280337Y225960D02*
X317281D01*
X280337Y229960D02*
X317281D01*
X280147Y221960D02*
X377953D01*
X278972Y223960D02*
X377953D01*
X314675Y233344D02*
X317281Y230738D01*
X282373Y233344D02*
X314675D01*
X280989Y231960D02*
X316058D01*
X280147Y211960D02*
X377953D01*
X280290Y209960D02*
X377953D01*
X279515Y207960D02*
X377953D01*
X278972Y203960D02*
X377953D01*
X276442Y205960D02*
X377953D01*
X280290Y219960D02*
X377953D01*
X279515Y217960D02*
X377953D01*
X278972Y213960D02*
X377953D01*
X278467Y215960D02*
X377953D01*
X270844Y235376D02*
X276269D01*
X279147Y238254D01*
X270844Y225884D02*
Y235376D01*
X278467Y225884D02*
X280337D01*
X270844D02*
X272714D01*
X229156Y231960D02*
X270844D01*
X229156Y229960D02*
X270844D01*
X229156Y233960D02*
X270844D01*
X229156Y225960D02*
X270844D01*
X229156Y227960D02*
X270844D01*
X280337Y225884D02*
Y231309D01*
X278467Y224406D02*
Y225884D01*
X272714Y224406D02*
Y225884D01*
X226206Y223960D02*
X272209D01*
X229156Y224820D02*
Y234313D01*
X223224Y224820D02*
X223774Y224271D01*
X223224Y224820D02*
X229156D01*
X219663Y234313D02*
X229156D01*
X177975Y231960D02*
X219663D01*
X177975Y233960D02*
X219663D01*
X181102Y231223D02*
X215630D01*
X177975Y229960D02*
X178648D01*
X218084D02*
X219663D01*
Y228381D02*
Y234313D01*
X217664Y230380D02*
X219663Y228381D01*
X214439Y225470D02*
X219706Y220203D01*
X180784Y223960D02*
X215948D01*
X177975Y229287D02*
X179069Y230380D01*
X177975Y229287D02*
Y235219D01*
X182294Y225470D02*
X214439D01*
X177932Y221108D02*
X182294Y225470D01*
X270328Y219960D02*
X270892D01*
X269750Y220538D02*
X271054Y219234D01*
X233347Y221380D02*
X267717D01*
X229140Y219960D02*
X230735D01*
X278467Y214405D02*
Y216854D01*
X266525Y215628D02*
X270887Y211266D01*
X229140Y209960D02*
X270892D01*
X234538Y215628D02*
X266525D01*
X232871Y213960D02*
X268192D01*
X230871Y211960D02*
X270192D01*
X228508Y221960D02*
X271034D01*
X228946Y218171D02*
X231313Y220538D01*
X225045Y214271D02*
X225805Y215030D01*
X178784Y221960D02*
X217948D01*
X177947Y219960D02*
X219679D01*
X177255Y217960D02*
X219943D01*
X229113Y210203D02*
X234538Y215628D01*
X228876Y207960D02*
X271666D01*
X227495Y205960D02*
X274740D01*
X226206Y203960D02*
X272209D01*
X177736Y211960D02*
X220311D01*
X176448Y213960D02*
X222613D01*
X177947Y209960D02*
X219679D01*
X177255Y207960D02*
X219943D01*
X300958Y199960D02*
X377953D01*
X302958Y197960D02*
X377953D01*
X298958Y201960D02*
X377953D01*
X366209Y193960D02*
X377953D01*
X365274Y195960D02*
X377953D01*
X298254Y202664D02*
X304735Y196184D01*
X359343D01*
X377953Y116142D02*
Y276580D01*
X366032Y191960D02*
X377953D01*
X364499Y189960D02*
X377953D01*
X303543Y190431D02*
X359343D01*
X279366Y197754D02*
X295029D01*
X279366Y203506D02*
X296220D01*
X278959Y193960D02*
X298822D01*
X278959Y195960D02*
X296822D01*
X222871Y193960D02*
X272222D01*
X278959Y187960D02*
X377953D01*
X278959Y185960D02*
X377953D01*
X278959Y189960D02*
X359911D01*
X278959Y181960D02*
X377953D01*
X278959Y183960D02*
X377953D01*
X295029Y197754D02*
X301509Y191273D01*
X278959Y177913D02*
Y197286D01*
Y191960D02*
X300822D01*
X220871D02*
X272222D01*
X278335Y175960D02*
X377953D01*
X276402Y173960D02*
X377953D01*
X274402Y171960D02*
X377953D01*
X272402Y169960D02*
X377953D01*
X270402Y167960D02*
X377953D01*
X278959Y177960D02*
X377953D01*
X278959Y179960D02*
X377953D01*
X262402Y159960D02*
X377953D01*
X261263Y157960D02*
X377953D01*
X261091Y155960D02*
X377953D01*
X260170Y153960D02*
X377953D01*
X257811Y151960D02*
X377953D01*
X268402Y165960D02*
X377953D01*
X261157Y158715D02*
X277972Y175531D01*
X266402Y163960D02*
X377953D01*
X264402Y161960D02*
X377953D01*
X177165Y139960D02*
X377953D01*
X177165Y137960D02*
X377953D01*
X177165Y141960D02*
X377953D01*
X177165Y133960D02*
X377953D01*
X177165Y135960D02*
X377953D01*
X177165Y147960D02*
X377953D01*
X177165Y149960D02*
X377953D01*
X177165Y143960D02*
X377953D01*
X177165Y145960D02*
X377953D01*
X177165Y121960D02*
X377953D01*
X177165Y119960D02*
X377953D01*
X177165Y123960D02*
X377953D01*
X177165Y116142D02*
X377953D01*
X177165Y117960D02*
X377953D01*
X177165Y129960D02*
X377953D01*
X177165Y131960D02*
X377953D01*
X177165Y125960D02*
X377953D01*
X177165Y127960D02*
X377953D01*
X251811Y203506D02*
X271815D01*
X253003Y197754D02*
X271815D01*
X248809Y201695D02*
X249777Y202664D01*
X228508Y201960D02*
X249074D01*
X228652Y201695D02*
X248809D01*
X272222Y179308D02*
Y197286D01*
X252034Y196785D02*
X253003Y197754D01*
X250320Y195960D02*
X272222D01*
X227474Y195942D02*
X250000D01*
X177947Y199960D02*
X219679D01*
X177736Y201960D02*
X220311D01*
X216564Y195790D02*
X219706Y198931D01*
X179808Y197960D02*
X218735D01*
X177932Y199837D02*
X181979Y195790D01*
X216564D01*
X181808Y195960D02*
X216735D01*
X219790Y190879D02*
X223774Y194863D01*
X177165Y181960D02*
X272222D01*
X177165Y183960D02*
X272222D01*
X180787Y190037D02*
X217756D01*
X177165Y116142D02*
Y185039D01*
X256393Y163479D02*
X272222Y179308D01*
X230630Y161960D02*
X250982D01*
X222796Y163605D02*
X227520D01*
X231282Y157960D02*
X249052D01*
X231280Y159960D02*
X249558D01*
X231100Y153960D02*
X250146D01*
X229565Y151960D02*
X252505D01*
X231282Y155960D02*
X249225D01*
X231282Y155118D02*
Y159843D01*
X222796Y151356D02*
X227520D01*
X177165Y177960D02*
X270874D01*
X177165Y175960D02*
X268874D01*
X177165Y179960D02*
X272222D01*
X177165Y171960D02*
X264874D01*
X177165Y173960D02*
X266874D01*
X177165Y167960D02*
X260874D01*
X177165Y169960D02*
X262874D01*
X177165Y163960D02*
X256874D01*
X177165Y165960D02*
X258874D01*
X177165Y161960D02*
X219686D01*
X177165Y151960D02*
X220751D01*
X177165Y153960D02*
X219216D01*
X219034Y155118D02*
Y159843D01*
X177165Y159960D02*
X219035D01*
X177165Y155960D02*
X219034D01*
X177165Y157960D02*
X219034D01*
X27519Y265960D02*
X360583D01*
X59048Y239960D02*
X377953D01*
X27315Y263960D02*
X360275D01*
X126794Y235960D02*
X276853D01*
X61048Y237960D02*
X278853D01*
X117301Y237187D02*
X126794D01*
X168482Y235219D02*
X177975D01*
X79550Y235960D02*
X117301D01*
X126794Y233960D02*
X168482D01*
X79550D02*
X117301D01*
X126794Y230979D02*
Y237187D01*
X168482Y229287D02*
Y235219D01*
X117301Y227695D02*
Y237187D01*
X126794Y231960D02*
X168482D01*
X79550D02*
X117301D01*
X9843Y275960D02*
X377953D01*
X9843Y273960D02*
X377953D01*
X9843Y278549D02*
X377953Y276580D01*
X26294Y269960D02*
X363292D01*
X24463Y271960D02*
X377953D01*
X27203Y267960D02*
X361482D01*
X9843Y277960D02*
X119838D01*
X26546Y261960D02*
X360487D01*
X24969Y259960D02*
X361267D01*
X9843Y247960D02*
X377953D01*
X9843Y245960D02*
X377953D01*
X9843Y249960D02*
X377953D01*
X9843Y241960D02*
X377953D01*
X9843Y243960D02*
X377953D01*
X20563Y257960D02*
X362861D01*
X9843Y255960D02*
X367582D01*
X9843Y251960D02*
X377953D01*
X9843Y253960D02*
X377953D01*
X127953Y231223D02*
X165354D01*
X167808Y229960D02*
X168482D01*
X167388Y230380D02*
X168482Y229287D01*
X117301Y227695D02*
X119171D01*
Y226217D02*
Y227695D01*
X110785Y225960D02*
X118862D01*
X129144Y225470D02*
X164163D01*
X168525Y221108D01*
X127635Y223960D02*
X165673D01*
X126769Y221960D02*
X167673D01*
X126094Y219960D02*
X168510D01*
X126751Y223077D02*
X129144Y225470D01*
X111428Y225317D02*
X118272D01*
X106785Y229960D02*
X117301D01*
X106365Y230380D02*
X111428Y225317D01*
X92520Y231223D02*
X104331D01*
X108785Y227960D02*
X117301D01*
X93711Y225470D02*
X103139D01*
X85423Y225317D02*
X90486Y230380D01*
X79550Y227960D02*
X88066D01*
X79550Y229960D02*
X90066D01*
X103139Y225470D02*
X108202Y220407D01*
X90201Y221960D02*
X106649D01*
X110236Y219565D02*
X118272D01*
X88070Y219960D02*
X108780D01*
X92201Y223960D02*
X104649D01*
X88648Y220407D02*
X93711Y225470D01*
X43642Y241065D02*
X56752D01*
X70057Y237187D02*
X79550D01*
X63048Y235960D02*
X70057D01*
X20844Y237187D02*
X30337D01*
Y235960D02*
X37345D01*
X30337Y235317D02*
Y237187D01*
X70057Y235317D02*
Y237187D01*
X79550Y227695D02*
Y237187D01*
X58786Y240223D02*
X63691Y235317D01*
X70057D01*
X55560Y235313D02*
X60466Y230407D01*
X36702Y235317D02*
X41608Y240223D01*
X30337Y235317D02*
X36702D01*
X44833Y235313D02*
X55560D01*
X39928Y230407D02*
X44833Y235313D01*
X9843Y269960D02*
X13076D01*
X9843Y271960D02*
X14907D01*
X9843Y265960D02*
X11851D01*
X9843Y267960D02*
X12167D01*
X9843Y261960D02*
X12824D01*
X9843Y263960D02*
X12055D01*
X9843Y237960D02*
X39345D01*
X9843Y239960D02*
X41345D01*
X20844Y227695D02*
Y237187D01*
X9843Y233960D02*
X20844D01*
X9843Y259960D02*
X14401D01*
X9843Y235960D02*
X20844D01*
X9843Y257960D02*
X18807D01*
X39350Y229960D02*
X61044D01*
X62500Y229565D02*
X70057D01*
X30337Y227960D02*
X70057D01*
X43481Y233960D02*
X56913D01*
X41481Y231960D02*
X58913D01*
X77988Y225960D02*
X86066D01*
X77680Y227695D02*
X79550D01*
X78579Y219565D02*
X86614D01*
X78579Y225317D02*
X85423D01*
X70057Y227695D02*
X71927D01*
X70057D02*
Y229565D01*
X77680Y226217D02*
Y227695D01*
X71927Y226217D02*
Y227695D01*
X30337Y229565D02*
X37894D01*
X30337Y227695D02*
Y229565D01*
X22714Y226217D02*
Y227695D01*
X28467D02*
X30337D01*
X28467Y226217D02*
Y227695D01*
X9843Y229960D02*
X20844D01*
X9843Y231960D02*
X20844D01*
Y227695D02*
X22714D01*
X9843Y227960D02*
X20844D01*
X28775Y225960D02*
X71618D01*
X30087Y223960D02*
X70306D01*
X30313Y221960D02*
X70081D01*
X29637Y219960D02*
X70757D01*
X9843Y223960D02*
X21094D01*
X9843Y225960D02*
X22406D01*
X9843Y219960D02*
X21544D01*
X9843Y221960D02*
X20868D01*
X176105Y214248D02*
Y216697D01*
X170352Y214248D02*
Y216697D01*
X176105Y215960D02*
X221324D01*
X125232D02*
X170352D01*
X126769Y211960D02*
X168721D01*
X126544Y213960D02*
X170009D01*
X174701Y205960D02*
X221324D01*
X176448Y203960D02*
X222613D01*
X126094Y209960D02*
X168510D01*
X125232Y205960D02*
X171755D01*
X126727Y203234D02*
X132203Y197758D01*
X126544Y203960D02*
X170009D01*
X119171Y216217D02*
Y218665D01*
X124924Y216217D02*
Y218665D01*
X77680Y217960D02*
X119171D01*
X124924D02*
X169201D01*
X77988Y215960D02*
X118862D01*
X79525Y211960D02*
X117325D01*
X79300Y213960D02*
X117551D01*
X123614Y207960D02*
X169201D01*
X78850Y209960D02*
X118001D01*
X76369Y207960D02*
X120481D01*
X79300Y203960D02*
X117551D01*
X77988Y205960D02*
X118862D01*
X128001Y201960D02*
X168721D01*
X166446Y197758D02*
X168525Y199837D01*
X130001Y199960D02*
X168510D01*
X132203Y197758D02*
X166446D01*
X132001Y197960D02*
X166648D01*
X170784Y193960D02*
X175673D01*
X173864Y195769D02*
X178753Y190879D01*
X169672Y192848D02*
X172592Y195769D01*
X123797Y198029D02*
X128978Y192848D01*
X131011Y192006D02*
X167638D01*
X119634Y195960D02*
X125865D01*
X117634Y193960D02*
X127865D01*
X111328Y195790D02*
X117344Y201805D01*
X79525Y201960D02*
X117325D01*
X83351Y197960D02*
X113499D01*
X81352Y199960D02*
X115499D01*
X115635Y191960D02*
X177673D01*
X9843Y187960D02*
X272222D01*
X9843Y189960D02*
X272222D01*
X9843Y185039D02*
X177165D01*
X9843Y185960D02*
X272222D01*
X114554Y190879D02*
X121411Y197737D01*
X84331Y190037D02*
X112520D01*
X71927Y216217D02*
Y218665D01*
X77680Y216217D02*
Y218665D01*
X28467Y217960D02*
X71927D01*
X30087Y213960D02*
X70306D01*
X28775Y215960D02*
X71618D01*
X30313Y211960D02*
X70081D01*
X29637Y209960D02*
X70757D01*
X30087Y203960D02*
X70306D01*
X28775Y205960D02*
X71618D01*
X22714Y216217D02*
Y218665D01*
X28467Y216217D02*
Y218665D01*
X9843Y217960D02*
X22714D01*
X9843Y213960D02*
X21094D01*
X9843Y215960D02*
X22406D01*
X9843Y209960D02*
X21544D01*
X9843Y211960D02*
X20868D01*
X27157Y207960D02*
X73237D01*
X9843D02*
X24024D01*
X9843Y188976D02*
Y278549D01*
Y203960D02*
X21094D01*
X9843Y205960D02*
X22406D01*
X85352Y195960D02*
X111499D01*
X72390D02*
X77216D01*
X66053Y197758D02*
X70100Y201805D01*
X34341Y197758D02*
X66053D01*
X34139Y197960D02*
X66255D01*
X79507Y201805D02*
X85522Y195790D01*
X111328D01*
X75439Y197737D02*
X82297Y190879D01*
X70390Y193960D02*
X79216D01*
X69278Y192848D02*
X74167Y197737D01*
X30313Y201960D02*
X70081D01*
X32139Y199960D02*
X68255D01*
X30294Y201805D02*
X34341Y197758D01*
X9843Y201960D02*
X20868D01*
X9843Y197960D02*
X24024D01*
X9843Y199960D02*
X21544D01*
X26226Y197737D02*
X31116Y192848D01*
X33150Y192006D02*
X67244D01*
X9843Y191960D02*
X81216D01*
X9843Y193960D02*
X30003D01*
X9843Y195960D02*
X28003D01*
X9843Y185039D02*
Y187008D01*
Y188976D01*
X369625Y112205D02*
X377953Y103877D01*
X357933Y112205D02*
X377953Y92185D01*
X354035Y112205D02*
X377953Y88288D01*
X329451Y95748D02*
X345908Y112205D01*
X373523D02*
X377953Y107775D01*
X342343Y112205D02*
X377953Y76595D01*
X330651Y112205D02*
X377953Y64903D01*
X350138Y112205D02*
X377953Y84390D01*
X346241Y112205D02*
X377953Y80493D01*
X303861Y62363D02*
X353703Y112205D01*
X326753D02*
X377953Y61005D01*
X329451Y99646D02*
X342010Y112205D01*
X303115Y65514D02*
X349805Y112205D01*
X292336Y27453D02*
X377087Y112205D01*
X322856D02*
X377953Y57108D01*
X303861Y58465D02*
X357600Y112205D01*
X284524Y27437D02*
X369292Y112205D01*
X361830D02*
X377953Y96082D01*
X338446Y112205D02*
X377953Y72698D01*
X377420Y112205D02*
X377953Y111672D01*
X365728Y112205D02*
X377953Y99980D01*
X329451Y93917D02*
X377953Y45415D01*
X327505Y91966D02*
X377953Y41518D01*
X334548Y112205D02*
X377953Y68800D01*
X329451Y97815D02*
X377953Y49313D01*
X318263Y93413D02*
X377953Y33723D01*
X315744Y92035D02*
X377953Y29826D01*
X318958Y112205D02*
X377953Y53210D01*
X323607Y91966D02*
X377953Y37621D01*
X291676Y112205D02*
X377953Y25928D01*
X303172Y26597D02*
X377953Y101378D01*
X296361Y27581D02*
X377953Y109173D01*
X300259Y27581D02*
X377953Y105275D01*
X322958Y100947D02*
X334215Y112205D01*
X326855Y100947D02*
X338113Y112205D01*
X317935Y99821D02*
X330318Y112205D01*
X320470Y100947D02*
X329451D01*
X320470Y91966D02*
Y100947D01*
X329451Y91966D02*
Y100947D01*
X319361Y97351D02*
X320470Y98459D01*
X319440Y96134D02*
X320470Y95103D01*
X315061Y112205D02*
X326319Y100947D01*
X315159Y100943D02*
X326420Y112205D01*
X303369D02*
X314638Y100936D01*
X311163Y112205D02*
X322421Y100947D01*
X307266Y112205D02*
X320470Y99001D01*
X295574Y112205D02*
X310539Y97240D01*
X299471Y112205D02*
X311917Y99759D01*
X299217Y65514D02*
X325669Y91966D01*
X320470D02*
X329451D01*
X295320Y65514D02*
X321772Y91966D01*
X294880Y65514D02*
X303861D01*
Y56533D02*
Y65514D01*
X294880Y56533D02*
X303861D01*
X303290Y65514D02*
X303861Y64944D01*
X295253Y27581D02*
X303172D01*
X291083Y65175D02*
X320470Y94562D01*
X286419Y64408D02*
X314067Y92056D01*
X294880Y65074D02*
X295320Y65514D01*
X293190Y63384D02*
X294880Y65074D01*
Y56533D02*
Y65514D01*
X293625Y59589D02*
X294880Y58335D01*
X293754Y60051D02*
X294880Y61177D01*
X315589Y3937D02*
X377953Y66301D01*
X319486Y3937D02*
X377953Y62403D01*
X307794Y3937D02*
X377953Y74096D01*
X311692Y3937D02*
X377953Y70198D01*
Y3937D02*
Y112205D01*
X331179Y3937D02*
X377953Y50711D01*
X323384Y3937D02*
X377953Y58506D01*
X327281Y3937D02*
X377953Y54608D01*
X283881Y112205D02*
X377953Y18133D01*
X288307Y3937D02*
X377953Y93583D01*
X287779Y112205D02*
X377953Y22031D01*
X303172Y22699D02*
X377953Y97480D01*
X299999Y3937D02*
X377953Y81890D01*
X303897Y3937D02*
X377953Y77993D01*
X292204Y3937D02*
X377953Y89685D01*
X296102Y3937D02*
X377953Y85788D01*
X373976Y15555D02*
X377953Y19531D01*
X373339Y18850D02*
X377953Y14236D01*
X371798Y21172D02*
X377953Y27326D01*
X373349Y18825D02*
X377953Y23429D01*
X374051Y3937D02*
X377953Y7839D01*
X375984Y3937D02*
X377953D01*
X373866Y14425D02*
X377953Y10339D01*
X372792Y11602D02*
X377953Y6441D01*
X335076Y3937D02*
X377953Y46813D01*
X338974Y3937D02*
X377953Y42916D01*
X366412Y23580D02*
X377953Y35121D01*
X369539Y22810D02*
X377953Y31224D01*
X366256Y3937D02*
X377953Y15634D01*
X370153Y3937D02*
X377953Y11736D01*
X342871Y3937D02*
X377953Y39019D01*
X370943Y9554D02*
X376559Y3937D01*
X300579Y56533D02*
X353175Y3937D01*
X296681Y56533D02*
X349277Y3937D01*
X303172Y19663D02*
Y27581D01*
X303861Y64944D02*
X364867Y3937D01*
X303861Y61046D02*
X360970Y3937D01*
X303861Y57149D02*
X357072Y3937D01*
X303172Y26658D02*
X325893Y3937D01*
X286776Y25791D02*
X373190Y112205D01*
X295253Y24211D02*
Y27581D01*
X294619Y25839D02*
X295253Y26474D01*
X291961Y57356D02*
X345380Y3937D01*
X288857Y56563D02*
X341482Y3937D01*
X295253Y19663D02*
Y23033D01*
X350666Y3937D02*
X359080Y12350D01*
X354563Y3937D02*
X360718Y10091D01*
X303172Y22761D02*
X321995Y3937D01*
X346769D02*
X358309Y15478D01*
X368366Y8233D02*
X372662Y3937D01*
X364647Y8055D02*
X368765Y3937D01*
X358461D02*
X363064Y8540D01*
X362358Y3937D02*
X366335Y7913D01*
X285925Y20520D02*
X302508Y3937D01*
X295253Y19663D02*
X303172D01*
X287204Y22321D02*
X287507Y22625D01*
X284409Y3937D02*
X300135Y19663D01*
X298474D02*
X314200Y3937D01*
X302372Y19663D02*
X318098Y3937D01*
X293754Y20485D02*
X310303Y3937D01*
X290612Y19730D02*
X306405Y3937D01*
X245559Y74215D02*
X283548Y112205D01*
X237112D02*
X285702Y63615D01*
X241010Y112205D02*
X287935Y65279D01*
X243676Y80128D02*
X275754Y112205D01*
X245716Y78269D02*
X279651Y112205D01*
X276086D02*
X364819Y23473D01*
X279984Y112205D02*
X369244Y22945D01*
X233215Y112205D02*
X284909Y60511D01*
X244907Y112205D02*
X294880Y62232D01*
X198138Y112205D02*
X282815Y27527D01*
X177165Y112205D02*
X377953D01*
X178647Y30688D02*
X260164Y112205D01*
X178717Y26860D02*
X264061Y112205D01*
X190343D02*
X279556Y22991D01*
X194240Y112205D02*
X280363Y26082D01*
X178787Y23033D02*
X267959Y112205D01*
X178856Y19205D02*
X271856Y112205D01*
X256599D02*
X303290Y65514D01*
X272189Y112205D02*
X361995Y22398D01*
X248805Y112205D02*
X295495Y65514D01*
X252702Y112205D02*
X299393Y65514D01*
X264394Y112205D02*
X358627Y17972D01*
X268292Y112205D02*
X359947Y20549D01*
X260497Y112205D02*
X358449Y14253D01*
X243945Y41422D02*
X314728Y112205D01*
X245843Y39422D02*
X318626Y112205D01*
X213727D02*
X298351Y27581D01*
X239583Y40957D02*
X310831Y112205D01*
X217625D02*
X302249Y27581D01*
X246153Y75882D02*
X295253Y26781D01*
X244806Y73331D02*
X290622Y27516D01*
X241914Y72326D02*
X288202Y26038D01*
X177882Y72795D02*
X217292Y112205D01*
X177952Y68967D02*
X221189Y112205D01*
X177743Y80450D02*
X209497Y112205D01*
X177812Y76623D02*
X213394Y112205D01*
X178160Y57483D02*
X232882Y112205D01*
X178230Y53655D02*
X236779Y112205D01*
X178021Y65139D02*
X225087Y112205D01*
X178091Y61311D02*
X228984Y112205D01*
X177325Y103418D02*
X186112Y112205D01*
X177395Y99590D02*
X190010Y112205D01*
X177186Y111073D02*
X178317Y112205D01*
X177255Y107245D02*
X182215Y112205D01*
X177603Y88106D02*
X201702Y112205D01*
X177673Y84278D02*
X205599Y112205D01*
X177464Y95762D02*
X193907Y112205D01*
X177534Y91934D02*
X197805Y112205D01*
X209830D02*
X241630Y80405D01*
X202035Y112205D02*
X238074Y76166D01*
X205933Y112205D02*
X239079Y79058D01*
X179065Y7721D02*
X244289Y72945D01*
X178926Y15377D02*
X238376Y74827D01*
X178996Y11549D02*
X240235Y72788D01*
X178369Y46000D02*
X244574Y112205D01*
X178439Y42172D02*
X248471Y112205D01*
X178299Y49828D02*
X240677Y112205D01*
X177282Y105778D02*
X241294Y41767D01*
X178508Y38344D02*
X252369Y112205D01*
X178578Y34516D02*
X256266Y112205D01*
X177354Y101809D02*
X238903Y40260D01*
X177427Y97839D02*
X238121Y37144D01*
X214255Y3937D02*
X322523Y112205D01*
X221522D02*
X329790Y3937D01*
X194768D02*
X303036Y112205D01*
X198665Y3937D02*
X306933Y112205D01*
X253230Y3937D02*
X361498Y112205D01*
X257127Y3937D02*
X365395Y112205D01*
X225420D02*
X333688Y3937D01*
X229317Y112205D02*
X337585Y3937D01*
X179178D02*
X287446Y112205D01*
X182548D02*
X290816Y3937D01*
X178650Y112205D02*
X286918Y3937D01*
X179178D02*
X287446Y112205D01*
X186973Y3937D02*
X295241Y112205D01*
X190871Y3937D02*
X299138Y112205D01*
X183076Y3937D02*
X291343Y112205D01*
X186445D02*
X294713Y3937D01*
X245435D02*
X298031Y56533D01*
X249332Y3937D02*
X301928Y56533D01*
X241537Y3937D02*
X294880Y57279D01*
X268820Y3937D02*
X284766Y19883D01*
X282834Y19714D02*
X298611Y3937D01*
X280512D02*
X296238Y19663D01*
X272717Y3937D02*
X289122Y20342D01*
X276614Y3937D02*
X292521Y19844D01*
X222050Y3937D02*
X311596Y93483D01*
X179134Y3937D02*
X375984D01*
X177210Y109748D02*
X283021Y3937D01*
X218153D02*
X310474Y96259D01*
X233743Y3937D02*
X287009Y57204D01*
X237640Y3937D02*
X290343Y56640D01*
X225948Y3937D02*
X285985Y63975D01*
X229845Y3937D02*
X285219Y59311D01*
X178004Y66082D02*
X240149Y3937D01*
X178076Y62112D02*
X236251Y3937D01*
X178148Y58143D02*
X232354Y3937D01*
X178220Y54173D02*
X228456Y3937D01*
X178293Y50203D02*
X224559Y3937D01*
X202563D02*
X238964Y40338D01*
X178365Y46234D02*
X220661Y3937D01*
X178437Y42264D02*
X216764Y3937D01*
X177499Y93869D02*
X267431Y3937D01*
X177571Y89900D02*
X263533Y3937D01*
X177165Y112205D02*
X179134Y3937D01*
X177643Y85930D02*
X259636Y3937D01*
X177715Y81960D02*
X255739Y3937D01*
X177787Y77991D02*
X251841Y3937D01*
X177860Y74021D02*
X247944Y3937D01*
X177932Y70051D02*
X244046Y3937D01*
X210358D02*
X240499Y34078D01*
X241475Y33790D02*
X271328Y3937D01*
X206460D02*
X238499Y35976D01*
X179087Y6538D02*
X181687Y3937D01*
X261025D02*
X279650Y22562D01*
X264922Y3937D02*
X281295Y20310D01*
X246097Y36963D02*
X279123Y3937D01*
X244591Y34572D02*
X275226Y3937D01*
X178509Y38295D02*
X212867Y3937D01*
X178581Y34325D02*
X208969Y3937D01*
X178654Y30355D02*
X205072Y3937D01*
X178726Y26386D02*
X201174Y3937D01*
X178798Y22416D02*
X197277Y3937D01*
X178870Y18446D02*
X193379Y3937D01*
X178942Y14477D02*
X189482Y3937D01*
X179014Y10507D02*
X185584Y3937D01*
D26*
X337677Y236221D02*
X357874D01*
X331772Y230315D02*
X337677Y236221D01*
X357874D02*
X362205Y231890D01*
X275591Y230630D02*
X281181Y236221D01*
X315866D02*
X321772Y230315D01*
X281181Y236221D02*
X315866D01*
X224410Y209567D02*
X233347Y218504D01*
X267717D02*
X275591Y210630D01*
X233347Y218504D02*
X267717D01*
X215630Y228346D02*
X224410Y219567D01*
X173228Y220472D02*
X181102Y228346D01*
X215630D01*
X217756Y192913D02*
X224410Y199567D01*
X173228Y200472D02*
X180787Y192913D01*
X217756D01*
X167638Y194882D02*
X173228Y200472D01*
X123452Y202441D02*
X131011Y194882D01*
X167638D01*
X122047Y202441D02*
X123452D01*
X122047Y222441D02*
X127953Y228346D01*
X165354D02*
X173228Y220472D01*
X127953Y228346D02*
X165354D01*
X112520Y192913D02*
X122047Y202441D01*
X84331Y192913D02*
X112520D01*
X74803Y202441D02*
X84331Y192913D01*
X25591Y202441D02*
X33150Y194882D01*
X67244D02*
X74803Y202441D01*
X33150Y194882D02*
X67244D01*
X110236Y222441D02*
X122047D01*
X104331Y228346D02*
X110236Y222441D01*
X74803D02*
X86614D01*
X92520Y228346D01*
X62500Y232441D02*
X74803D01*
X56752Y238189D02*
X62500Y232441D01*
X25591D02*
X37894D01*
X43642Y238189D01*
X25591Y212441D02*
Y222441D01*
Y232441D01*
X43642Y238189D02*
X56752D01*
X74803Y222441D02*
Y232441D01*
Y212441D02*
Y222441D01*
X92520Y228346D02*
X104331D01*
X122047Y222441D02*
Y232441D01*
Y212441D02*
Y222441D01*
X173228Y220472D02*
Y230472D01*
Y210472D02*
Y220472D01*
X275591Y210630D02*
Y220630D01*
Y230630D01*
X296220Y200630D02*
X303543Y193307D01*
X275591Y200630D02*
X296220D01*
X303543Y193307D02*
X362205D01*
X224410Y199567D02*
X225157Y198819D01*
X250000D01*
X251811Y200630D02*
X275591D01*
X250000Y198819D02*
X251811Y200630D01*
D27*
X275591Y177913D02*
Y200630D01*
X255158Y157480D02*
X275591Y177913D01*
D28*
X225158Y157480D02*
D03*
X58307Y129921D02*
D03*
D29*
X255158Y157480D02*
D03*
X125984Y66929D02*
D03*
X28307Y129921D02*
D03*
X31496Y76024D02*
D03*
X125984Y152796D02*
D03*
D30*
X125984Y36929D02*
D03*
X31496Y46024D02*
D03*
X125984Y122796D02*
D03*
D31*
X173228Y230472D02*
D03*
X122047Y232441D02*
D03*
X275591Y230630D02*
D03*
X74803Y232441D02*
D03*
X224410Y229567D02*
D03*
X25591Y232441D02*
D03*
D32*
X173228Y220472D02*
D03*
Y210472D02*
D03*
Y200472D02*
D03*
X122047Y222441D02*
D03*
Y212441D02*
D03*
Y202441D02*
D03*
X275591Y220630D02*
D03*
Y210630D02*
D03*
Y200630D02*
D03*
X74803Y222441D02*
D03*
Y212441D02*
D03*
Y202441D02*
D03*
X224410Y219567D02*
D03*
Y209567D02*
D03*
Y199567D02*
D03*
X25591Y222441D02*
D03*
Y212441D02*
D03*
Y202441D02*
D03*
D33*
X362205Y231890D02*
D03*
Y193307D02*
D03*
X242126Y37795D02*
D03*
Y76378D02*
D03*
D34*
X283465Y23622D02*
D03*
X291339D02*
D03*
D35*
X299213D02*
D03*
D36*
X17717Y15748D02*
D03*
X19685Y265748D02*
D03*
X368110Y263779D02*
D03*
X366142Y15748D02*
D03*
M02*
