G04*
G04 #@! TF.GenerationSoftware,Altium Limited,Altium Designer,22.1.2 (22)*
G04*
G04 Layer_Color=32896*
%FSLAX25Y25*%
%MOIN*%
G70*
G04*
G04 #@! TF.SameCoordinates,D2A74ED6-6853-450D-875C-18D0DEDCCFCE*
G04*
G04*
G04 #@! TF.FilePolarity,Positive*
G04*
G01*
G75*
%ADD13C,0.01000*%
D13*
X371047Y149360D02*
X365800D01*
X368423D01*
Y141489D01*
X359240D02*
X361864D01*
X363176Y142800D01*
Y145424D01*
X361864Y146736D01*
X359240D01*
X357928Y145424D01*
Y144112D01*
X363176D01*
X353992Y146736D02*
X351368D01*
X350057Y145424D01*
Y141489D01*
X353992D01*
X355304Y142800D01*
X353992Y144112D01*
X350057D01*
X347433Y141489D02*
Y146736D01*
X346121D01*
X344809Y145424D01*
Y141489D01*
Y145424D01*
X343497Y146736D01*
X342185Y145424D01*
Y141489D01*
X326442Y148048D02*
X327754Y149360D01*
X330378D01*
X331690Y148048D01*
Y146736D01*
X330378Y145424D01*
X327754D01*
X326442Y144112D01*
Y142800D01*
X327754Y141489D01*
X330378D01*
X331690Y142800D01*
X323818Y138865D02*
Y146736D01*
X319883D01*
X318571Y145424D01*
Y142800D01*
X319883Y141489D01*
X323818D01*
X312011D02*
X314635D01*
X315947Y142800D01*
Y145424D01*
X314635Y146736D01*
X312011D01*
X310699Y145424D01*
Y144112D01*
X315947D01*
X302828Y146736D02*
X306764D01*
X308075Y145424D01*
Y142800D01*
X306764Y141489D01*
X302828D01*
X298892Y148048D02*
Y146736D01*
X300204D01*
X297580D01*
X298892D01*
Y142800D01*
X297580Y141489D01*
X293644Y146736D02*
Y141489D01*
Y144112D01*
X292333Y145424D01*
X291020Y146736D01*
X289709D01*
X284461Y141489D02*
X281837D01*
X280525Y142800D01*
Y145424D01*
X281837Y146736D01*
X284461D01*
X285773Y145424D01*
Y142800D01*
X284461Y141489D01*
X270030Y145424D02*
X264782D01*
X254287Y149360D02*
Y141489D01*
X250351D01*
X249039Y142800D01*
Y144112D01*
X250351Y145424D01*
X254287D01*
X250351D01*
X249039Y146736D01*
Y148048D01*
X250351Y149360D01*
X254287D01*
X245104Y146736D02*
X242480D01*
X241168Y145424D01*
Y141489D01*
X245104D01*
X246415Y142800D01*
X245104Y144112D01*
X241168D01*
X237232Y148048D02*
Y146736D01*
X238544D01*
X235920D01*
X237232D01*
Y142800D01*
X235920Y141489D01*
X226737Y146736D02*
X230673D01*
X231984Y145424D01*
Y142800D01*
X230673Y141489D01*
X226737D01*
X224113Y149360D02*
Y141489D01*
Y145424D01*
X222801Y146736D01*
X220177D01*
X218865Y145424D01*
Y141489D01*
X203122D02*
X208370D01*
X203122Y146736D01*
Y148048D01*
X204434Y149360D01*
X207058D01*
X208370Y148048D01*
X200499D02*
X199187Y149360D01*
X196563D01*
X195251Y148048D01*
Y142800D01*
X196563Y141489D01*
X199187D01*
X200499Y142800D01*
Y148048D01*
X371047Y134890D02*
X368423D01*
X369735D01*
Y127019D01*
X371047D01*
X368423D01*
X364488D02*
X360552D01*
X359240Y128331D01*
X360552Y129643D01*
X363176D01*
X364488Y130955D01*
X363176Y132267D01*
X359240D01*
X356616Y134890D02*
Y127019D01*
Y130955D01*
X355304Y132267D01*
X352680D01*
X351369Y130955D01*
Y127019D01*
X347433Y132267D02*
X344809D01*
X343497Y130955D01*
Y127019D01*
X347433D01*
X348745Y128331D01*
X347433Y129643D01*
X343497D01*
X340873Y132267D02*
Y127019D01*
Y129643D01*
X339561Y130955D01*
X338249Y132267D01*
X336937D01*
X331690D02*
X329066D01*
X327754Y130955D01*
Y127019D01*
X331690D01*
X333002Y128331D01*
X331690Y129643D01*
X327754D01*
X317259Y134890D02*
Y127019D01*
X313323D01*
X312011Y128331D01*
Y133579D01*
X313323Y134890D01*
X317259D01*
X309387Y127019D02*
X306764D01*
X308075D01*
Y132267D01*
X309387D01*
X302828Y127019D02*
X300204D01*
X301516D01*
Y134890D01*
X302828D01*
X296268Y127019D02*
X292333D01*
X291021Y128331D01*
X292333Y129643D01*
X294956D01*
X296268Y130955D01*
X294956Y132267D01*
X291021D01*
X288397Y134890D02*
Y127019D01*
Y130955D01*
X287085Y132267D01*
X284461D01*
X283149Y130955D01*
Y127019D01*
X279213Y132267D02*
X276589D01*
X275278Y130955D01*
Y127019D01*
X279213D01*
X280525Y128331D01*
X279213Y129643D01*
X275278D01*
X272654Y127019D02*
Y132267D01*
X268718D01*
X267406Y130955D01*
Y127019D01*
X371047Y121733D02*
X369735Y123045D01*
X367111D01*
X365800Y121733D01*
Y116485D01*
X367111Y115173D01*
X369735D01*
X371047Y116485D01*
Y121733D01*
X363176Y115173D02*
X360552D01*
X361864D01*
Y123045D01*
X363176Y121733D01*
X356616Y119109D02*
X351369D01*
X348745Y115173D02*
X346121D01*
X347433D01*
Y123045D01*
X348745Y121733D01*
X336937Y123045D02*
X342185D01*
Y119109D01*
X339561Y120421D01*
X338249D01*
X336937Y119109D01*
Y116485D01*
X338249Y115173D01*
X340873D01*
X342185Y116485D01*
X334314Y119109D02*
X329066D01*
X321195Y115173D02*
X326442D01*
X321195Y120421D01*
Y121733D01*
X322506Y123045D01*
X325130D01*
X326442Y121733D01*
X318571D02*
X317259Y123045D01*
X314635D01*
X313323Y121733D01*
Y116485D01*
X314635Y115173D01*
X317259D01*
X318571Y116485D01*
Y121733D01*
X305452Y115173D02*
X310699D01*
X305452Y120421D01*
Y121733D01*
X306764Y123045D01*
X309387D01*
X310699Y121733D01*
X297580Y123045D02*
X302828D01*
Y119109D01*
X300204Y120421D01*
X298892D01*
X297580Y119109D01*
Y116485D01*
X298892Y115173D01*
X301516D01*
X302828Y116485D01*
M02*
